mtllib decomp.mtl
o link4000
usemtl Material000
v 0.084929226 -0.110292925 -0.045348778
v 0.080479793 -0.142530595 -0.045518416
v 0.085804220 -0.074061580 -0.154269325
v 0.049526647 -0.066806066 -0.183291384
v 0.049526647 -0.110339154 -0.045436606
v 0.056782162 -0.161127756 -0.132502781
v 0.085804220 -0.146616727 -0.096225208
v 0.069128186 -0.155130911 -0.045228407
v 0.071293191 -0.066806066 -0.088969693
v 0.075706213 -0.081167898 -0.183129537
v 0.046983176 -0.153119907 -0.139558120
v 0.085804220 -0.066806066 -0.096225208
v 0.071293191 -0.161127756 -0.117991752
v 0.049603318 -0.066977159 -0.089049454
v 0.076463328 -0.066696608 -0.183172646
v 0.085804220 -0.139361212 -0.110736237
v 0.056782162 -0.153872241 -0.139758296
v 0.049526647 -0.081317095 -0.183291384
v 0.049526647 -0.157499999 -0.045436606
v 0.085804220 -0.066806066 -0.154269325
v 0.075386307 -0.138233095 -0.139554867
v 0.078548706 -0.153872241 -0.110736237
v 0.047359300 -0.155053718 -0.131148990
v 0.068894304 -0.144500002 -0.139947709
f 7 1 2
f 8 2 1
f 8 1 5
f 8 7 2
f 9 5 1
f 12 7 3
f 12 1 7
f 12 9 1
f 13 7 8
f 14 9 4
f 14 5 9
f 14 11 5
f 14 4 11
f 15 3 10
f 15 4 9
f 15 9 12
f 16 10 3
f 16 3 7
f 17 6 11
f 18 11 4
f 18 17 11
f 18 10 17
f 18 15 10
f 18 4 15
f 19 8 5
f 19 5 11
f 19 13 8
f 19 6 13
f 20 15 12
f 20 12 3
f 20 3 15
f 21 10 16
f 22 16 7
f 22 7 13
f 22 21 16
f 22 13 21
f 23 19 11
f 23 11 6
f 23 6 19
f 24 17 10
f 24 10 21
f 24 6 17
f 24 21 13
f 24 13 6
o link4001
usemtl Material001
v -0.051626110 0.158928746 -0.060478840
v -0.052050558 0.100070771 -0.088969693
v -0.051672820 0.160184557 -0.182897583
v -0.088328131 0.143603859 -0.234079987
v -0.124605705 0.100070771 -0.088969693
v -0.052050558 0.100070771 -0.183291384
v -0.124605705 0.158114889 -0.147013811
v -0.052050558 0.143603859 -0.059947635
v -0.081072617 0.135499999 -0.234079987
v -0.111371478 0.099652059 -0.180730046
v -0.049022701 0.174354896 -0.097926699
v -0.059306073 0.179881433 -0.161524840
v -0.117350190 0.158114889 -0.088969693
v -0.080970710 0.156760616 -0.060050469
v -0.052050558 0.172625918 -0.176035869
v -0.086951594 0.134896675 -0.233980120
v -0.124605705 0.143603859 -0.168780355
v -0.049386235 0.174435221 -0.160039962
v -0.110094675 0.158114889 -0.197802413
v -0.124605705 0.150859374 -0.096225208
v -0.066561587 0.179881433 -0.117991752
v -0.073817102 0.165370403 -0.059947635
v -0.081072617 0.143603859 -0.059947635
v -0.124605705 0.136348345 -0.088969693
v -0.095583646 0.158114889 -0.212313443
v -0.124605705 0.100070771 -0.168780355
v -0.066561587 0.179881433 -0.147013811
v -0.124605705 0.150859374 -0.161524840
v -0.059306073 0.179881433 -0.096225208
v -0.102839161 0.136348345 -0.212313443
v -0.081072617 0.165370403 -0.067203149
v -0.102839161 0.143603859 -0.212313443
f 32 29 26
f 33 27 30
f 34 30 26
f 34 26 29
f 35 26 30
f 35 32 26
f 35 25 32
f 39 33 28
f 39 27 33
f 40 33 30
f 40 30 34
f 40 28 33
f 41 29 31
f 42 35 30
f 42 30 27
f 42 27 39
f 42 39 36
f 42 36 35
f 44 37 31
f 44 31 29
f 45 31 37
f 46 32 25
f 46 37 38
f 47 29 32
f 47 46 38
f 47 32 46
f 48 38 37
f 48 47 38
f 48 29 47
f 48 44 29
f 48 37 44
f 49 39 28
f 49 36 39
f 49 43 36
f 49 28 43
f 50 40 34
f 50 34 29
f 50 29 41
f 50 41 43
f 51 43 31
f 51 36 43
f 51 45 36
f 51 31 45
f 52 43 41
f 52 41 31
f 52 31 43
f 53 35 36
f 53 36 45
f 53 45 37
f 53 46 25
f 53 25 35
f 54 28 40
f 54 40 50
f 54 50 43
f 55 53 37
f 55 37 46
f 55 46 53
f 56 54 43
f 56 43 28
f 56 28 54
o link4002
usemtl Material002
v 0.085804220 0.056537683 -0.110736237
v 0.107570764 0.063793198 -0.139758296
v 0.107570764 0.136348345 -0.139758296
v 0.071293191 0.135499999 -0.241335501
v 0.071293191 0.013004596 -0.241335501
v 0.071293191 0.136348345 -0.139758296
v 0.100315250 0.056537683 -0.125247267
v 0.100315250 0.042026654 -0.241335501
v 0.070883098 0.064732816 -0.111450076
v 0.107570764 0.158114889 -0.197802413
v 0.085804220 0.013004596 -0.139758296
v 0.099907401 0.012960560 -0.241360395
v 0.083500165 0.068378880 -0.114045235
v 0.068992750 0.060904666 -0.114756616
v 0.099232550 0.155825315 -0.183666080
v 0.085804220 0.136348345 -0.234079987
v 0.114826279 0.150859374 -0.183291384
v 0.100315250 0.020260110 -0.147013811
v 0.069785549 0.013527850 -0.142067465
v 0.099153113 0.155064123 -0.196252781
v 0.107570764 0.150859374 -0.205057928
v 0.085804220 0.107326286 -0.241335501
v 0.075292726 0.135012728 -0.240635638
v 0.114826279 0.071048713 -0.197802413
v 0.096442408 0.013778358 -0.159327912
v 0.071293191 0.020260110 -0.132502781
v 0.114826279 0.150859374 -0.190546899
v 0.114826279 0.071048713 -0.183291384
v 0.078548706 0.020260110 -0.132502781
v 0.114826279 0.085559742 -0.197802413
v 0.107570764 0.027515625 -0.197802413
v 0.107570764 0.027515625 -0.212313443
f 63 58 59
f 63 59 57
f 65 59 62
f 68 61 60
f 68 67 61
f 69 65 57
f 69 57 59
f 69 59 65
f 70 65 62
f 70 62 60
f 70 60 61
f 71 62 59
f 71 60 62
f 73 59 58
f 73 71 59
f 73 66 71
f 74 63 57
f 74 57 67
f 74 58 63
f 75 70 61
f 75 61 67
f 76 71 66
f 76 66 60
f 76 60 71
f 77 72 66
f 77 64 72
f 78 72 64
f 78 68 60
f 78 64 68
f 79 60 66
f 79 66 72
f 79 78 60
f 79 72 78
f 80 68 64
f 81 74 67
f 81 67 68
f 81 68 74
f 82 75 67
f 82 57 65
f 82 65 70
f 82 70 75
f 83 77 66
f 83 66 73
f 83 73 80
f 83 64 77
f 84 80 73
f 84 73 58
f 84 58 74
f 85 82 67
f 85 67 57
f 85 57 82
f 86 83 80
f 86 80 64
f 86 64 83
f 87 84 74
f 87 74 68
f 87 80 84
f 88 87 68
f 88 68 80
f 88 80 87
o link4003
usemtl Material003
v 0.107570764 0.100070771 -0.088969693
v 0.107570764 0.078304227 -0.088969693
v 0.107570764 0.100070771 -0.139758296
v -0.122293128 0.099953644 -0.139582471
v -0.124605705 0.085559742 -0.088969693
v -0.071592886 0.013648114 -0.143163006
v -0.124605705 0.100070771 -0.088969693
v 0.069785549 0.013527850 -0.142067465
v -0.099277144 0.052058704 -0.142854838
v -0.023028500 0.013004596 -0.103480723
v -0.122879977 0.088170315 -0.139713377
v 0.107570764 0.071048713 -0.103480723
v -0.102839161 0.049282169 -0.132502781
v -0.030284014 0.049282169 -0.088969693
v -0.073817102 0.013004596 -0.132502781
v 0.020504588 0.013004596 -0.103480723
v 0.102095862 0.074546397 -0.140089858
v 0.071293191 0.013004596 -0.132502781
v -0.066561587 0.056537683 -0.088969693
v -0.117350190 0.078304227 -0.088969693
v 0.035015618 0.049282169 -0.088969693
v 0.049526647 0.013004596 -0.117991752
v -0.037539529 0.013004596 -0.110736237
v 0.064037676 0.056537683 -0.088969693
f 89 90 91
f 93 90 89
f 95 89 91
f 95 91 92
f 95 93 89
f 97 92 91
f 97 96 94
f 97 91 96
f 99 95 92
f 99 93 95
f 99 92 97
f 100 91 90
f 101 97 94
f 101 99 97
f 101 93 99
f 102 90 93
f 103 94 96
f 103 101 94
f 103 93 101
f 104 102 98
f 104 98 103
f 105 100 96
f 105 96 91
f 105 91 100
f 106 100 90
f 106 96 100
f 106 104 103
f 106 103 96
f 107 102 93
f 107 98 102
f 108 93 103
f 108 107 93
f 108 98 107
f 109 90 102
f 109 102 104
f 110 106 90
f 110 90 104
f 110 104 106
f 111 108 103
f 111 103 98
f 111 98 108
f 112 109 104
f 112 104 90
f 112 90 109
o link4004
usemtl Material004
v -0.073817102 -0.030528492 -0.241335501
v -0.073817102 -0.074061580 -0.241335501
v -0.073817102 -0.030528492 -0.429978882
v -0.107558677 -0.031932248 -0.429677221
v -0.143000007 -0.030012326 -0.336083284
v -0.073817102 -0.074061580 -0.429978882
v -0.124605705 -0.037784007 -0.241335501
v -0.143000007 -0.028513599 -0.376363903
v -0.102839161 -0.074061580 -0.429978882
v -0.087204232 -0.073964914 -0.241285498
v -0.118000001 -0.029307396 -0.243079372
v -0.146372249 -0.037784007 -0.379190280
v -0.102839161 -0.074061580 -0.408212338
v -0.124605705 -0.052295036 -0.263102045
v -0.124605705 -0.045039522 -0.248591016
f 113 114 115
f 118 115 114
f 120 113 115
f 120 115 116
f 121 116 115
f 121 115 118
f 121 118 114
f 122 114 113
f 122 113 119
f 123 119 113
f 123 117 119
f 123 120 117
f 123 113 120
f 124 120 116
f 124 116 121
f 124 117 120
f 125 121 114
f 125 114 122
f 125 124 121
f 126 117 124
f 126 125 122
f 126 124 125
f 127 126 122
f 127 122 119
f 127 119 117
f 127 117 126
o link4005
usemtl Material005
v 0.042271132 -0.074061580 -0.371934765
v 0.042271132 -0.155499995 -0.371934765
v 0.039950593 -0.112901613 -0.434922533
v -0.092000000 -0.074061580 -0.429978882
v -0.080103486 -0.073274354 -0.372024693
v 0.020504588 -0.161127756 -0.400956824
v 0.042271132 -0.074061580 -0.429978882
v -0.048029925 -0.115037811 -0.367486884
v 0.042271132 -0.161127756 -0.400956824
v 0.027760103 -0.139361212 -0.429978882
v 0.042606116 -0.137011297 -0.423921932
v -0.008517470 -0.161127756 -0.379190280
v -0.095583646 -0.095828124 -0.400956824
v -0.091999547 -0.091651856 -0.427665615
v 0.020504588 -0.146616727 -0.422723368
v 0.035015618 -0.146616727 -0.422723368
v -0.006934056 -0.155180804 -0.370025272
v -0.092000000 -0.073731845 -0.405255946
v 0.005993559 -0.161127756 -0.393701309
f 134 130 131
f 134 132 128
f 134 131 132
f 135 129 128
f 135 128 132
f 138 134 128
f 138 128 129
f 138 129 136
f 138 130 134
f 138 137 130
f 139 136 129
f 139 133 136
f 140 135 132
f 140 139 135
f 141 131 130
f 141 130 137
f 141 140 131
f 141 139 140
f 142 136 133
f 142 141 137
f 143 138 136
f 143 137 138
f 143 142 137
f 143 136 142
f 144 139 129
f 144 129 135
f 144 135 139
f 145 140 132
f 145 132 131
f 145 131 140
f 146 133 139
f 146 139 141
f 146 142 133
f 146 141 142
o link4006
usemtl Material006
v -0.071079815 0.082206078 -0.372181464
v -0.073817102 -0.030528492 -0.371934765
v -0.073817102 -0.030528492 -0.429978882
v -0.095583646 0.100070771 -0.429978882
v -0.143000007 0.031768721 -0.371355827
v -0.073817102 0.100070771 -0.429978882
v -0.081072617 0.085559742 -0.371934765
v -0.124605705 -0.052295036 -0.393701309
v -0.104019613 -0.041934173 -0.430484413
v -0.095583646 0.100070771 -0.408212338
v -0.073817102 0.100070771 -0.408212338
v -0.099251366 -0.050473247 -0.415709844
v -0.143000007 -0.030528492 -0.371934765
v -0.124605705 0.042026654 -0.422723368
v -0.146372249 0.027515625 -0.386445794
v -0.098252254 -0.049582819 -0.394015433
v -0.102693647 -0.044978864 -0.429986440
v -0.124605705 -0.045039522 -0.422723368
v -0.117350190 0.027515625 -0.429978882
v -0.124605705 0.049282169 -0.415467853
v -0.146372249 -0.030528492 -0.386445794
v -0.124605705 -0.052295036 -0.415467853
v -0.117350190 -0.023272978 -0.429978882
f 147 148 149
f 152 147 149
f 153 151 148
f 153 148 147
f 155 152 149
f 155 150 152
f 156 151 153
f 156 152 150
f 157 153 147
f 157 147 152
f 157 156 153
f 157 152 156
f 158 149 148
f 159 154 148
f 159 148 151
f 161 156 150
f 161 151 156
f 162 158 148
f 162 148 154
f 162 154 158
f 163 155 149
f 163 149 158
f 164 155 163
f 164 161 160
f 165 160 150
f 165 150 155
f 165 164 160
f 166 161 150
f 166 150 160
f 166 160 161
f 167 159 151
f 167 151 161
f 167 161 164
f 167 154 159
f 168 164 163
f 168 163 158
f 168 158 154
f 168 167 164
f 168 154 167
f 169 165 155
f 169 155 164
f 169 164 165
o link4007
usemtl Material007
v 0.064037676 0.100070771 -0.393701309
v 0.085804220 0.085559742 -0.408212338
v 0.049526647 0.114581801 -0.473511970
v -0.056406606 0.101868231 -0.475554959
v -0.074540104 0.079051672 -0.371871309
v 0.081643165 0.081377626 -0.472072921
v 0.064037676 0.107326286 -0.466256455
v 0.077844569 0.077604886 -0.393762101
v -0.030284014 0.114581801 -0.393701309
v 0.075103344 0.088836577 -0.475248558
v -0.059306073 0.078304227 -0.473511970
v 0.078548706 0.092815257 -0.415467853
v 0.056782162 0.107326286 -0.415467853
v 0.085804220 0.085559742 -0.429978882
v -0.050119065 0.096289235 -0.372146025
v 0.082819991 0.075755430 -0.430216900
v -0.023028500 0.121837315 -0.473511970
v -0.073817102 0.100070771 -0.408212338
v -0.042640008 0.108451828 -0.475655928
v 0.064037676 0.107326286 -0.473511970
v 0.049526647 0.114581801 -0.466256455
v 0.071293191 0.100070771 -0.437234397
v 0.027760103 0.114581801 -0.393701309
v -0.052050558 0.078304227 -0.371934765
v 0.081819852 0.074901222 -0.408530126
v -0.059306073 0.100070771 -0.371934765
v -0.073830783 0.079872119 -0.423312655
v -0.044795043 0.114581801 -0.451745426
v 0.020504588 0.121837315 -0.473511970
v 0.049526647 0.107326286 -0.393701309
v 0.035015618 0.114581801 -0.400956824
v -0.023028500 0.121837315 -0.466256455
v -0.052050558 0.107326286 -0.393701309
v -0.073817102 0.092815257 -0.371934765
v -0.073817102 0.100070771 -0.429978882
v 0.020504588 0.121837315 -0.466256455
v -0.037539529 0.114581801 -0.415467853
f 177 171 170
f 180 179 175
f 180 173 179
f 181 170 171
f 181 171 176
f 182 170 181
f 183 176 171
f 184 177 170
f 185 183 171
f 185 175 183
f 185 180 175
f 188 179 173
f 188 173 186
f 189 175 179
f 189 183 175
f 189 176 183
f 189 179 172
f 189 172 176
f 190 182 176
f 190 176 172
f 191 182 181
f 191 181 176
f 191 176 182
f 193 177 184
f 193 174 180
f 194 185 171
f 194 171 177
f 194 177 193
f 194 193 180
f 194 180 185
f 195 192 178
f 195 193 184
f 195 174 193
f 196 180 174
f 197 186 173
f 198 172 179
f 198 179 188
f 198 188 186
f 198 190 172
f 199 170 182
f 199 192 195
f 199 195 184
f 199 184 170
f 200 182 190
f 200 199 182
f 200 192 199
f 201 178 192
f 201 186 197
f 201 198 186
f 202 195 178
f 202 187 195
f 203 195 187
f 203 187 174
f 203 174 195
f 204 196 174
f 204 174 187
f 204 173 180
f 204 180 196
f 204 197 173
f 204 187 197
f 205 192 200
f 205 201 192
f 205 198 201
f 205 200 190
f 205 190 198
f 206 201 197
f 206 178 201
f 206 202 178
f 206 197 187
f 206 187 202
o link4008
usemtl Material008
v 0.102766870 0.005588565 -0.277905570
v 0.107570764 -0.030528492 -0.277613074
v 0.114826279 0.034771140 -0.429978882
v 0.056782162 0.078304227 -0.429978882
v 0.056782162 -0.074061580 -0.277613074
v 0.078548706 0.085559742 -0.328401677
v 0.114826279 0.013004596 -0.350168221
v 0.056782162 0.005749081 -0.277613074
v 0.100315250 -0.066806066 -0.429978882
v 0.093059735 0.078304227 -0.429978882
v 0.107570764 0.042026654 -0.328401677
v 0.093059735 0.063793198 -0.299379618
v 0.056782162 0.078304227 -0.328401677
v 0.085804220 -0.074061580 -0.277613074
v 0.114826279 -0.037784007 -0.429978882
v 0.056782162 -0.074061580 -0.429978882
v 0.087946437 -0.069761863 -0.430385154
v 0.062374699 0.090574984 -0.393872983
v 0.114826279 0.027515625 -0.379190280
v 0.107570764 0.056537683 -0.422723368
v 0.100315250 0.056537683 -0.313890648
v 0.061265234 0.092673032 -0.335306922
v 0.114826279 -0.016017463 -0.357423736
v 0.100315250 -0.059550551 -0.335657192
v 0.093059735 -0.074061580 -0.371934765
v 0.107570764 0.056537683 -0.429978882
v 0.114826279 0.034771140 -0.408212338
v 0.107570764 0.049282169 -0.371934765
v 0.100315250 0.063793198 -0.371934765
v 0.085804220 0.078304227 -0.328401677
v 0.071293191 0.092815257 -0.335657192
v 0.063628932 0.085251869 -0.328398081
v 0.114826279 -0.008761948 -0.350168221
v 0.114826279 -0.030528492 -0.393701309
v 0.107570764 -0.052295036 -0.393701309
v 0.100315250 -0.052295036 -0.299379618
v 0.093059735 -0.066806066 -0.299379618
v 0.100315250 -0.066806066 -0.400956824
v 0.093059735 0.078304227 -0.415467853
v 0.093059735 0.071048713 -0.342912706
v 0.083619353 0.062188626 -0.299544595
v 0.114826279 -0.023272978 -0.371934765
v 0.107570764 -0.037784007 -0.306635133
v 0.114826279 -0.037784007 -0.422723368
v 0.107570764 -0.045039522 -0.342912706
f 214 211 208
f 214 208 207
f 214 210 211
f 217 207 208
f 217 208 213
f 218 214 207
f 219 210 214
f 220 208 211
f 221 209 213
f 222 211 210
f 222 220 211
f 223 221 215
f 223 209 221
f 223 210 216
f 223 222 210
f 224 216 210
f 225 217 213
f 225 213 209
f 227 218 207
f 227 207 217
f 228 224 210
f 228 210 219
f 229 221 213
f 231 223 215
f 231 220 222
f 231 222 223
f 232 226 209
f 232 216 226
f 232 223 216
f 232 209 223
f 233 225 209
f 233 209 226
f 233 217 225
f 234 227 217
f 234 226 227
f 234 233 226
f 234 217 233
f 235 227 226
f 236 212 218
f 236 218 227
f 237 228 218
f 237 218 212
f 237 216 224
f 237 224 228
f 238 228 219
f 238 219 214
f 239 229 213
f 239 213 208
f 239 208 229
f 240 221 229
f 242 208 220
f 243 220 231
f 243 242 220
f 243 230 242
f 244 231 215
f 244 243 231
f 244 230 243
f 244 241 230
f 244 215 221
f 245 235 226
f 245 226 216
f 245 212 236
f 245 237 212
f 245 216 237
f 246 236 227
f 246 227 235
f 246 245 236
f 246 235 245
f 247 238 214
f 247 214 218
f 247 218 228
f 247 228 238
f 248 240 229
f 248 229 208
f 248 208 240
f 249 240 208
f 249 242 230
f 249 208 242
f 250 221 240
f 250 240 249
f 250 244 221
f 250 241 244
f 251 249 230
f 251 230 241
f 251 250 249
f 251 241 250
o link4009
usemtl Material009
v -0.081072617 0.136348345 -0.183291384
v -0.089517347 -0.066910609 -0.183317080
v -0.081072617 0.013004596 -0.241335501
v -0.086696335 0.134645473 -0.241276502
v -0.117350190 0.107326286 -0.190546899
v -0.081072617 0.135499999 -0.241335501
v -0.081072617 0.013004596 -0.183291384
v -0.111122790 0.106981383 -0.180367069
v -0.109421646 0.136317894 -0.182928964
v -0.124605705 -0.030528492 -0.234079987
v -0.118000001 -0.029307396 -0.243079372
v -0.087822482 -0.066762575 -0.241313005
v -0.102839161 -0.023272978 -0.183291384
v -0.089576322 -0.066277964 -0.183161580
v -0.095583646 0.136348345 -0.234079987
v -0.095583646 -0.066806066 -0.241335501
v -0.112010124 0.080989683 -0.182161274
v -0.110094675 0.136348345 -0.197802413
v -0.124605705 0.027515625 -0.234079987
v -0.124605705 -0.016017463 -0.226824472
v -0.118000001 0.027374217 -0.241549757
v -0.124605705 0.013004596 -0.226824472
f 257 252 254
f 258 254 252
f 259 258 252
f 260 259 252
f 260 256 259
f 262 257 254
f 262 255 257
f 263 258 253
f 263 254 258
f 263 262 254
f 264 261 253
f 265 253 258
f 265 258 259
f 265 264 253
f 265 259 264
f 266 257 255
f 266 252 257
f 267 263 253
f 267 253 261
f 267 261 262
f 267 262 263
f 268 264 259
f 268 259 256
f 269 256 260
f 269 260 252
f 269 252 266
f 270 262 261
f 270 269 266
f 270 256 269
f 271 268 256
f 271 261 264
f 271 264 268
f 271 270 261
f 272 270 266
f 272 266 255
f 272 255 262
f 272 262 270
f 273 271 256
f 273 256 270
f 273 270 271
o link4010
usemtl Material010
v 0.093059735 -0.081317095 -0.045436606
v 0.093059735 -0.095828124 -0.045436606
v 0.049526647 -0.110339154 -0.139758296
v -0.044795043 -0.066806066 -0.139758296
v -0.044795043 -0.110339154 -0.045436606
v 0.049526647 -0.066806066 -0.139758296
v 0.082269230 -0.082150345 -0.089470368
v 0.084929226 -0.110292925 -0.045348778
v -0.044795043 -0.081000000 -0.045436606
v -0.044795043 -0.110339154 -0.139758296
v 0.093059735 -0.081317095 -0.052692120
v 0.080876377 -0.110074626 -0.088561255
v -0.048435900 -0.070426802 -0.083387354
v 0.071293191 -0.074061580 -0.045436606
v 0.071293191 -0.066806066 -0.088969693
v 0.093059735 -0.095828124 -0.052692120
v 0.042271132 -0.066806066 -0.067203149
v 0.064037676 -0.066806066 -0.067203149
v 0.071293191 -0.066806066 -0.081714179
f 279 276 277
f 280 276 279
f 281 275 274
f 281 278 276
f 282 278 281
f 283 277 276
f 283 276 278
f 284 274 275
f 285 276 280
f 285 281 276
f 286 278 282
f 286 283 278
f 286 277 283
f 287 282 281
f 287 281 274
f 288 284 280
f 288 280 279
f 288 274 284
f 288 279 277
f 289 275 281
f 289 281 285
f 289 284 275
f 289 285 280
f 289 280 284
f 290 286 282
f 290 282 287
f 290 288 277
f 290 277 286
f 291 287 274
f 291 290 287
f 291 288 290
f 292 291 274
f 292 274 288
f 292 288 291
o link4011
usemtl Material011
v -0.076228545 0.119043262 -0.325573520
v -0.073817102 -0.030528492 -0.328401677
v -0.071079815 0.082206078 -0.372181464
v -0.143000007 0.031768721 -0.371355827
v -0.146372249 0.034771140 -0.328401677
v -0.073817102 -0.030528492 -0.371934765
v -0.081072617 0.121837315 -0.335657192
v -0.070827676 0.119408892 -0.333377928
v -0.143000007 -0.030528492 -0.371934765
v -0.081072617 0.085559742 -0.371934765
v -0.073334814 0.120344524 -0.328057792
v -0.143000007 -0.027633350 -0.334079328
f 297 294 293
f 298 295 294
f 299 297 293
f 299 296 297
f 300 294 295
f 300 295 299
f 301 296 295
f 301 295 298
f 301 297 296
f 301 298 294
f 302 299 295
f 302 295 296
f 302 296 299
f 303 293 294
f 303 294 300
f 303 300 299
f 303 299 293
f 304 301 294
f 304 294 297
f 304 297 301
o link4012
usemtl Material012
v 0.078548706 0.121837315 0.048885085
v 0.100315250 0.121837315 0.005351997
v 0.085804220 0.158114889 0.005351997
v -0.090865717 0.154048539 -0.047199211
v -0.095583646 0.078304227 -0.038181091
v 0.100315250 0.143603859 -0.045436606
v -0.095583646 0.135499999 0.048885085
v 0.100315250 0.135499999 0.005351997
v 0.076811788 0.084099901 0.047700779
v 0.042271132 0.165370403 -0.038181091
v -0.088328131 0.078304227 -0.045436606
v 0.049526647 0.158114889 0.034374056
v -0.095583646 0.158114889 -0.030925576
v 0.078548706 0.150859374 0.034374056
v 0.093059735 0.158114889 -0.023670062
v -0.088328131 0.078304227 0.048885085
v 0.076920058 0.083524665 -0.044442309
v 0.090125549 0.154535612 -0.046595694
v -0.095474897 0.087846795 -0.045387990
v -0.073817102 0.135499999 0.048885085
v 0.071293191 0.158114889 0.027118541
v -0.052050558 0.158114889 0.034374056
v -0.044795043 0.165370403 -0.045436606
v 0.100315250 0.143603859 -0.030925576
v -0.095583646 0.078304227 0.034374056
v 0.100315250 0.121837315 -0.045436606
v 0.078548706 0.158114889 0.019863026
v 0.027760103 0.165370403 -0.030925576
v -0.081072617 0.158114889 0.012607512
v -0.095472617 0.087927730 0.048829196
v -0.023028500 0.165370403 -0.030925576
v -0.066561587 0.158114889 0.027118541
v -0.044795043 0.165370403 -0.038181091
f 312 305 306
f 312 306 310
f 313 306 305
f 317 309 311
f 318 312 307
f 318 305 312
f 318 316 305
f 319 307 312
f 319 314 307
f 320 309 315
f 320 313 305
f 320 305 311
f 321 306 313
f 321 320 315
f 321 313 320
f 322 321 315
f 322 315 308
f 322 319 310
f 322 314 319
f 323 315 309
f 323 308 315
f 323 317 308
f 323 309 317
f 324 316 311
f 324 311 305
f 324 305 316
f 325 316 318
f 326 311 316
f 327 308 317
f 327 322 308
f 327 314 322
f 328 319 312
f 328 312 310
f 328 310 319
f 329 311 309
f 329 309 320
f 330 310 306
f 330 306 321
f 330 322 310
f 330 321 322
f 331 307 314
f 331 314 325
f 331 325 318
f 331 318 307
f 332 325 314
f 332 316 325
f 332 326 316
f 332 314 327
f 333 317 311
f 334 329 320
f 334 320 311
f 334 311 329
f 335 332 327
f 335 326 332
f 336 333 311
f 336 311 326
f 337 327 317
f 337 317 333
f 337 333 336
f 337 335 327
f 337 336 326
f 337 326 335
o link4013
usemtl Material013
v 0.093059735 0.078304227 -0.429978882
v 0.136592823 -0.030528492 -0.517045058
v 0.129337308 0.056537683 -0.524300573
v 0.078254152 0.106860036 -0.524478148
v 0.078548706 -0.059550551 -0.429978882
v 0.078548706 -0.059550551 -0.524300573
v 0.093059735 0.107326286 -0.517045058
v 0.114826279 0.034771140 -0.429978882
v 0.075898025 0.082690916 -0.430217152
v 0.123346069 -0.049979543 -0.526395797
v 0.107570764 0.092815257 -0.517045058
v 0.093059735 0.107326286 -0.524300573
v 0.136592823 0.034771140 -0.517045058
v 0.107570764 0.056537683 -0.429978882
v 0.114826279 -0.037784007 -0.429978882
v 0.085804220 0.085559742 -0.429978882
v 0.136592823 0.034771140 -0.524300573
v 0.122081794 -0.059550551 -0.502534029
v 0.078548706 0.107326286 -0.502534029
v 0.129907991 -0.029043858 -0.526534297
v 0.107570764 0.092815257 -0.524300573
v 0.136592823 -0.016017463 -0.509789543
v 0.100315250 0.071048713 -0.437234397
v 0.122081794 0.071048713 -0.517045058
v 0.114826279 0.042026654 -0.437234397
v 0.119482896 -0.058065810 -0.525286071
v 0.107570764 -0.059550551 -0.444489911
v 0.129337308 -0.052295036 -0.517045058
v 0.085804220 0.107326286 -0.502534029
v 0.122081794 0.071048713 -0.524300573
v 0.136592823 0.020260110 -0.509789543
v 0.129337308 0.056537683 -0.517045058
v 0.107570764 -0.052295036 -0.429978882
v 0.096513366 -0.057184896 -0.430252990
f 345 338 342
f 346 343 342
f 346 341 343
f 347 343 341
f 348 344 338
f 349 344 348
f 351 338 345
f 352 345 342
f 353 346 342
f 353 342 338
f 353 338 344
f 354 350 339
f 354 340 350
f 355 342 343
f 356 349 341
f 356 344 349
f 356 341 346
f 356 346 353
f 357 347 341
f 357 341 349
f 357 340 354
f 357 354 339
f 357 339 347
f 358 349 348
f 358 357 349
f 359 339 350
f 359 352 339
f 359 345 352
f 360 348 338
f 360 338 351
f 361 360 351
f 361 348 360
f 361 358 348
f 362 351 345
f 362 345 350
f 363 355 343
f 363 343 347
f 364 355 352
f 364 342 355
f 365 339 352
f 365 352 355
f 365 355 363
f 365 363 347
f 365 347 339
f 366 356 353
f 366 353 344
f 366 344 356
f 367 340 357
f 367 357 358
f 367 361 340
f 367 358 361
f 368 359 350
f 368 350 345
f 368 345 359
f 369 361 351
f 369 350 340
f 369 340 361
f 369 362 350
f 369 351 362
f 370 364 352
f 370 352 342
f 371 370 342
f 371 342 364
f 371 364 370
o link4014
usemtl Material014
v 0.100315250 0.042026654 -0.241335501
v 0.107570764 -0.016017463 -0.241335501
v 0.107570764 0.027515625 -0.277613074
v 0.089244415 0.051236765 -0.277371712
v 0.056782162 -0.074061580 -0.241335501
v 0.100315250 0.049282169 -0.277613074
v 0.107570764 0.020260110 -0.241335501
v 0.073450065 -0.073807422 -0.241165462
v 0.056782162 0.005749081 -0.241335501
v 0.056782162 -0.074061580 -0.277613074
v 0.100315250 0.049282169 -0.263102045
v 0.087327448 0.050147612 -0.241228632
v 0.081115102 -0.063374760 -0.277967187
v 0.056782162 0.005749081 -0.277613074
v 0.107570764 0.027515625 -0.263102045
v 0.100596509 -0.021818460 -0.278048375
v 0.085804220 -0.066806066 -0.241335501
v 0.074735921 -0.070805123 -0.277920470
v 0.107570764 -0.023272978 -0.255846530
f 378 373 374
f 380 376 379
f 381 379 376
f 381 376 380
f 382 374 377
f 382 377 375
f 383 378 372
f 383 380 379
f 383 382 375
f 383 372 382
f 383 379 373
f 383 373 378
f 385 375 377
f 385 381 380
f 385 383 375
f 385 380 383
f 386 378 374
f 386 374 382
f 386 382 372
f 386 372 378
f 387 377 374
f 387 385 377
f 387 384 385
f 388 373 379
f 389 379 381
f 389 385 384
f 389 381 385
f 389 388 379
f 389 384 388
f 390 387 374
f 390 374 373
f 390 373 388
f 390 388 384
f 390 384 387
o link4015
usemtl Material015
v 0.085804220 -0.016017463 -0.139758296
v 0.100315250 -0.023272978 -0.154269325
v 0.107570764 0.013004596 -0.241335501
v -0.088328131 0.013004596 -0.241335501
v -0.090247941 -0.066336567 -0.139696602
v -0.081072617 0.013004596 -0.139758296
v 0.093059735 0.013004596 -0.147013811
v 0.079285643 -0.066504364 -0.139303171
v 0.056782162 -0.066806066 -0.241335501
v 0.074947956 0.014254301 -0.145273357
v -0.102839161 0.013004596 -0.154269325
v 0.096442408 0.013778358 -0.159327912
v 0.085804220 -0.066806066 -0.241335501
v -0.087822482 -0.066762575 -0.241313005
v -0.095583646 -0.030528492 -0.139758296
v -0.098371556 0.013396175 -0.183563910
v 0.107570764 0.013004596 -0.234079987
v 0.107570764 -0.008761948 -0.241335501
v -0.102839161 -0.023272978 -0.183291384
v -0.095583646 0.013004596 -0.147013811
v 0.107570764 -0.008761948 -0.234079987
v -0.089576322 -0.066277964 -0.183161580
v -0.102839161 -0.008761948 -0.154269325
v -0.102839161 -0.016017463 -0.161524840
v -0.102839161 -0.023272978 -0.176035869
f 397 391 392
f 398 392 391
f 398 396 395
f 398 391 396
f 399 394 393
f 400 393 394
f 400 396 391
f 400 391 397
f 402 397 392
f 402 400 397
f 402 393 400
f 403 392 398
f 403 399 393
f 403 398 399
f 404 394 399
f 404 399 398
f 404 398 395
f 405 395 396
f 406 400 394
f 407 402 392
f 407 393 402
f 408 403 393
f 408 393 407
f 409 401 406
f 409 406 394
f 409 394 404
f 410 405 396
f 410 401 405
f 410 406 401
f 410 396 400
f 410 400 406
f 411 392 403
f 411 403 408
f 411 408 407
f 411 407 392
f 412 409 404
f 412 404 395
f 412 395 409
f 413 405 401
f 413 401 409
f 413 395 405
f 414 413 409
f 414 395 413
f 415 414 409
f 415 409 395
f 415 395 414
o link4016
usemtl Material016
v 0.020504588 0.136348345 0.135951261
v 0.078548706 0.085559742 0.114184717
v 0.071293191 0.135499999 0.099673688
v -0.093390248 0.134600385 0.090216628
v -0.059306073 0.085559742 0.128695746
v -0.051991748 0.087852833 0.092312821
v -0.015772985 0.143603859 0.099673688
v 0.078548706 0.136348345 0.114184717
v 0.035015618 0.085559742 0.135951261
v -0.052050558 0.136348345 0.128695746
v 0.071191146 0.088713641 0.099542539
v -0.052050558 0.135499999 0.092418173
v -0.094972119 0.089233696 0.091839897
v -0.073817102 0.085559742 0.121440232
v 0.078255479 0.089233696 0.106552347
v 0.042271132 0.143603859 0.121440232
v -0.037539529 0.085559742 0.135951261
v 0.056782162 0.114581801 0.128695746
v -0.095583646 0.136348345 0.099673688
v -0.059306073 0.092815257 0.128695746
v 0.076893702 0.134719297 0.104823798
v 0.049526647 0.136348345 0.128695746
v -0.023028500 0.136348345 0.135951261
v -0.034306899 0.141499996 0.118401200
v 0.042271132 0.143603859 0.106929202
v 0.035015618 0.107326286 0.135951261
v 0.056782162 0.085559742 0.128695746
v 0.071293191 0.085559742 0.121440232
v -0.081072617 0.136348345 0.114184717
v -0.037539529 0.092815257 0.135951261
v 0.071293191 0.121837315 0.121440232
v -0.073817102 0.092815257 0.121440232
v -0.030284014 0.121837315 0.135951261
f 424 420 417
f 426 417 421
f 427 421 419
f 427 426 421
f 427 418 426
f 427 422 418
f 427 419 422
f 428 419 421
f 429 421 417
f 429 417 420
f 429 428 421
f 430 423 417
f 430 417 426
f 432 424 416
f 432 420 424
f 434 422 419
f 434 419 428
f 434 428 429
f 435 429 420
f 435 420 432
f 436 418 423
f 436 423 430
f 436 430 426
f 436 426 418
f 437 431 416
f 437 423 431
f 438 416 431
f 438 432 416
f 439 431 422
f 439 438 431
f 439 425 438
f 439 422 434
f 440 431 423
f 440 423 418
f 440 418 422
f 440 422 431
f 441 416 424
f 441 424 433
f 441 437 416
f 441 433 437
f 442 433 424
f 442 424 417
f 443 417 423
f 443 442 417
f 443 433 442
f 444 434 429
f 444 439 434
f 444 425 439
f 444 435 425
f 445 435 432
f 445 425 435
f 445 432 438
f 446 437 433
f 446 423 437
f 446 443 423
f 446 433 443
f 447 444 429
f 447 429 435
f 447 435 444
f 448 445 438
f 448 438 425
f 448 425 445
o link4017
usemtl Material017
v 0.085804220 0.136348345 0.106929202
v 0.136592823 0.085559742 0.034374056
v 0.136592823 0.136348345 -0.016414547
v 0.078548706 0.121837315 -0.045436606
v 0.071193661 0.089028148 0.106777974
v 0.124710153 0.089233696 -0.043999965
v 0.078304398 0.143558674 0.005283311
v 0.129337308 0.136348345 0.048885085
v 0.107570764 0.085559742 0.092418173
v 0.136592823 0.085559742 -0.030925576
v 0.129337308 0.136348345 -0.045436606
v 0.076920058 0.083524665 -0.044442309
v 0.071293191 0.135499999 0.106929202
v 0.136592823 0.136348345 0.019863026
v 0.122081794 0.143603859 0.041629570
v 0.093059735 0.085559742 0.106929202
v 0.114826279 0.136348345 0.077907144
v 0.122081794 0.114581801 0.070651629
v 0.136592823 0.107326286 -0.030925576
v 0.100327178 0.135513716 -0.045449902
v 0.093059735 0.078304227 -0.045436606
v 0.071293191 0.135499999 0.048885085
v 0.136592823 0.121837315 0.027118541
v 0.082105100 0.141078204 0.088881701
v 0.118301503 0.141475499 -0.034590598
v 0.100315250 0.114581801 0.099673688
v 0.088164397 0.141000003 0.087900199
v 0.122081794 0.085559742 0.070651629
v 0.129337308 0.107326286 0.056140600
v 0.100315250 0.078304227 0.019863026
v 0.078548706 0.078304227 0.063396114
v 0.069480511 0.085024392 0.061748371
v 0.111763000 0.141000003 -0.034329802
v 0.093059735 0.107326286 0.106929202
v 0.107570764 0.107326286 0.092418173
v 0.136592823 0.092815257 0.034374056
v 0.129337308 0.085559742 0.056140600
v 0.100315250 0.078304227 -0.023670062
v 0.093059735 0.078304227 0.041629570
v 0.085804220 0.078304227 0.056140600
v 0.070132160 0.082178307 0.048093443
f 458 451 450
f 459 458 454
f 462 450 451
f 463 456 462
f 463 462 451
f 464 461 453
f 464 449 461
f 465 456 463
f 466 456 465
f 467 459 451
f 467 451 458
f 467 458 459
f 468 452 455
f 469 459 454
f 469 454 458
f 469 460 452
f 469 468 459
f 469 452 468
f 470 461 455
f 470 455 452
f 470 452 460
f 471 462 456
f 471 450 462
f 472 461 449
f 472 463 455
f 472 455 461
f 473 455 463
f 473 459 468
f 473 463 451
f 473 451 459
f 474 465 449
f 475 465 463
f 475 449 465
f 475 472 449
f 475 463 472
f 476 466 457
f 477 456 466
f 477 466 476
f 478 458 450
f 479 460 469
f 479 469 478
f 479 464 453
f 479 457 464
f 480 453 461
f 480 461 470
f 481 473 468
f 481 468 455
f 481 455 473
f 482 474 449
f 482 449 464
f 482 464 457
f 483 466 465
f 483 465 474
f 483 457 466
f 483 482 457
f 483 474 482
f 484 477 450
f 484 450 471
f 484 471 456
f 484 456 477
f 485 477 476
f 485 450 477
f 485 478 450
f 486 478 469
f 486 469 458
f 486 458 478
f 487 479 478
f 487 485 476
f 487 478 485
f 488 476 457
f 488 457 479
f 488 487 476
f 488 479 487
f 489 480 470
f 489 470 460
f 489 460 479
f 489 479 453
f 489 453 480
o link4018
usemtl Material018
v 0.073450065 -0.073807422 -0.241165462
v 0.078548706 -0.117594668 -0.241335501
v 0.084888133 -0.073279160 -0.430052739
v 0.042271132 -0.074061580 -0.429978882
v 0.042274545 -0.155487613 -0.241334089
v 0.081653048 -0.070279120 -0.357759024
v 0.066884135 -0.142955426 -0.241180130
v 0.042271132 -0.074061580 -0.241335501
v 0.049526647 -0.161127756 -0.400956824
v 0.085804220 -0.081317095 -0.357423736
v 0.042271132 -0.161127756 -0.400956824
v 0.056782162 -0.139361212 -0.429978882
v 0.064037676 -0.161127756 -0.241335501
v 0.081567351 -0.077083512 -0.430339914
v 0.042271132 -0.146616727 -0.422723368
v 0.071293191 -0.146616727 -0.408212338
v 0.071293191 -0.124850183 -0.429978882
v 0.042606116 -0.137011297 -0.423921932
v 0.056782162 -0.146616727 -0.422723368
v 0.078548706 -0.117594668 -0.255846530
v 0.056782162 -0.161127756 -0.393701309
v 0.064037676 -0.161127756 -0.270357560
f 495 492 493
f 496 491 490
f 497 495 493
f 497 490 495
f 497 496 490
f 497 494 496
f 499 495 490
f 499 490 491
f 499 492 495
f 500 497 493
f 500 494 497
f 502 496 494
f 502 500 498
f 502 494 500
f 502 491 496
f 503 501 493
f 503 493 492
f 504 500 493
f 504 498 500
f 505 491 502
f 505 492 499
f 506 503 492
f 506 501 503
f 506 505 501
f 506 492 505
f 507 504 493
f 507 493 501
f 507 501 504
f 508 504 501
f 508 498 504
f 508 505 498
f 508 501 505
f 509 505 499
f 509 499 491
f 509 491 505
f 510 502 498
f 510 498 505
f 511 510 505
f 511 505 502
f 511 502 510
o link4019
usemtl Material019
v 0.059901155 0.134885192 -0.327882945
v 0.067089637 0.082052507 -0.328112343
v 0.064037676 0.100070771 -0.393701309
v -0.052050558 0.107326286 -0.393701309
v -0.073817102 0.078304227 -0.328401677
v 0.049526647 0.136348345 -0.379190280
v 0.064037676 0.136348345 -0.357423736
v -0.072286310 0.134760463 -0.327260919
v 0.064037676 0.078304227 -0.393701309
v 0.035015618 0.114581801 -0.393701309
v 0.056782162 0.136348345 -0.371934765
v -0.074540104 0.079051672 -0.371871309
v -0.008517470 0.143603859 -0.364679250
v -0.030284014 0.114581801 -0.393701309
v -0.073817102 0.129092830 -0.342912706
v -0.052050558 0.078304227 -0.393701309
v 0.056782162 0.143603859 -0.357423736
v 0.005993559 0.136348345 -0.379190280
v -0.015772985 0.136348345 -0.371934765
v -0.073817102 0.092815257 -0.371934765
v -0.059306073 0.143603859 -0.335657192
v 0.056782162 0.143603859 -0.335657192
v -0.059306073 0.136348345 -0.350168221
v -0.059306073 0.143603859 -0.328401677
v -0.052050558 0.143603859 -0.342912706
f 518 512 513
f 518 513 514
f 519 516 513
f 519 513 512
f 520 514 513
f 520 513 516
f 520 515 514
f 521 517 514
f 521 514 515
f 522 518 514
f 522 514 517
f 525 521 515
f 525 517 521
f 526 523 516
f 526 516 519
f 527 520 516
f 527 516 523
f 527 523 515
f 527 515 520
f 528 522 517
f 528 517 524
f 528 518 522
f 529 524 517
f 529 517 525
f 530 525 515
f 530 529 525
f 530 524 529
f 531 526 515
f 531 515 523
f 531 523 526
f 532 526 519
f 532 528 524
f 533 512 518
f 533 518 528
f 533 528 532
f 534 524 530
f 534 530 515
f 534 515 526
f 534 526 532
f 535 533 532
f 535 532 519
f 535 519 512
f 535 512 533
f 536 534 532
f 536 532 524
f 536 524 534
o link4020
usemtl Material020
v 0.064037676 -0.059550551 -0.081714179
v 0.085804220 -0.059550551 -0.110736237
v 0.078548706 -0.023272978 -0.132502781
v -0.078044245 -0.024932776 -0.144428274
v -0.090247941 -0.066336567 -0.139696602
v -0.030284014 -0.023272978 -0.103480723
v 0.085804220 -0.030528492 -0.132502781
v 0.061345831 -0.070294405 -0.083339955
v 0.027760103 -0.023272978 -0.103480723
v -0.081072617 -0.023272978 -0.132502781
v 0.079285643 -0.066504364 -0.139303171
v -0.066561587 -0.059550551 -0.081714179
v 0.027760103 -0.045039522 -0.088969693
v 0.056782162 -0.023272978 -0.117991752
v 0.076192995 -0.024559548 -0.143367655
v -0.095583646 -0.045039522 -0.132502781
v 0.082793818 -0.032864150 -0.144308600
v -0.062057984 -0.070874007 -0.083612238
v 0.081112339 -0.068803529 -0.111931434
v -0.023028500 -0.045039522 -0.088969693
v -0.091946080 -0.046710841 -0.142170123
v -0.095583646 -0.059550551 -0.117991752
v -0.090249718 -0.068112261 -0.119176446
f 543 537 538
f 543 539 537
f 544 538 537
f 545 539 542
f 546 542 539
f 547 543 538
f 548 542 546
f 548 544 537
f 549 545 542
f 549 537 545
f 549 548 537
f 550 545 537
f 550 537 539
f 550 539 545
f 551 546 539
f 551 540 546
f 551 539 543
f 552 546 540
f 553 547 541
f 553 540 551
f 553 551 543
f 553 543 547
f 554 544 548
f 555 547 538
f 555 538 544
f 555 544 554
f 556 549 542
f 556 542 548
f 556 548 549
f 557 552 540
f 557 541 552
f 557 553 541
f 557 540 553
f 558 548 546
f 558 546 552
f 558 552 541
f 558 554 548
f 559 555 554
f 559 541 547
f 559 547 555
f 559 558 541
f 559 554 558
o link4021
usemtl Material021
v -0.008517470 0.085559742 -0.241335501
v -0.008517470 -0.074061580 -0.241335501
v -0.008517470 -0.074061580 -0.429978882
v -0.073830783 0.079872119 -0.423312655
v -0.073817102 0.085559742 -0.241335501
v -0.073817102 -0.074061580 -0.429978882
v -0.008517470 0.078304227 -0.429978882
v -0.073817102 0.085559742 -0.328401677
v -0.073817102 -0.074061580 -0.241335501
v -0.008517470 0.085559742 -0.328401677
f 560 561 562
f 564 561 560
f 565 562 561
f 566 560 562
f 566 565 563
f 566 562 565
f 567 564 560
f 567 563 564
f 568 565 561
f 568 561 564
f 568 564 563
f 568 563 565
f 569 566 563
f 569 563 567
f 569 567 560
f 569 560 566
o link4022
usemtl Material022
v -0.073817102 0.085559742 -0.241335501
v -0.073817102 -0.030528492 -0.241335501
v -0.073817102 -0.030528492 -0.328401677
v -0.124605705 0.049282169 -0.328401677
v -0.146372249 -0.001506434 -0.248591016
v -0.073817102 0.085559742 -0.328401677
v -0.124605705 0.042026654 -0.241335501
v -0.146372249 -0.030528492 -0.277613074
v -0.124518110 -0.027329232 -0.333948316
v -0.095583646 0.085559742 -0.277613074
v -0.118000001 -0.029307396 -0.243079372
v -0.089290007 0.085226783 -0.241099234
v -0.146372249 0.005749081 -0.263102045
v -0.146372249 0.005749081 -0.313890648
v -0.083664964 0.084816631 -0.327200560
v -0.124605705 0.049282169 -0.255846530
v -0.146372249 -0.023272978 -0.248591016
v -0.146372249 -0.030528492 -0.255846530
v -0.146372249 -0.008761948 -0.313890648
f 570 571 572
f 575 570 572
f 577 572 571
f 578 575 572
f 578 573 575
f 578 572 577
f 579 570 575
f 580 571 576
f 581 576 571
f 581 571 570
f 581 570 579
f 582 574 576
f 582 577 574
f 583 573 578
f 583 582 573
f 583 577 582
f 584 579 575
f 584 575 573
f 584 573 579
f 585 579 573
f 585 581 579
f 585 576 581
f 585 582 576
f 585 573 582
f 586 580 576
f 586 576 574
f 586 574 577
f 587 577 571
f 587 571 580
f 587 586 577
f 587 580 586
f 588 583 578
f 588 578 577
f 588 577 583
o link4023
usemtl Material023
v 0.071178032 0.156393973 -0.045577151
v 0.071293191 0.100070771 -0.045436606
v 0.071293191 0.100070771 -0.088969693
v -0.049341587 0.169810592 -0.090987610
v -0.081072617 0.100070771 -0.045436606
v 0.049526647 0.179881433 -0.088969693
v 0.071293191 0.165370403 -0.059947635
v 0.056782162 0.165370403 -0.045436606
v -0.081072617 0.100070771 -0.088969693
v 0.070730202 0.159448586 -0.089247366
v -0.080893660 0.155746046 -0.045611814
v 0.049526647 0.179881433 -0.081714179
v -0.042559085 0.174772219 -0.090749848
v -0.059306073 0.165370403 -0.045436606
v -0.081072617 0.143603859 -0.088969693
v -0.044795043 0.179881433 -0.081714179
v 0.027760103 0.179881433 -0.067203149
v -0.080970710 0.156760616 -0.060050469
v -0.066561587 0.165370403 -0.052692120
v 0.042271132 0.179881433 -0.074458664
v -0.030284014 0.179881433 -0.067203149
f 593 591 590
f 595 589 590
f 595 590 591
f 596 593 590
f 596 590 589
f 596 589 595
f 597 592 591
f 597 591 593
f 598 591 592
f 598 595 591
f 598 594 595
f 600 595 594
f 601 598 592
f 601 594 598
f 602 599 593
f 602 593 596
f 603 597 593
f 603 592 597
f 604 600 594
f 604 594 601
f 604 601 592
f 604 592 603
f 605 602 596
f 605 600 604
f 606 603 593
f 606 593 599
f 606 604 603
f 607 599 602
f 607 606 599
f 607 604 606
f 608 605 596
f 608 600 605
f 608 596 595
f 608 595 600
f 609 605 604
f 609 602 605
f 609 607 602
f 609 604 607
o link4024
usemtl Material024
v 0.073984921 0.122395299 0.103916582
v 0.071293191 0.135499999 0.099673688
v -0.095583646 0.143603859 0.092418173
v -0.068854837 0.148197807 0.031776063
v 0.078548706 0.121837315 0.034374056
v 0.035015618 0.150859374 0.077907144
v -0.030284014 0.143603859 0.099673688
v 0.078548706 0.143603859 0.041629570
v -0.120774372 0.120272514 0.047485340
v -0.059306073 0.150859374 0.063396114
v -0.008517470 0.143603859 0.099673688
v -0.052050558 0.121837315 0.099673688
v -0.030284014 0.150859374 0.077907144
v 0.078548706 0.121837315 0.048885085
v 0.071293191 0.150859374 0.048885085
v 0.068315538 0.148016622 0.033004084
v -0.120874643 0.134585349 0.047548847
v -0.073817102 0.121837315 0.034374056
v -0.073817102 0.150859374 0.041629570
v -0.052050558 0.135499999 0.099673688
v -0.093444904 0.120053789 0.090229855
v 0.078548706 0.135499999 0.048885085
v 0.049526647 0.150859374 0.070651629
v 0.078548706 0.143603859 0.034374056
v -0.124605705 0.121837315 0.063396114
v -0.124605705 0.129092830 0.063396114
f 617 611 610
f 620 616 610
f 620 610 611
f 620 611 615
f 620 615 616
f 622 616 615
f 622 612 616
f 622 619 612
f 622 615 619
f 623 614 617
f 624 611 617
f 624 619 615
f 625 614 613
f 626 613 618
f 627 618 613
f 627 613 614
f 627 614 618
f 628 612 619
f 628 626 612
f 628 613 626
f 628 619 624
f 628 625 613
f 628 624 625
f 629 616 612
f 629 612 621
f 629 621 610
f 629 610 616
f 630 610 621
f 630 623 610
f 630 618 614
f 630 614 623
f 630 621 612
f 631 623 617
f 631 617 610
f 631 610 623
f 632 624 615
f 632 615 611
f 632 611 624
f 633 617 614
f 633 614 625
f 633 625 624
f 633 624 617
f 634 626 618
f 634 630 612
f 634 618 630
f 635 634 612
f 635 612 626
f 635 626 634
o link4025
usemtl Material025
v -0.066561587 0.107326286 -0.473511970
v -0.056292183 -0.104665704 -0.482887376
v -0.058121860 0.119288237 -0.525227006
v -0.091999903 0.106804498 -0.525933325
v -0.124605705 -0.016017463 -0.473511970
v -0.057083432 -0.120065871 -0.526039379
v -0.073817102 0.121837315 -0.517045058
v -0.056406606 0.101868231 -0.475554959
v -0.057990117 -0.100606438 -0.474437579
v -0.117350190 0.049282169 -0.473511970
v -0.081084364 -0.114503993 -0.528407534
v -0.059306073 0.121837315 -0.509789543
v -0.073817102 0.121837315 -0.524300573
v -0.095583646 0.085559742 -0.473511970
v -0.073817102 -0.103083639 -0.473511970
v -0.139116734 0.013004596 -0.517045058
v -0.066561587 0.114581801 -0.488022999
v -0.059306073 0.114581801 -0.488022999
v -0.095583646 0.107326286 -0.517045058
v -0.124605705 -0.066806066 -0.517045058
v -0.059306073 -0.117594668 -0.495278514
v -0.124605705 0.020260110 -0.473511970
v -0.132375915 -0.015289579 -0.526537802
v -0.066561587 0.121837315 -0.509789543
v -0.088328131 0.092815257 -0.473511970
v -0.117350190 0.078304227 -0.517045058
v -0.073817102 0.107326286 -0.480767485
v -0.102839161 -0.074061580 -0.473511970
v -0.139116734 -0.016017463 -0.517045058
v -0.066561587 -0.110339154 -0.480767485
v -0.059306073 -0.124850183 -0.517045058
v -0.131861219 0.042026654 -0.509789543
v -0.132448566 0.012765356 -0.526453881
v -0.124605705 -0.066806066 -0.524300573
v -0.110094675 0.078304227 -0.495278514
v -0.117350190 0.078304227 -0.524300573
v -0.117350190 -0.045039522 -0.473511970
v -0.110094675 -0.088572610 -0.517045058
v -0.081072617 -0.117594668 -0.517045058
v -0.066561587 -0.124850183 -0.524300573
v -0.066561587 -0.124850183 -0.517045058
v -0.124605705 0.034771140 -0.480767485
v -0.124605705 0.056537683 -0.502534029
v -0.126090320 -0.042809185 -0.526318741
v -0.131861219 -0.045039522 -0.517045058
v -0.110094675 0.063793198 -0.473511970
v -0.110094675 0.085559742 -0.509789543
v -0.131861219 0.049282169 -0.524300573
v -0.117350190 -0.066806066 -0.495278514
v -0.124605705 -0.030528492 -0.480767485
v -0.095583646 -0.095828124 -0.495278514
v -0.110094675 -0.088572610 -0.524300573
v -0.073817102 -0.110339154 -0.488022999
v -0.066561587 -0.117594668 -0.495278514
v -0.131861219 0.020260110 -0.495278514
v -0.117350190 0.071048713 -0.502534029
v -0.131861219 0.049282169 -0.517045058
v -0.131861219 -0.030528492 -0.502534029
v -0.088328131 -0.095828124 -0.480767485
v -0.110094675 -0.074061580 -0.488022999
v -0.095583646 -0.088572610 -0.480767485
f 643 641 638
f 643 637 641
f 644 643 636
f 644 637 643
f 645 640 636
f 646 639 638
f 646 638 641
f 647 643 638
f 648 638 639
f 648 647 638
f 648 642 647
f 649 645 636
f 650 644 636
f 650 636 640
f 653 636 643
f 653 643 647
f 653 652 636
f 653 647 652
f 654 648 639
f 654 642 648
f 656 637 644
f 657 651 640
f 657 640 645
f 659 652 647
f 659 647 642
f 659 642 652
f 660 649 636
f 660 654 649
f 662 652 642
f 662 642 654
f 662 654 660
f 662 660 636
f 662 636 652
f 663 650 640
f 664 640 651
f 665 656 644
f 665 644 650
f 666 641 637
f 666 637 656
f 668 639 646
f 668 646 658
f 668 664 651
f 668 658 664
f 669 664 658
f 670 649 654
f 671 661 654
f 671 654 639
f 672 663 640
f 673 655 669
f 675 646 641
f 675 641 666
f 675 674 646
f 676 666 656
f 676 675 666
f 676 674 675
f 677 657 645
f 677 645 667
f 679 669 658
f 679 658 646
f 679 646 669
f 680 669 655
f 680 664 669
f 680 655 672
f 681 645 649
f 681 649 670
f 682 670 654
f 682 654 661
f 682 661 670
f 683 671 639
f 683 639 668
f 683 668 651
f 683 661 671
f 684 672 655
f 684 663 672
f 684 655 673
f 685 672 640
f 685 640 664
f 685 680 672
f 686 673 674
f 687 673 669
f 687 669 646
f 687 674 673
f 687 646 674
f 688 665 650
f 689 676 656
f 689 656 665
f 689 665 688
f 689 688 674
f 689 674 676
f 690 677 667
f 690 667 651
f 690 651 657
f 690 657 677
f 691 670 661
f 691 661 678
f 691 681 670
f 691 678 645
f 691 645 681
f 692 683 651
f 692 651 667
f 692 678 661
f 692 661 683
f 692 667 645
f 692 645 678
f 693 685 664
f 693 664 680
f 693 680 685
f 694 650 663
f 694 688 650
f 694 686 674
f 694 674 688
f 695 684 673
f 695 663 684
f 696 694 663
f 696 686 694
f 696 663 695
f 696 695 673
f 696 673 686
o link4026
usemtl Material026
v 0.070744851 0.158681913 -0.182852618
v 0.071293191 0.143603859 -0.183291384
v 0.064037676 0.158114889 -0.241335501
v -0.050745580 0.154818291 -0.238336853
v -0.052050558 0.143603859 -0.183291384
v 0.064037676 0.143603859 -0.241335501
v -0.030284014 0.179881433 -0.190546899
v 0.071293191 0.158114889 -0.212313443
v -0.028421808 0.174354896 -0.180343050
v 0.042978412 0.143709466 -0.243231503
v 0.071380198 0.141078204 -0.215946198
v -0.030284014 0.165370403 -0.226824472
v -0.044795043 0.172625918 -0.183291384
v 0.071293191 0.165370403 -0.205057928
v 0.026590822 0.174713557 -0.180643560
v -0.051253448 0.143485379 -0.239648321
v 0.027760103 0.179881433 -0.190546899
v -0.052050558 0.165370403 -0.212313443
v -0.051672820 0.160184557 -0.182897583
v 0.027760103 0.165370403 -0.226824472
v -0.044795043 0.172625918 -0.190546899
f 705 701 698
f 706 700 699
f 706 699 702
f 707 698 701
f 707 706 702
f 707 702 699
f 707 699 704
f 708 699 700
f 709 705 703
f 710 697 698
f 710 707 704
f 710 698 707
f 710 704 699
f 711 705 698
f 711 698 697
f 711 703 705
f 712 700 706
f 712 707 701
f 712 706 707
f 713 708 703
f 713 710 699
f 713 703 711
f 713 711 697
f 713 697 710
f 714 708 700
f 714 703 708
f 714 712 701
f 714 700 712
f 715 701 705
f 715 705 709
f 715 714 701
f 715 709 714
f 716 713 699
f 716 699 708
f 716 708 713
f 717 714 709
f 717 709 703
f 717 703 714
o link4027
usemtl Material027
v 0.077970322 0.085530358 -0.241208927
v 0.107570764 0.027515625 -0.277613074
v 0.078548706 0.085559742 -0.328401677
v -0.008517470 0.085559742 -0.328401677
v -0.008517470 0.005749081 -0.241335501
v 0.105844395 0.005691397 -0.328506791
v -0.008517470 0.085559742 -0.241335501
v 0.085804220 0.078304227 -0.241335501
v 0.107570764 0.034771140 -0.292124104
v 0.100930958 0.032518707 -0.328827723
v -0.008517470 0.005749081 -0.328401677
v 0.085804220 0.005749081 -0.241335501
v 0.093059735 0.056537683 -0.241335501
v 0.085804220 0.078304227 -0.328401677
v 0.102766870 0.005588565 -0.277905570
f 724 718 720
f 724 720 721
f 724 722 718
f 724 721 722
f 725 720 718
f 726 719 723
f 727 721 720
f 727 726 723
f 728 722 721
f 728 727 723
f 728 721 727
f 729 718 722
f 730 726 725
f 730 719 726
f 730 729 719
f 730 725 718
f 730 718 729
f 731 720 725
f 731 725 726
f 731 727 720
f 731 726 727
f 732 728 723
f 732 722 728
f 732 729 722
f 732 723 719
f 732 719 729
o link4028
usemtl Material028
v 0.085804220 0.114581801 -0.524300573
v 0.151103852 -0.045039522 -0.567833661
v 0.093059735 0.129092830 -0.604111234
v -0.088328131 0.078304227 -0.618622263
v -0.095583646 -0.124850183 -0.531556087
v 0.078548706 -0.088572610 -0.618622263
v -0.044795043 0.150859374 -0.567833661
v 0.151103852 0.049282169 -0.575089175
v 0.107570764 -0.095828124 -0.524300573
v 0.042271132 0.071048713 -0.625877778
v -0.088328131 -0.132105698 -0.604111234
v 0.042271132 0.150859374 -0.567833661
v -0.044795043 0.150859374 -0.604111234
v -0.095583646 0.121837315 -0.524300573
v 0.129337308 0.092815257 -0.567833661
v 0.151103852 -0.008761948 -0.611366749
v 0.136592823 0.042026654 -0.524300573
v 0.107570764 -0.117594668 -0.604111234
v -0.066561587 -0.052295036 -0.625877778
v -0.153627763 -0.037784007 -0.604111234
v 0.078548706 0.136348345 -0.567833661
v -0.015772985 0.114581801 -0.618622263
v 0.042271132 0.150859374 -0.604111234
v 0.020504588 0.143603859 -0.531556087
v -0.117350190 -0.081317095 -0.524300573
v -0.117350190 0.107326286 -0.604111234
v -0.081072617 0.136348345 -0.567833661
v 0.129337308 0.092815257 -0.604111234
v 0.078548706 -0.023272978 -0.625877778
v 0.114826279 0.085559742 -0.524300573
v 0.136592823 0.071048713 -0.553322631
v 0.136592823 -0.045039522 -0.524300573
v 0.151103852 0.013004596 -0.553322631
v 0.122081794 -0.103083639 -0.575089175
v 0.143848338 -0.066806066 -0.604111234
v 0.035015618 -0.153872241 -0.604111234
v -0.066561587 0.049282169 -0.625877778
v -0.131861219 -0.088572610 -0.604111234
v 0.064037676 0.129092830 -0.524300573
v 0.100315250 0.121837315 -0.567833661
v -0.044795043 0.107326286 -0.618622263
v 0.042271132 0.107326286 -0.618622263
v 0.064037676 0.143603859 -0.604111234
v 0.020504588 0.150859374 -0.553322631
v -0.044795043 0.136348345 -0.524300573
v -0.030284014 -0.139361212 -0.524300573
v -0.139116734 0.027515625 -0.524300573
v -0.153627763 0.034771140 -0.604111234
v -0.066561587 0.143603859 -0.567833661
v -0.102839161 0.121837315 -0.575089175
v -0.081072617 0.136348345 -0.604111234
v 0.151103852 0.049282169 -0.604111234
v 0.093059735 0.071048713 -0.618622263
v 0.100315250 -0.059550551 -0.618622263
v 0.013249074 -0.081317095 -0.625877778
v 0.114826279 0.107326286 -0.560578146
v 0.143848338 0.063793198 -0.567833661
v 0.129337308 0.063793198 -0.524300573
v 0.151103852 0.034771140 -0.560578146
v 0.143848338 -0.016017463 -0.531556087
v 0.129337308 -0.088572610 -0.560578146
v 0.151103852 -0.045039522 -0.604111234
v 0.122081794 -0.103083639 -0.604111234
v 0.056782162 -0.146616727 -0.604111234
f 745 739 744
f 746 741 733
f 748 740 734
f 749 733 741
f 755 745 744
f 755 754 745
f 757 741 746
f 760 735 747
f 761 751 742
f 762 733 749
f 764 749 741
f 765 734 740
f 769 742 751
f 769 754 742
f 769 751 752
f 770 743 737
f 770 757 752
f 770 737 757
f 770 752 751
f 770 751 743
f 771 753 744
f 771 733 753
f 771 744 756
f 771 746 733
f 772 747 735
f 772 735 753
f 772 753 733
f 773 745 754
f 773 769 736
f 773 754 769
f 774 742 754
f 774 754 755
f 775 753 735
f 775 774 755
f 775 735 774
f 775 755 744
f 775 744 753
f 776 756 744
f 776 744 739
f 777 739 746
f 777 771 756
f 777 746 771
f 777 776 739
f 777 756 776
f 778 757 737
f 778 741 757
f 778 768 741
f 778 737 743
f 778 743 768
f 779 757 746
f 779 752 757
f 780 758 736
f 780 752 779
f 780 779 746
f 780 746 758
f 780 769 752
f 780 736 769
f 781 759 746
f 781 746 739
f 781 739 745
f 782 758 746
f 782 746 759
f 783 782 759
f 783 758 782
f 783 745 773
f 783 773 736
f 783 736 758
f 783 781 745
f 783 759 781
f 784 740 748
f 785 735 760
f 785 774 735
f 785 742 774
f 785 761 742
f 785 748 761
f 785 784 748
f 785 760 784
f 786 761 748
f 786 738 761
f 786 748 767
f 787 761 738
f 787 751 761
f 787 738 768
f 787 768 743
f 787 743 751
f 788 762 747
f 788 733 762
f 788 772 733
f 788 747 772
f 789 747 763
f 789 760 747
f 789 784 760
f 789 740 784
f 789 763 749
f 790 762 749
f 790 749 763
f 790 763 747
f 790 747 762
f 791 765 740
f 791 749 765
f 791 789 749
f 791 740 789
f 792 764 734
f 792 734 765
f 792 765 749
f 792 749 764
f 793 764 741
f 793 741 766
f 793 734 764
f 793 767 734
f 793 766 767
f 794 767 748
f 794 748 734
f 794 734 767
f 795 767 766
f 795 766 750
f 795 786 767
f 795 750 738
f 795 738 786
f 796 768 738
f 796 738 750
f 796 750 766
f 796 766 741
f 796 741 768
o link4029
usemtl Material029
v -0.052050558 0.100070771 -0.139758296
v -0.055460143 0.011878787 -0.133852677
v -0.052050558 0.013004596 -0.183291384
v -0.111371478 0.099652059 -0.180730046
v -0.122293128 0.099953644 -0.139582471
v -0.052050558 0.100070771 -0.183291384
v -0.102839161 0.013004596 -0.154269325
v -0.098371556 0.013396175 -0.183563910
v -0.124605705 0.100070771 -0.168780355
v -0.102839161 0.042026654 -0.139758296
v -0.112010124 0.080989683 -0.182161274
v -0.124605705 0.078304227 -0.168780355
v -0.081072617 0.013004596 -0.139758296
v -0.122879977 0.088170315 -0.139713377
v -0.095583646 0.013004596 -0.147013811
v -0.088328131 0.020260110 -0.139758296
v -0.124605705 0.078304227 -0.161524840
f 797 798 799
f 801 798 797
f 802 797 799
f 804 802 799
f 804 799 798
f 804 798 803
f 805 801 797
f 805 797 802
f 805 802 800
f 807 800 802
f 807 802 804
f 807 805 800
f 808 804 803
f 808 807 804
f 808 805 807
f 810 806 798
f 810 798 801
f 810 803 806
f 810 801 805
f 811 806 803
f 811 803 798
f 811 798 809
f 812 809 798
f 812 798 806
f 812 811 809
f 812 806 811
f 813 808 803
f 813 803 810
f 813 810 805
f 813 805 808
o link4030
usemtl Material030
v 0.121183815 0.135176087 -0.045108152
v 0.124710153 0.089233696 -0.043999965
v 0.129337308 0.136348345 -0.139758296
v 0.108962611 0.136401360 -0.183939283
v 0.107435743 0.088416072 -0.045374647
v 0.122081794 0.078304227 -0.176035869
v 0.107577387 0.135501518 -0.045440330
v 0.129337308 0.136348345 -0.125247267
v 0.129337308 0.085559742 -0.154269325
v 0.122081794 0.136348345 -0.176035869
v 0.107464816 0.078394746 -0.183297844
v 0.114826279 0.078304227 -0.088969693
v 0.123221558 0.118890354 -0.043146357
v 0.111374559 0.082176757 -0.183265950
v 0.129337308 0.092815257 -0.154269325
v 0.107570764 0.078304227 -0.088969693
v 0.122081794 0.078304227 -0.154269325
f 821 820 814
f 821 816 817
f 821 817 820
f 822 821 815
f 822 816 821
f 823 817 816
f 823 822 819
f 824 820 817
f 824 818 820
f 825 815 818
f 826 820 818
f 826 818 815
f 826 814 820
f 826 821 814
f 826 815 821
f 827 823 819
f 827 817 823
f 827 824 817
f 827 819 824
f 828 823 816
f 828 816 822
f 828 822 823
f 829 824 819
f 829 819 825
f 829 825 818
f 829 818 824
f 830 822 815
f 830 815 825
f 830 825 819
f 830 819 822
o link4031
usemtl Material031
v 0.100315250 0.158114889 -0.045436606
v 0.122081794 0.136348345 -0.081714179
v 0.114826279 0.158114889 -0.168780355
v 0.071293191 0.135499999 -0.226824472
v 0.071293191 0.136348345 -0.045436606
v 0.122081794 0.136348345 -0.176035869
v 0.071293191 0.165370403 -0.197802413
v 0.122081794 0.158114889 -0.110736237
v 0.100327178 0.135513716 -0.045449902
v 0.100315250 0.158114889 -0.205057928
v 0.071293191 0.165370403 -0.067203149
v 0.071178032 0.156393973 -0.045577151
v 0.114826279 0.150859374 -0.067203149
v 0.100315250 0.165370403 -0.147013811
v 0.122081794 0.150859374 -0.176035869
v 0.114826279 0.135499999 -0.059947635
v 0.078548706 0.135499999 -0.226824472
v 0.071293191 0.158114889 -0.212313443
v 0.107570764 0.158114889 -0.059947635
v 0.122081794 0.150859374 -0.088969693
v 0.122081794 0.158114889 -0.147013811
v 0.078548706 0.165370403 -0.197802413
v 0.093059735 0.165370403 -0.168780355
v 0.114826279 0.143603859 -0.059947635
v 0.097589402 0.135377307 -0.202674291
v 0.071417801 0.141499996 -0.225439996
v 0.100315250 0.165370403 -0.110736237
v 0.078548706 0.158114889 -0.212313443
v 0.122081794 0.143603859 -0.081714179
v 0.085804220 0.165370403 -0.074458664
v 0.078548706 0.165370403 -0.067203149
v 0.093059735 0.165370403 -0.088969693
f 838 832 836
f 839 831 835
f 839 835 834
f 842 834 835
f 842 841 837
f 842 835 831
f 842 831 841
f 844 837 841
f 845 838 836
f 845 840 833
f 845 836 840
f 846 836 832
f 846 831 839
f 847 840 836
f 848 842 837
f 848 834 842
f 849 831 843
f 850 832 838
f 850 849 843
f 850 838 849
f 851 844 838
f 851 833 844
f 851 845 833
f 851 838 845
f 852 837 844
f 852 848 837
f 853 844 833
f 853 833 840
f 853 852 844
f 853 840 852
f 854 846 832
f 854 843 831
f 854 831 846
f 854 850 843
f 855 846 839
f 855 839 834
f 855 834 847
f 855 847 836
f 855 836 846
f 856 847 834
f 856 834 848
f 856 840 847
f 857 849 838
f 857 838 844
f 857 844 841
f 858 852 840
f 858 848 852
f 858 856 848
f 858 840 856
f 859 854 832
f 859 832 850
f 859 850 854
f 860 857 841
f 860 831 849
f 861 860 841
f 861 841 831
f 861 831 860
f 862 860 849
f 862 849 857
f 862 857 860
o link4032
usemtl Material032
v -0.102839161 0.136348345 0.092418173
v -0.094972119 0.089233696 0.091839897
v -0.091003633 0.142765093 -0.039466355
v -0.131861219 0.121837315 -0.045436606
v -0.131861219 0.085559742 0.048885085
v -0.095474897 0.087846795 -0.045387990
v -0.124605705 0.143603859 0.041629570
v -0.093390248 0.134600385 0.090216628
v -0.117350190 0.085559742 0.077907144
v -0.092833461 0.143097547 -0.046207679
v -0.131861219 0.085559742 -0.045436606
v -0.110094675 0.143603859 0.041629570
v -0.124605705 0.121837315 0.063396114
v -0.139116734 0.100070771 0.012607512
v -0.131861219 0.136348345 -0.038181091
v -0.102839161 0.143603859 -0.045436606
v -0.131861219 0.136348345 0.041629570
v -0.117350190 0.121837315 0.077907144
v -0.139116734 0.085559742 -0.016414547
v -0.119093299 0.141000003 -0.034329802
v -0.121952761 0.134607929 -0.044516136
v -0.110094675 0.136348345 0.085162658
v -0.131861219 0.100070771 0.048885085
v -0.139116734 0.085559742 0.012607512
v -0.139116734 0.092815257 -0.016414547
v -0.139116734 0.100070771 -0.009159032
f 868 865 864
f 870 863 864
f 870 864 865
f 871 864 863
f 871 868 864
f 872 865 868
f 873 872 868
f 873 866 872
f 873 871 867
f 873 868 871
f 874 869 863
f 874 865 872
f 874 870 865
f 874 863 870
f 875 867 871
f 878 874 872
f 878 869 874
f 878 872 866
f 879 877 876
f 879 869 877
f 880 875 871
f 881 873 867
f 881 866 873
f 882 878 877
f 882 877 869
f 882 869 878
f 883 878 866
f 883 866 877
f 883 877 878
f 884 863 869
f 884 869 879
f 884 879 875
f 884 875 880
f 884 880 871
f 884 871 863
f 885 879 876
f 885 876 867
f 885 867 875
f 885 875 879
f 886 881 867
f 886 867 876
f 886 876 881
f 887 877 866
f 887 866 881
f 887 881 876
f 888 887 876
f 888 876 877
f 888 877 887
o link4033
usemtl Material033
v 0.068507319 0.119832466 -0.277084575
v 0.070537477 0.085520087 -0.277474720
v 0.063628932 0.085251869 -0.328398081
v -0.081072617 0.136348345 -0.328401677
v -0.087780079 0.085530255 -0.277590508
v 0.042271132 0.135499999 -0.328401677
v 0.071293191 0.121837315 -0.313890648
v -0.066561587 0.143603859 -0.277613074
v 0.067649920 0.081085242 -0.321491554
v -0.083664964 0.084816631 -0.327200560
v -0.043203992 0.141019259 -0.329728486
v 0.042271132 0.135499999 -0.277613074
v 0.060640440 0.119363258 -0.327987079
v -0.085016598 0.135001014 -0.277472632
v 0.071293191 0.100070771 -0.321146162
v -0.088328131 0.114581801 -0.328401677
v -0.037539529 0.143603859 -0.321146162
v -0.088328131 0.136348345 -0.313890648
v -0.059306073 0.143603859 -0.328401677
v -0.078393815 0.141000003 -0.290022201
v -0.076794200 0.141078204 -0.282657504
f 893 890 889
f 895 889 890
f 897 890 893
f 898 897 893
f 898 891 897
f 899 894 891
f 900 895 894
f 900 889 895
f 900 896 889
f 901 891 894
f 901 894 895
f 902 893 889
f 902 889 896
f 903 895 890
f 903 890 897
f 903 897 891
f 903 901 895
f 903 891 901
f 904 898 893
f 904 892 899
f 904 899 891
f 904 891 898
f 905 900 894
f 905 896 900
f 906 892 904
f 906 904 893
f 906 893 902
f 907 905 894
f 907 894 899
f 907 899 892
f 907 896 905
f 907 892 906
f 908 906 902
f 908 907 906
f 908 896 907
f 909 908 902
f 909 902 896
f 909 896 908
o link4034
usemtl Material034
v 0.013249074 -0.081317095 0.106929202
v 0.100315250 -0.146616727 0.012607512
v 0.078548706 -0.074061580 -0.045436606
v -0.095583646 -0.081317095 -0.045436606
v -0.081072617 -0.161127756 0.041629570
v 0.078548706 -0.161127756 -0.045436606
v -0.073817102 -0.074061580 0.056140600
v 0.093059735 -0.081317095 0.048885085
v 0.027760103 -0.161127756 0.085162658
v 0.100315250 -0.095828124 -0.030925576
v -0.070541600 -0.154789159 -0.045463690
v 0.049526647 -0.074061580 0.077907144
v -0.073817102 -0.074061580 -0.045436606
v -0.059306073 -0.139361212 0.085162658
v -0.102839161 -0.081317095 0.019863026
v 0.056782162 -0.139361212 0.085162658
v 0.085804220 -0.161127756 0.027118541
v 0.093059735 -0.081317095 -0.045436606
v 0.100315250 -0.139361212 -0.023670062
v 0.100315250 -0.081317095 0.027118541
v -0.088328131 -0.161127756 -0.009159032
v -0.030284014 -0.074061580 0.085162658
v 0.071293191 -0.081317095 0.077907144
v -0.023028500 -0.146616727 0.099673688
v -0.088328131 -0.081317095 0.056140600
v -0.088328131 -0.074061580 -0.023670062
v 0.085804220 -0.146616727 0.056140600
v 0.085804220 -0.161127756 -0.009159032
v 0.093059735 -0.139361212 -0.045436606
v 0.100315250 -0.081317095 -0.030925576
v 0.078548706 -0.074061580 0.048885085
v -0.095583646 -0.139361212 -0.038181091
v -0.095583646 -0.146616727 0.034374056
v 0.035015618 -0.074061580 0.085162658
v -0.015772985 -0.081317095 0.106929202
v 0.049526647 -0.081317095 0.092418173
v 0.020504588 -0.146616727 0.099673688
v -0.030284014 -0.161127756 0.085162658
v -0.095583646 -0.081317095 0.041629570
v -0.081072617 -0.074061580 -0.038181091
v -0.102839161 -0.081317095 -0.016414547
v -0.088328131 -0.074061580 0.019863026
v 0.071293191 -0.110339154 0.077907144
v 0.093059735 -0.146616727 0.041629570
v 0.071293191 -0.146616727 0.070651629
v 0.071293191 -0.161127756 0.056140600
v 0.100315250 -0.146616727 -0.009159032
v 0.085804220 -0.074061580 -0.030925576
v 0.078548706 -0.081317095 0.070651629
v -0.088328131 -0.146616727 -0.045436606
v -0.088328131 -0.161127756 0.012607512
v -0.095583646 -0.146616727 -0.009159032
v -0.081072617 -0.146616727 0.063396114
v 0.013249074 -0.110339154 0.106929202
v -0.015772985 -0.110339154 0.106929202
v -0.059306073 -0.081317095 0.085162658
v 0.042271132 -0.146616727 0.092418173
v -0.037539529 -0.146616727 0.092418173
v -0.095583646 -0.132105698 0.041629570
v -0.095583646 -0.095828124 -0.045436606
v -0.102839161 -0.103083639 0.005351997
v -0.081072617 -0.074061580 0.041629570
v 0.049526647 -0.110339154 0.092418173
v 0.100315250 -0.110339154 0.027118541
f 918 914 915
f 921 912 916
f 922 916 912
f 922 920 913
f 922 912 920
f 926 918 915
f 927 920 912
f 928 919 911
f 929 911 919
f 930 920 915
f 930 915 914
f 931 921 916
f 935 916 922
f 937 926 915
f 937 911 926
f 938 927 919
f 938 919 928
f 938 928 915
f 938 915 920
f 938 920 927
f 939 929 919
f 939 919 927
f 939 927 912
f 940 917 929
f 940 912 921
f 943 931 910
f 943 921 931
f 944 910 931
f 945 943 910
f 945 932 921
f 945 921 943
f 946 933 918
f 947 914 918
f 947 918 933
f 949 935 922
f 949 922 913
f 949 913 935
f 950 935 913
f 950 924 935
f 951 935 924
f 951 916 935
f 951 924 948
f 952 932 945
f 953 917 936
f 953 936 926
f 953 926 911
f 954 952 925
f 954 936 952
f 955 918 926
f 955 926 936
f 955 936 954
f 956 928 911
f 956 911 937
f 956 937 915
f 956 915 928
f 957 939 912
f 957 929 939
f 957 940 929
f 957 912 940
f 958 917 940
f 958 932 952
f 958 952 936
f 958 936 917
f 958 940 921
f 958 921 932
f 959 920 930
f 959 930 941
f 960 942 930
f 960 930 914
f 960 914 942
f 961 941 930
f 961 930 942
f 962 942 914
f 962 947 923
f 962 914 947
f 963 910 944
f 963 933 946
f 963 945 910
f 964 944 923
f 964 923 933
f 964 963 944
f 964 933 963
f 965 923 944
f 965 962 923
f 965 934 962
f 965 916 934
f 965 944 931
f 965 931 916
f 966 946 918
f 966 963 946
f 966 954 925
f 966 955 954
f 966 918 955
f 967 947 933
f 967 933 923
f 967 923 947
f 968 948 924
f 968 924 942
f 968 942 962
f 968 962 934
f 968 934 948
f 969 950 913
f 969 941 950
f 969 959 941
f 969 913 920
f 969 920 959
f 970 942 924
f 970 924 950
f 970 961 942
f 970 950 941
f 970 941 961
f 971 951 948
f 971 916 951
f 971 948 934
f 971 934 916
f 972 952 945
f 972 925 952
f 972 966 925
f 972 945 963
f 972 963 966
f 973 929 917
f 973 917 953
f 973 953 911
f 973 911 929
o link4035
usemtl Material035
v 0.107570764 0.100070771 -0.045436606
v 0.107435743 0.088416072 -0.045374647
v 0.098884814 0.084179011 -0.092177205
v -0.081072617 0.100070771 -0.088969693
v -0.095583646 0.100070771 -0.045436606
v 0.107570764 0.100070771 -0.088969693
v -0.030284014 0.056537683 -0.081714179
v 0.107267156 0.087163775 -0.090126221
v 0.064037676 0.063793198 -0.074458664
v -0.088328131 0.078304227 -0.045436606
v -0.028484243 0.059958684 -0.092346207
v 0.100315250 0.078304227 -0.081714179
v -0.095474897 0.087846795 -0.045387990
v 0.085804220 0.078304227 -0.045436606
v -0.080446258 0.080736468 -0.090644238
v 0.026419979 0.059228370 -0.092089343
v 0.027760103 0.056537683 -0.081714179
v -0.095465484 0.088213037 -0.059874343
v -0.062015343 0.067513456 -0.090704467
v 0.061469495 0.067048596 -0.090490061
v -0.088328131 0.078304227 -0.052692120
v -0.095583646 0.100070771 -0.059947635
v -0.066561587 0.063793198 -0.074458664
f 978 975 974
f 978 974 977
f 979 976 977
f 979 977 974
f 979 974 975
f 981 979 975
f 981 976 979
f 985 981 975
f 985 976 981
f 986 983 975
f 986 975 978
f 987 975 983
f 987 985 975
f 987 982 985
f 987 983 980
f 988 977 976
f 988 976 984
f 989 980 984
f 989 984 976
f 990 987 980
f 990 982 987
f 990 980 989
f 992 988 984
f 992 984 980
f 993 985 982
f 993 990 989
f 993 982 990
f 993 989 976
f 993 976 985
f 994 991 988
f 994 983 986
f 994 986 991
f 995 978 977
f 995 977 988
f 995 988 991
f 995 991 986
f 995 986 978
f 996 992 980
f 996 980 983
f 996 983 994
f 996 994 988
f 996 988 992
o link4036
usemtl Material036
v 0.048497522 0.154971622 -0.238954002
v 0.077970322 0.085530358 -0.241208927
v 0.068298122 0.128950447 -0.277042432
v -0.085016598 0.135001014 -0.277472632
v -0.089290007 0.085226783 -0.241099234
v 0.020504588 0.158114889 -0.263102045
v 0.075713338 0.128887430 -0.240747025
v -0.050745580 0.154818291 -0.238336853
v 0.078548706 0.085559742 -0.277613074
v 0.049526647 0.158114889 -0.248591016
v 0.042271132 0.135499999 -0.277613074
v -0.086696335 0.134645473 -0.241276502
v -0.052050558 0.158114889 -0.248591016
v 0.078548706 0.129092830 -0.263102045
v -0.087780079 0.085530255 -0.277590508
v -0.015772985 0.158114889 -0.263102045
v 0.078548706 0.100070771 -0.277613074
v -0.095583646 0.107326286 -0.241335501
v 0.078548706 0.121837315 -0.270357560
v -0.095583646 0.085559742 -0.270357560
v -0.095583646 0.107326286 -0.248591016
v -0.095583646 0.092815257 -0.270357560
f 1003 997 998
f 1004 1001 998
f 1004 998 997
f 1005 998 1001
f 1006 999 1002
f 1006 997 1003
f 1006 1004 997
f 1007 1002 999
f 1009 1008 1004
f 1009 1000 1008
f 1009 1006 1002
f 1009 1004 1006
f 1010 1003 998
f 1010 998 1005
f 1010 1006 1003
f 1010 999 1006
f 1011 1005 1001
f 1011 1007 1005
f 1011 1000 1007
f 1012 1007 1000
f 1012 1002 1007
f 1012 1009 1002
f 1012 1000 1009
f 1013 1007 999
f 1013 1005 1007
f 1013 1010 1005
f 1014 1001 1004
f 1014 1004 1008
f 1015 1013 999
f 1015 999 1010
f 1015 1010 1013
f 1016 1011 1001
f 1016 1001 1014
f 1017 1014 1008
f 1017 1008 1000
f 1017 1016 1014
f 1018 1000 1011
f 1018 1011 1016
f 1018 1017 1000
f 1018 1016 1017
o link4037
usemtl Material037
v 0.078532547 -0.081316132 -0.139757350
v 0.078548706 -0.146616727 -0.161524840
v 0.076718095 -0.065260495 -0.241481145
v -0.044795043 -0.066806066 -0.241335501
v -0.044795668 -0.155455816 -0.139753470
v 0.064037676 -0.161127756 -0.241335501
v -0.044795043 -0.066806066 -0.139758296
v 0.078548706 -0.124850183 -0.241335501
v 0.049526647 -0.161127756 -0.139758296
v -0.044792948 -0.155448860 -0.241335396
v 0.049526647 -0.066806066 -0.139758296
v 0.075386307 -0.138233095 -0.139554867
v 0.078548706 -0.146616727 -0.205057928
v 0.064037676 -0.161127756 -0.154269325
v 0.076463328 -0.066696608 -0.183172646
v 0.071293191 -0.153872241 -0.234079987
v 0.068894304 -0.144500002 -0.139947709
v 0.078548706 -0.139361212 -0.219568957
f 1025 1021 1022
f 1025 1022 1023
f 1026 1019 1020
f 1026 1021 1019
f 1026 1024 1021
f 1028 1022 1021
f 1028 1021 1024
f 1028 1023 1022
f 1028 1027 1023
f 1028 1024 1027
f 1029 1021 1025
f 1030 1025 1023
f 1030 1029 1025
f 1030 1019 1029
f 1030 1023 1027
f 1030 1020 1019
f 1031 1026 1020
f 1031 1020 1024
f 1032 1027 1024
f 1032 1024 1020
f 1032 1020 1030
f 1033 1029 1019
f 1033 1019 1021
f 1033 1021 1029
f 1034 1031 1024
f 1034 1024 1026
f 1035 1032 1030
f 1035 1030 1027
f 1035 1027 1032
f 1036 1034 1026
f 1036 1026 1031
f 1036 1031 1034
o link4038
usemtl Material038
v 0.096513366 -0.057184896 -0.430252990
v 0.100315250 -0.066806066 -0.429978882
v 0.099636782 -0.059128396 -0.473775630
v -0.059306073 -0.059550551 -0.473511970
v -0.052050558 -0.110339154 -0.429978882
v 0.060389735 -0.121757529 -0.426845904
v -0.059306073 -0.059550551 -0.429978882
v 0.100315250 -0.074061580 -0.473511970
v -0.059306073 -0.110339154 -0.473511970
v 0.064037676 -0.124850183 -0.437234397
v -0.056001829 -0.097139367 -0.430325382
v 0.042271132 -0.117594668 -0.473511970
v 0.100315250 -0.074061580 -0.466256455
v -0.023028500 -0.117594668 -0.429978882
v -0.059306073 -0.110339154 -0.466256455
v -0.037539529 -0.117594668 -0.473511970
v 0.071293191 -0.103083639 -0.473511970
v 0.035015618 -0.124850183 -0.437234397
v -0.030284014 -0.117594668 -0.437234397
v 0.036157257 -0.122337462 -0.428122214
v -0.037539529 -0.117594668 -0.466256455
f 1037 1038 1039
f 1037 1039 1040
f 1042 1038 1037
f 1043 1037 1040
f 1043 1042 1037
f 1043 1041 1042
f 1044 1039 1038
f 1045 1043 1040
f 1045 1040 1039
f 1046 1038 1042
f 1047 1041 1043
f 1049 1046 1044
f 1049 1044 1038
f 1049 1038 1046
f 1050 1042 1041
f 1051 1041 1047
f 1051 1047 1043
f 1051 1043 1045
f 1052 1045 1039
f 1052 1039 1048
f 1052 1048 1046
f 1052 1051 1045
f 1053 1048 1039
f 1053 1039 1044
f 1053 1044 1046
f 1053 1046 1048
f 1054 1052 1046
f 1055 1050 1041
f 1055 1054 1050
f 1056 1054 1046
f 1056 1046 1042
f 1056 1042 1050
f 1056 1050 1054
f 1057 1055 1041
f 1057 1041 1051
f 1057 1051 1052
f 1057 1052 1054
f 1057 1054 1055
o link4039
usemtl Material039
v 0.073984921 0.122395299 0.103916582
v 0.071191146 0.088713641 0.099542539
v 0.071293191 0.121837315 0.048885085
v -0.095583646 0.121837315 0.048885085
v -0.094972119 0.089233696 0.091839897
v 0.071293191 0.078304227 0.070651629
v -0.023028500 0.078304227 0.099673688
v -0.093444904 0.120053789 0.090229855
v -0.079135371 0.084768348 0.047564186
v 0.020504588 0.078304227 0.099673688
v -0.052050558 0.121837315 0.099673688
v -0.095472617 0.087927730 0.048829196
v 0.070132160 0.082178307 0.048093443
v -0.081072617 0.078304227 0.063396114
v 0.056782162 0.078304227 0.085162658
v -0.051985327 0.088186790 0.099552375
v -0.059306073 0.078304227 0.085162658
v 0.042271132 0.078304227 0.092418173
v -0.044795043 0.078304227 0.092418173
f 1058 1060 1061
f 1063 1058 1059
f 1063 1060 1058
f 1065 1061 1062
f 1066 1061 1060
f 1067 1059 1058
f 1067 1058 1064
f 1067 1064 1063
f 1068 1058 1061
f 1068 1061 1065
f 1068 1065 1062
f 1069 1062 1061
f 1069 1061 1066
f 1070 1066 1060
f 1070 1060 1063
f 1071 1069 1066
f 1071 1062 1069
f 1071 1063 1064
f 1071 1070 1063
f 1071 1066 1070
f 1072 1067 1063
f 1072 1063 1059
f 1073 1064 1058
f 1073 1058 1068
f 1073 1068 1062
f 1073 1062 1064
f 1074 1071 1064
f 1074 1062 1071
f 1075 1072 1059
f 1075 1059 1067
f 1075 1067 1072
f 1076 1074 1064
f 1076 1064 1062
f 1076 1062 1074
o link4040
usemtl Material040
v 0.075292726 0.135012728 -0.240635638
v 0.075713338 0.128887430 -0.240747025
v 0.071293191 0.136348345 -0.306635133
v 0.042271132 0.135499999 -0.328401677
v 0.042270006 0.135519649 -0.255846477
v 0.060640440 0.119363258 -0.327987079
v 0.078548706 0.136348345 -0.263102045
v 0.064037676 0.135499999 -0.241335501
v 0.049526647 0.143603859 -0.292124104
v 0.059901155 0.134885192 -0.327882945
v 0.042271132 0.121837315 -0.277613074
v 0.071293191 0.121837315 -0.306635133
v 0.064037676 0.143603859 -0.292124104
v 0.049526647 0.143603859 -0.270357560
v 0.042271132 0.121837315 -0.328401677
v 0.078548706 0.129092830 -0.263102045
v 0.068507319 0.119832466 -0.277084575
v 0.064037676 0.143603859 -0.270357560
f 1083 1077 1078
f 1084 1081 1078
f 1084 1078 1077
f 1085 1080 1081
f 1086 1082 1080
f 1086 1079 1082
f 1087 1078 1081
f 1088 1082 1079
f 1088 1079 1083
f 1089 1083 1079
f 1089 1079 1086
f 1089 1086 1080
f 1089 1080 1085
f 1090 1085 1081
f 1090 1081 1084
f 1090 1089 1085
f 1091 1080 1082
f 1091 1082 1087
f 1091 1087 1081
f 1091 1081 1080
f 1092 1088 1083
f 1092 1083 1078
f 1093 1087 1082
f 1093 1082 1088
f 1093 1078 1087
f 1093 1092 1078
f 1093 1088 1092
f 1094 1077 1083
f 1094 1083 1089
f 1094 1089 1090
f 1094 1090 1084
f 1094 1084 1077
o link4041
usemtl Material041
v -0.057230159 0.096432236 -0.430176817
v -0.056005211 -0.097521767 -0.437497211
v -0.059044525 0.099656766 -0.473671313
v -0.073817102 0.100070771 -0.473511970
v -0.117350190 -0.030528492 -0.429978882
v -0.063188851 -0.097744917 -0.475548380
v -0.066561587 0.100070771 -0.429978882
v -0.059034137 -0.095369920 -0.430000534
v -0.057990117 -0.100606438 -0.474437579
v -0.110944738 -0.035581180 -0.475746963
v -0.095583646 0.092815257 -0.437234397
v -0.091999547 -0.091651856 -0.427665615
v -0.073817102 0.100070771 -0.459000941
v -0.091838696 0.091418655 -0.428174876
v -0.117350190 0.042026654 -0.473511970
v -0.095583646 -0.095828124 -0.437234397
v -0.117350190 0.027515625 -0.429978882
v -0.117350190 -0.037784007 -0.459000941
v -0.102839161 0.071048713 -0.473511970
v -0.081072617 -0.095828124 -0.473511970
v -0.066561587 -0.103083639 -0.437234397
v -0.117350190 0.042026654 -0.466256455
v -0.095583646 -0.081317095 -0.473511970
v -0.110094675 -0.059550551 -0.473511970
v -0.110094675 -0.059550551 -0.466256455
f 1095 1096 1097
f 1101 1095 1097
f 1101 1097 1098
f 1102 1096 1095
f 1103 1100 1097
f 1103 1097 1096
f 1104 1098 1097
f 1104 1097 1100
f 1106 1102 1095
f 1107 1105 1101
f 1107 1101 1098
f 1107 1098 1105
f 1108 1101 1105
f 1108 1106 1095
f 1108 1095 1101
f 1110 1106 1099
f 1111 1108 1105
f 1111 1099 1106
f 1111 1106 1108
f 1111 1109 1099
f 1112 1109 1104
f 1112 1099 1109
f 1112 1110 1099
f 1113 1109 1105
f 1113 1105 1098
f 1113 1098 1104
f 1113 1104 1109
f 1114 1100 1103
f 1115 1103 1096
f 1115 1096 1102
f 1115 1102 1106
f 1115 1106 1110
f 1115 1114 1103
f 1115 1110 1114
f 1116 1111 1105
f 1116 1105 1109
f 1116 1109 1111
f 1117 1104 1100
f 1117 1100 1114
f 1117 1114 1110
f 1118 1112 1104
f 1118 1104 1117
f 1118 1117 1110
f 1119 1118 1110
f 1119 1110 1112
f 1119 1112 1118
o link4042
usemtl Material042
v -0.008517470 -0.110339154 -0.328401677
v -0.008512020 -0.155469763 -0.328410486
v -0.004869218 -0.114255077 -0.403581130
v -0.015681166 -0.109764847 -0.408245742
v -0.081072617 -0.139361212 -0.328401677
v -0.023028500 -0.161127756 -0.371934765
v -0.008530413 -0.110560079 -0.408187062
v -0.078527273 -0.109899601 -0.327824092
v -0.008517470 -0.153872241 -0.386445794
v -0.044795043 -0.146616727 -0.371934765
v -0.044795043 -0.161127756 -0.328401677
v -0.073817102 -0.110339154 -0.357423736
v -0.006934056 -0.155180804 -0.370025272
v -0.008517470 -0.146616727 -0.393701309
v -0.044795043 -0.161127756 -0.350168221
v -0.081072617 -0.110339154 -0.342912706
v -0.081072617 -0.139361212 -0.335657192
v -0.044795043 -0.117594668 -0.386445794
v -0.015772985 -0.117594668 -0.408212338
v -0.015772985 -0.146616727 -0.393701309
v -0.073817102 -0.117594668 -0.357423736
v -0.052050558 -0.146616727 -0.364679250
v -0.044795043 -0.110339154 -0.386445794
v -0.023028500 -0.139361212 -0.393701309
v -0.015772985 -0.153872241 -0.386445794
v -0.081072617 -0.117594668 -0.342912706
v -0.066561587 -0.132105698 -0.357423736
f 1120 1121 1122
f 1126 1120 1122
f 1126 1123 1120
f 1127 1121 1120
f 1127 1120 1123
f 1130 1125 1121
f 1130 1127 1124
f 1130 1121 1127
f 1131 1127 1123
f 1132 1128 1122
f 1132 1122 1121
f 1132 1121 1125
f 1132 1125 1128
f 1133 1126 1122
f 1133 1122 1128
f 1134 1130 1124
f 1134 1125 1130
f 1135 1124 1127
f 1135 1127 1131
f 1136 1124 1135
f 1136 1134 1124
f 1138 1123 1126
f 1138 1126 1133
f 1139 1133 1128
f 1139 1138 1133
f 1140 1135 1131
f 1140 1131 1137
f 1141 1134 1136
f 1141 1129 1125
f 1141 1125 1134
f 1141 1140 1137
f 1141 1137 1129
f 1142 1137 1131
f 1142 1131 1123
f 1142 1138 1137
f 1142 1123 1138
f 1143 1129 1137
f 1143 1137 1138
f 1143 1139 1129
f 1143 1138 1139
f 1144 1139 1128
f 1144 1128 1125
f 1144 1125 1129
f 1144 1129 1139
f 1145 1140 1136
f 1145 1136 1135
f 1145 1135 1140
f 1146 1141 1136
f 1146 1136 1140
f 1146 1140 1141
o link4043
usemtl Material043
v 0.107570764 -0.066806066 -0.473511970
v 0.122081794 -0.066806066 -0.509789543
v 0.101795478 -0.056532948 -0.475610081
v -0.059306073 -0.059550551 -0.524300573
v -0.015772985 -0.139361212 -0.524300573
v 0.119482896 -0.058065810 -0.525286071
v -0.059306073 -0.059550551 -0.473511970
v 0.122081794 -0.059550551 -0.509789543
v 0.078548706 -0.117594668 -0.517045058
v -0.042906603 -0.126011702 -0.526381699
v -0.015772985 -0.124850183 -0.473511970
v 0.107570764 -0.088572610 -0.509789543
v 0.078548706 -0.117594668 -0.524300573
v 0.116663463 -0.063710594 -0.526355196
v -0.059306073 -0.124850183 -0.509789543
v 0.064037676 -0.110339154 -0.473511970
v 0.107570764 -0.074061580 -0.480767485
v 0.049526647 -0.132105698 -0.524300573
v 0.114826279 -0.081317095 -0.524300573
v -0.057083432 -0.120065871 -0.526039379
v -0.059306073 -0.110339154 -0.473511970
v -0.030284014 -0.132105698 -0.502534029
v 0.085804220 -0.110339154 -0.509789543
v 0.012492404 -0.132675104 -0.526520759
v 0.056782162 -0.124850183 -0.502534029
v 0.013249074 -0.139361212 -0.517045058
v 0.114826279 -0.081317095 -0.517045058
v -0.044795043 -0.132105698 -0.517045058
v -0.015772985 -0.139361212 -0.517045058
v -0.044795043 -0.117594668 -0.473511970
v 0.071293191 -0.117594668 -0.502534029
v 0.078548706 -0.103083639 -0.480767485
v 0.049526647 -0.132105698 -0.517045058
v 0.013249074 -0.124850183 -0.473511970
v -0.059306073 -0.117594668 -0.488022999
v -0.030284014 -0.124850183 -0.480767485
v 0.042271132 -0.124850183 -0.488022999
v 0.042271132 -0.117594668 -0.473511970
v 0.042271132 -0.132105698 -0.509789543
f 1152 1150 1149
f 1153 1147 1149
f 1153 1149 1150
f 1154 1147 1148
f 1154 1149 1147
f 1154 1152 1149
f 1154 1148 1152
f 1157 1147 1153
f 1160 1156 1150
f 1160 1150 1152
f 1161 1153 1150
f 1162 1147 1157
f 1163 1158 1148
f 1163 1148 1147
f 1164 1159 1155
f 1165 1159 1160
f 1165 1160 1152
f 1165 1152 1148
f 1166 1161 1150
f 1166 1150 1156
f 1167 1157 1153
f 1167 1153 1161
f 1169 1158 1163
f 1169 1155 1159
f 1169 1159 1165
f 1170 1164 1151
f 1170 1151 1156
f 1170 1156 1160
f 1170 1160 1159
f 1170 1159 1164
f 1172 1151 1164
f 1173 1165 1148
f 1173 1148 1158
f 1173 1169 1165
f 1173 1158 1169
f 1174 1166 1156
f 1174 1156 1151
f 1174 1161 1166
f 1175 1172 1157
f 1175 1151 1172
f 1175 1174 1151
f 1175 1168 1174
f 1176 1157 1167
f 1177 1169 1162
f 1177 1155 1169
f 1177 1171 1155
f 1177 1162 1171
f 1178 1169 1163
f 1178 1162 1169
f 1178 1163 1147
f 1178 1147 1162
f 1179 1164 1155
f 1179 1155 1171
f 1179 1172 1164
f 1180 1162 1157
f 1180 1157 1172
f 1181 1176 1167
f 1181 1167 1161
f 1182 1157 1176
f 1182 1175 1157
f 1182 1168 1175
f 1182 1174 1168
f 1182 1161 1174
f 1182 1181 1161
f 1182 1176 1181
f 1183 1171 1162
f 1183 1179 1171
f 1183 1180 1172
f 1184 1183 1162
f 1184 1162 1180
f 1184 1180 1183
f 1185 1183 1172
f 1185 1172 1179
f 1185 1179 1183
o link4044
usemtl Material044
v 0.020504588 0.013004596 -0.103480723
v 0.070924548 -0.023428238 -0.140321847
v 0.069785549 0.013527850 -0.142067465
v -0.071321684 -0.009172957 -0.143640267
v -0.023028500 -0.023272978 -0.103480723
v -0.063381350 0.014054676 -0.138011156
v 0.071293191 0.013004596 -0.132502781
v 0.064037676 -0.023272978 -0.125247267
v -0.072769728 -0.023766238 -0.141356592
v -0.066433141 0.013045143 -0.139967732
v -0.015772985 0.013004596 -0.103480723
v 0.035015618 0.013004596 -0.110736237
v 0.018078101 -0.025269581 -0.109116972
v -0.073817102 -0.008761948 -0.132502781
v 0.064037676 -0.016017463 -0.125247267
v 0.068050741 -0.025255080 -0.137778762
v -0.052050558 -0.023272978 -0.117991752
v -0.059306073 0.013004596 -0.125247267
v -0.073817102 -0.023272978 -0.132502781
v -0.052050558 -0.016017463 -0.117991752
v -0.023028500 -0.016017463 -0.103480723
f 1188 1187 1189
f 1191 1186 1188
f 1192 1187 1188
f 1193 1187 1192
f 1194 1189 1187
f 1195 1191 1188
f 1195 1188 1189
f 1196 1190 1186
f 1196 1186 1191
f 1197 1192 1188
f 1197 1188 1186
f 1198 1193 1186
f 1198 1186 1190
f 1199 1195 1189
f 1199 1189 1194
f 1200 1193 1192
f 1200 1192 1197
f 1200 1197 1186
f 1200 1186 1193
f 1201 1187 1193
f 1201 1193 1198
f 1201 1198 1194
f 1201 1194 1187
f 1202 1198 1190
f 1203 1196 1191
f 1203 1191 1195
f 1203 1195 1199
f 1204 1202 1199
f 1204 1199 1194
f 1204 1194 1198
f 1204 1198 1202
f 1205 1203 1199
f 1205 1199 1202
f 1205 1202 1190
f 1206 1205 1190
f 1206 1190 1196
f 1206 1196 1203
f 1206 1203 1205
o link4045
usemtl Material045
v -0.044795043 -0.081000000 -0.045436606
v -0.044795043 -0.110339154 -0.045436606
v -0.044795043 -0.110339154 -0.241335501
v -0.087822482 -0.066762575 -0.241313005
v -0.095583646 -0.081317095 -0.052692120
v -0.044795043 -0.066806066 -0.241335501
v -0.086648229 -0.086622120 -0.044574336
v -0.066561587 -0.066806066 -0.067203149
v -0.084112982 -0.109976608 -0.241147967
v -0.073817102 -0.074061580 -0.045436606
v -0.095583646 -0.066806066 -0.103480723
v -0.044795043 -0.066806066 -0.067203149
v -0.086196497 -0.110147524 -0.045459832
v -0.095583646 -0.081317095 -0.212313443
v -0.095583646 -0.088572610 -0.052692120
v -0.095583646 -0.066806066 -0.234079987
v -0.095583646 -0.095828124 -0.139758296
v -0.095583646 -0.074061580 -0.234079987
v -0.095583646 -0.088572610 -0.183291384
v -0.095583646 -0.095828124 -0.059947635
f 1207 1208 1209
f 1212 1207 1209
f 1212 1209 1210
f 1213 1208 1207
f 1215 1210 1209
f 1216 1213 1207
f 1216 1211 1213
f 1217 1214 1210
f 1217 1216 1214
f 1217 1211 1216
f 1218 1212 1210
f 1218 1210 1214
f 1218 1207 1212
f 1218 1216 1207
f 1218 1214 1216
f 1219 1208 1213
f 1219 1215 1209
f 1219 1209 1208
f 1220 1211 1217
f 1221 1219 1213
f 1221 1213 1211
f 1221 1211 1220
f 1222 1220 1217
f 1222 1217 1210
f 1223 1221 1220
f 1223 1215 1219
f 1224 1222 1210
f 1224 1210 1215
f 1224 1215 1220
f 1224 1220 1222
f 1225 1223 1220
f 1225 1220 1215
f 1225 1215 1223
f 1226 1223 1219
f 1226 1219 1221
f 1226 1221 1223
o link4046
usemtl Material046
v -0.080893660 0.155746046 -0.045611814
v -0.081072617 0.100070771 -0.045436606
v -0.080446258 0.080736468 -0.090644238
v -0.113789686 0.145500004 -0.090052771
v -0.124294139 0.089233696 -0.045339870
v -0.080439983 0.158532800 -0.089324177
v -0.121952761 0.134607929 -0.044516136
v -0.095474897 0.087846795 -0.045387990
v -0.116887337 0.088468880 -0.090590106
v -0.080416795 0.158183072 -0.082087489
v -0.094373892 0.083297656 -0.091804969
v -0.110094675 0.158114889 -0.059947635
v -0.095583646 0.078304227 -0.081714179
v -0.080904178 0.087553084 -0.059812582
v -0.124605705 0.129092830 -0.067203149
v -0.090865717 0.154048539 -0.047199211
v -0.088328131 0.165370403 -0.081714179
v -0.124605705 0.085559742 -0.067203149
v -0.081072617 0.078304227 -0.081714179
v -0.117350190 0.150859374 -0.074458664
v -0.124605705 0.136348345 -0.059947635
v -0.088328131 0.165370403 -0.088969693
v -0.110094675 0.158114889 -0.081714179
f 1227 1228 1229
f 1233 1228 1227
f 1234 1233 1231
f 1234 1228 1233
f 1236 1227 1229
f 1236 1229 1232
f 1237 1232 1229
f 1237 1230 1232
f 1237 1235 1230
f 1239 1234 1231
f 1239 1237 1229
f 1239 1235 1237
f 1240 1229 1228
f 1240 1228 1234
f 1241 1230 1235
f 1242 1238 1233
f 1242 1233 1227
f 1242 1227 1238
f 1243 1238 1227
f 1243 1227 1236
f 1243 1236 1232
f 1244 1239 1231
f 1244 1235 1239
f 1244 1241 1235
f 1245 1239 1229
f 1245 1229 1240
f 1245 1240 1234
f 1245 1234 1239
f 1246 1230 1241
f 1247 1231 1233
f 1247 1246 1241
f 1247 1233 1238
f 1247 1238 1246
f 1247 1244 1231
f 1247 1241 1244
f 1248 1243 1232
f 1248 1232 1230
f 1248 1238 1243
f 1249 1248 1230
f 1249 1230 1246
f 1249 1246 1238
f 1249 1238 1248
o link4047
usemtl Material047
v 0.093059735 -0.030528492 -0.139758296
v 0.100315250 -0.030528492 -0.161524840
v 0.093350383 -0.021820418 -0.161959554
v 0.085804220 -0.030528492 -0.299379618
v 0.093059735 -0.059550551 -0.234079987
v 0.099651889 -0.030362238 -0.299420313
v 0.082793818 -0.032864150 -0.144308600
v 0.093059735 -0.045039522 -0.139758296
v 0.098106396 -0.022812310 -0.241473367
v 0.085645680 -0.059432862 -0.299391611
v 0.100315250 -0.052295036 -0.299379618
v 0.084507580 -0.023981137 -0.149000490
v 0.082599677 -0.050339452 -0.176264536
v 0.083707361 -0.043920841 -0.139903262
v 0.087706242 -0.056219435 -0.299765594
v 0.100315250 -0.045039522 -0.234079987
v 0.085804220 -0.023272978 -0.241335501
v 0.093059735 -0.052295036 -0.176035869
v 0.082362179 -0.057226376 -0.234333541
v 0.100315250 -0.052295036 -0.284868589
v 0.100315250 -0.037784007 -0.190546899
f 1250 1251 1252
f 1257 1251 1250
f 1258 1252 1251
f 1258 1251 1255
f 1258 1255 1253
f 1260 1255 1251
f 1260 1254 1259
f 1261 1256 1250
f 1261 1250 1252
f 1263 1257 1250
f 1263 1250 1256
f 1263 1256 1262
f 1264 1259 1253
f 1264 1253 1255
f 1264 1260 1259
f 1264 1255 1260
f 1265 1260 1251
f 1266 1253 1256
f 1266 1256 1261
f 1266 1258 1253
f 1266 1261 1252
f 1266 1252 1258
f 1267 1262 1254
f 1267 1263 1262
f 1267 1257 1263
f 1268 1259 1254
f 1268 1254 1262
f 1268 1253 1259
f 1268 1262 1256
f 1268 1256 1253
f 1269 1254 1260
f 1269 1260 1265
f 1269 1267 1254
f 1269 1265 1267
f 1270 1265 1251
f 1270 1251 1257
f 1270 1267 1265
f 1270 1257 1267
o link4048
usemtl Material048
v -0.044795043 -0.110339154 -0.139758296
v -0.044795668 -0.155455816 -0.139753470
v -0.042046739 -0.153119907 -0.327741830
v -0.078527273 -0.109899601 -0.327824092
v -0.086366110 -0.110168741 -0.139733514
v -0.044795043 -0.110339154 -0.328401677
v -0.084229517 -0.138305796 -0.139705277
v -0.081072617 -0.139361212 -0.328401677
v -0.052050558 -0.153872241 -0.328401677
v -0.088328131 -0.146616727 -0.255846530
v -0.044795043 -0.132105698 -0.328401677
v -0.066561587 -0.161127756 -0.321146162
v -0.088328131 -0.146616727 -0.183291384
v -0.088328131 -0.110339154 -0.313890648
v -0.043586832 -0.155113327 -0.319924972
v -0.073817102 -0.161127756 -0.306635133
v -0.081072617 -0.153872241 -0.139758296
v -0.088328131 -0.117594668 -0.313890648
v -0.081072617 -0.146616727 -0.321146162
v -0.070400914 -0.154900727 -0.139736844
v -0.081072617 -0.153872241 -0.284868589
f 1271 1272 1273
f 1275 1271 1274
f 1276 1271 1273
f 1276 1274 1271
f 1277 1272 1271
f 1277 1271 1275
f 1278 1274 1276
f 1279 1278 1276
f 1281 1279 1276
f 1281 1276 1273
f 1281 1273 1279
f 1282 1279 1273
f 1282 1278 1279
f 1283 1277 1275
f 1284 1275 1274
f 1284 1274 1278
f 1284 1283 1275
f 1284 1280 1283
f 1285 1282 1273
f 1285 1273 1272
f 1285 1272 1282
f 1286 1283 1280
f 1286 1282 1272
f 1287 1277 1283
f 1287 1283 1286
f 1288 1284 1278
f 1288 1280 1284
f 1289 1278 1282
f 1289 1282 1286
f 1289 1288 1278
f 1289 1280 1288
f 1290 1272 1277
f 1290 1277 1287
f 1290 1287 1286
f 1290 1286 1272
f 1291 1289 1286
f 1291 1286 1280
f 1291 1280 1289
o link4049
usemtl Material049
v 0.078548706 0.100070771 -0.473511970
v 0.081643165 0.081377626 -0.472072921
v 0.075133127 0.109599941 -0.526289369
v -0.049527406 0.123661613 -0.526274487
v -0.059306073 0.078304227 -0.473511970
v 0.035015618 0.136348345 -0.517045058
v 0.078548706 0.114581801 -0.509789543
v -0.030284014 0.121837315 -0.473511970
v 0.078548706 0.078304227 -0.524300573
v 0.035015618 0.136348345 -0.524300573
v 0.078548706 0.107326286 -0.488022999
v -0.052050558 0.114581801 -0.473511970
v 0.035015618 0.121837315 -0.473511970
v -0.030284014 0.136348345 -0.517045058
v -0.059306073 0.078304227 -0.524300573
v -0.029322518 0.129997158 -0.526415567
v 0.071293191 0.121837315 -0.524300573
v 0.056782162 0.121837315 -0.495278514
v 0.020504588 0.136348345 -0.509789543
v -0.044795043 0.129092830 -0.502534029
v -0.059306073 0.121837315 -0.502534029
v 0.056782162 0.129092830 -0.524300573
v 0.071293191 0.114581801 -0.495278514
v 0.020504588 0.129092830 -0.488022999
v -0.023028500 0.129092830 -0.488022999
v -0.058121860 0.119288237 -0.525227006
v -0.059306073 0.114581801 -0.480767485
v -0.052050558 0.129092830 -0.509789543
v 0.056782162 0.129092830 -0.517045058
v -0.015772985 0.136348345 -0.509789543
v 0.071293191 0.121837315 -0.517045058
f 1300 1293 1296
f 1300 1298 1293
f 1300 1294 1298
f 1302 1292 1293
f 1302 1293 1298
f 1303 1296 1293
f 1303 1293 1299
f 1304 1299 1293
f 1304 1293 1292
f 1304 1292 1302
f 1305 1297 1301
f 1306 1300 1296
f 1306 1295 1294
f 1306 1294 1300
f 1307 1301 1294
f 1307 1294 1295
f 1307 1305 1301
f 1307 1295 1305
f 1308 1298 1294
f 1310 1297 1305
f 1311 1303 1299
f 1312 1306 1296
f 1313 1308 1294
f 1313 1294 1301
f 1313 1301 1297
f 1314 1302 1298
f 1314 1309 1304
f 1314 1304 1302
f 1315 1299 1304
f 1315 1304 1297
f 1315 1297 1310
f 1316 1311 1299
f 1316 1305 1311
f 1316 1299 1315
f 1316 1315 1310
f 1317 1295 1306
f 1317 1306 1312
f 1318 1312 1296
f 1318 1296 1303
f 1319 1311 1305
f 1319 1317 1312
f 1319 1305 1295
f 1319 1295 1317
f 1319 1312 1318
f 1319 1318 1303
f 1319 1303 1311
f 1320 1313 1297
f 1320 1309 1314
f 1320 1308 1313
f 1320 1297 1304
f 1320 1304 1309
f 1321 1316 1310
f 1321 1310 1305
f 1321 1305 1316
f 1322 1320 1314
f 1322 1314 1298
f 1322 1298 1308
f 1322 1308 1320
o link4050
usemtl Material050
v 0.064037676 0.172625918 -0.088969693
v 0.071293191 0.143603859 -0.088969693
v 0.070744851 0.158681913 -0.182852618
v 0.005969486 0.175918150 -0.183002614
v 0.005993559 0.143603859 -0.088969693
v 0.064037676 0.179881433 -0.154269325
v 0.071293191 0.172625918 -0.110736237
v 0.005993559 0.175999999 -0.088969693
v 0.005993559 0.143603859 -0.183291384
v 0.042271132 0.179881433 -0.183291384
v 0.070730202 0.159448586 -0.089247366
v 0.071293191 0.143603859 -0.183291384
v 0.064037676 0.179881433 -0.103480723
v 0.071293191 0.172625918 -0.147013811
v 0.056782162 0.179881433 -0.168780355
v 0.056782162 0.179881433 -0.088969693
f 1327 1324 1323
f 1330 1327 1323
f 1330 1326 1327
f 1331 1324 1327
f 1331 1327 1326
f 1332 1326 1330
f 1332 1331 1326
f 1333 1329 1323
f 1333 1323 1324
f 1333 1324 1329
f 1334 1329 1324
f 1334 1324 1331
f 1334 1332 1325
f 1334 1331 1332
f 1335 1329 1328
f 1335 1323 1329
f 1335 1328 1332
f 1336 1325 1328
f 1336 1328 1329
f 1336 1334 1325
f 1336 1329 1334
f 1337 1332 1328
f 1337 1328 1325
f 1337 1325 1332
f 1338 1330 1323
f 1338 1323 1335
f 1338 1335 1332
f 1338 1332 1330
o link4051
usemtl Material051
v -0.051672820 0.160184557 -0.182897583
v -0.052050558 0.013004596 -0.183291384
v -0.050745580 0.154818291 -0.238336853
v -0.066561587 0.158114889 -0.241335501
v -0.081072617 0.165370403 -0.183291384
v -0.052050558 0.013004596 -0.241335501
v -0.052050558 0.165370403 -0.212313443
v -0.081072617 0.013004596 -0.183291384
v -0.059306073 0.165370403 -0.212313443
v -0.081072617 0.135499999 -0.241335501
v -0.081072617 0.165370403 -0.190546899
v -0.081072617 0.013004596 -0.241335501
f 1339 1340 1341
f 1344 1341 1340
f 1344 1342 1341
f 1345 1339 1341
f 1345 1341 1342
f 1345 1343 1339
f 1346 1340 1339
f 1346 1339 1343
f 1346 1344 1340
f 1347 1345 1342
f 1347 1343 1345
f 1348 1346 1343
f 1348 1342 1344
f 1349 1347 1342
f 1349 1343 1347
f 1349 1348 1343
f 1349 1342 1348
f 1350 1348 1344
f 1350 1344 1346
f 1350 1346 1348
o link4052
usemtl Material052
v -0.008517470 -0.074061580 -0.241335501
v -0.008517470 -0.110339154 -0.241335501
v -0.008517470 -0.110339154 -0.371934765
v -0.080103486 -0.073274354 -0.372024693
v -0.087204232 -0.073964914 -0.241285498
v -0.008517470 -0.074061580 -0.371934765
v -0.084112982 -0.109976608 -0.241147967
v -0.076800049 -0.076877617 -0.372304159
v -0.088328131 -0.110339154 -0.321146162
v -0.059306073 -0.110339154 -0.371934765
v -0.088328131 -0.074061580 -0.350168221
v -0.081072617 -0.110339154 -0.350168221
v -0.073817102 -0.095828124 -0.371934765
v -0.088328131 -0.081317095 -0.350168221
f 1351 1352 1353
f 1355 1351 1354
f 1356 1351 1353
f 1356 1354 1351
f 1357 1352 1351
f 1357 1351 1355
f 1358 1356 1353
f 1358 1354 1356
f 1359 1353 1352
f 1359 1352 1357
f 1359 1357 1355
f 1360 1358 1353
f 1360 1353 1359
f 1361 1359 1355
f 1361 1355 1354
f 1362 1360 1359
f 1363 1354 1358
f 1363 1358 1360
f 1363 1362 1354
f 1363 1360 1362
f 1364 1361 1354
f 1364 1354 1362
f 1364 1362 1359
f 1364 1359 1361
o link4053
usemtl Material053
v 0.079415397 0.079165016 -0.429904056
v 0.078548706 -0.059550551 -0.429978882
v 0.078548706 -0.059550551 -0.524300573
v -0.059306073 0.078304227 -0.524300573
v -0.059306073 0.078304227 -0.429978882
v -0.059306073 -0.059550551 -0.524300573
v 0.078548706 0.078304227 -0.524300573
v -0.059306073 -0.059550551 -0.429978882
f 1365 1366 1367
f 1369 1365 1368
f 1370 1367 1366
f 1370 1368 1367
f 1370 1369 1368
f 1371 1365 1367
f 1371 1367 1368
f 1371 1368 1365
f 1372 1366 1365
f 1372 1365 1369
f 1372 1370 1366
f 1372 1369 1370
o link4054
usemtl Material054
v 0.049526647 -0.110339154 -0.045436606
v 0.049526647 -0.157499999 -0.045436606
v 0.049526647 -0.161127756 -0.139758296
v -0.086366110 -0.110168741 -0.139733514
v -0.088328131 -0.146616727 -0.045436606
v 0.049526647 -0.110339154 -0.139758296
v -0.086196497 -0.110147524 -0.045459832
v -0.070541600 -0.154789159 -0.045463690
v -0.088328131 -0.146616727 -0.139758296
v -0.070400914 -0.154900727 -0.139736844
f 1373 1374 1375
f 1377 1374 1373
f 1378 1373 1375
f 1379 1377 1373
f 1379 1376 1377
f 1379 1378 1376
f 1379 1373 1378
f 1380 1375 1374
f 1380 1374 1377
f 1381 1378 1375
f 1381 1376 1378
f 1381 1377 1376
f 1382 1381 1375
f 1382 1375 1380
f 1382 1380 1377
f 1382 1377 1381
o link4055
usemtl Material055
v 0.042271132 -0.074061580 -0.241335501
v 0.042274545 -0.155487613 -0.241334089
v 0.042271132 -0.074061580 -0.371934765
v -0.008517470 -0.074061580 -0.371934765
v -0.008515380 -0.155462244 -0.241335396
v 0.042271132 -0.155499995 -0.371934765
v -0.008517470 -0.074061580 -0.241335501
v -0.006934056 -0.155180804 -0.370025272
f 1383 1384 1385
f 1383 1385 1386
f 1388 1385 1384
f 1388 1386 1385
f 1388 1384 1387
f 1389 1383 1386
f 1389 1386 1387
f 1389 1387 1384
f 1389 1384 1383
f 1390 1388 1387
f 1390 1387 1386
f 1390 1386 1388
o link4056
usemtl Material056
v 0.107577387 0.135501518 -0.045440330
v 0.107570764 0.100070771 -0.045436606
v 0.107570764 0.100070771 -0.139758296
v 0.071293191 0.136348345 -0.139758296
v 0.071293191 0.136348345 -0.045436606
v 0.071293191 0.100070771 -0.045436606
v 0.107570764 0.136348345 -0.139758296
v 0.071293191 0.100070771 -0.139758296
f 1391 1392 1393
f 1395 1392 1391
f 1396 1393 1392
f 1396 1395 1394
f 1396 1392 1395
f 1397 1391 1393
f 1397 1393 1394
f 1397 1395 1391
f 1397 1394 1395
f 1398 1396 1394
f 1398 1394 1393
f 1398 1393 1396
o link4057
usemtl Material057
v -0.008517470 -0.110339154 -0.241335501
v -0.008515380 -0.155462244 -0.241335396
v -0.008512020 -0.155469763 -0.328410486
v -0.044795043 -0.110339154 -0.328401677
v -0.044795043 -0.110339154 -0.241335501
v -0.008517470 -0.110339154 -0.328401677
v -0.044795043 -0.161127756 -0.328401677
v -0.044792948 -0.155448860 -0.241335396
f 1399 1400 1401
f 1403 1399 1402
f 1404 1399 1401
f 1404 1401 1402
f 1404 1402 1399
f 1405 1401 1400
f 1405 1403 1402
f 1405 1402 1401
f 1406 1405 1400
f 1406 1403 1405
f 1406 1400 1399
f 1406 1399 1403
o link4058
usemtl Material058
v 0.071293191 0.143603859 -0.088969693
v 0.071293191 0.100070771 -0.088969693
v 0.076871748 0.100367431 -0.242589591
v 0.005993559 0.143603859 -0.241335501
v 0.005993559 0.143603859 -0.088969693
v 0.005993559 0.100070771 -0.241335501
v 0.064037676 0.143603859 -0.241335501
v 0.005993559 0.100070771 -0.088969693
v 0.071417801 0.141499996 -0.225439996
v 0.071293191 0.135499999 -0.241335501
f 1407 1408 1409
f 1411 1408 1407
f 1411 1407 1410
f 1412 1409 1408
f 1412 1410 1409
f 1412 1411 1410
f 1413 1409 1410
f 1413 1410 1407
f 1414 1412 1408
f 1414 1408 1411
f 1414 1411 1412
f 1415 1413 1407
f 1415 1407 1409
f 1416 1415 1409
f 1416 1409 1413
f 1416 1413 1415
o link4059
usemtl Material059
v 0.005993559 0.175999999 -0.088969693
v 0.005993559 0.100070771 -0.088969693
v 0.005993559 0.100070771 -0.183291384
v -0.052050558 0.172625918 -0.183291384
v -0.052050558 0.179881433 -0.088969693
v -0.052050558 0.100070771 -0.088969693
v 0.005969486 0.175918150 -0.183002614
v -0.052050558 0.100070771 -0.183291384
v -0.044795043 0.179881433 -0.183291384
v -0.052050558 0.179881433 -0.176035869
f 1417 1418 1419
f 1421 1418 1417
f 1422 1419 1418
f 1422 1421 1420
f 1422 1418 1421
f 1423 1417 1419
f 1424 1422 1420
f 1424 1420 1419
f 1424 1419 1422
f 1425 1423 1419
f 1425 1419 1420
f 1425 1421 1417
f 1425 1417 1423
f 1426 1425 1420
f 1426 1420 1421
f 1426 1421 1425
o link4060
usemtl Material060
v 0.071293191 0.100070771 -0.139758296
v 0.069785549 0.013527850 -0.142067465
v 0.076871748 0.100367431 -0.242589591
v -0.052050558 0.100070771 -0.241335501
v -0.055460143 0.011878787 -0.133852677
v -0.052050558 0.013004596 -0.241335501
v -0.052050558 0.100070771 -0.139758296
v 0.071293191 0.013004596 -0.241335501
f 1427 1428 1429
f 1431 1428 1427
f 1432 1430 1429
f 1432 1431 1430
f 1433 1427 1429
f 1433 1429 1430
f 1433 1431 1427
f 1433 1430 1431
f 1434 1432 1429
f 1434 1429 1428
f 1434 1428 1431
f 1434 1431 1432
o link4061
usemtl Material061
v 0.056782162 0.005749081 -0.241335501
v 0.056782162 -0.074061580 -0.241335501
v 0.056782162 0.005749081 -0.429978882
v -0.008517470 0.005749081 -0.429978882
v -0.008517470 -0.074061580 -0.241335501
v -0.008517470 -0.074061580 -0.429978882
v -0.008517470 0.005749081 -0.241335501
v 0.056782162 -0.074061580 -0.429978882
f 1435 1436 1437
f 1435 1437 1438
f 1439 1436 1435
f 1440 1438 1437
f 1440 1439 1438
f 1440 1436 1439
f 1441 1439 1435
f 1441 1435 1438
f 1441 1438 1439
f 1442 1440 1437
f 1442 1437 1436
f 1442 1436 1440
o link4062
usemtl Material062
v 0.005993559 0.143603859 -0.183291384
v 0.005993559 0.100070771 -0.183291384
v 0.005993559 0.100070771 -0.241335501
v -0.051253448 0.143485379 -0.239648321
v -0.052050558 0.100070771 -0.183291384
v 0.005993559 0.143603859 -0.241335501
v -0.052050558 0.143603859 -0.183291384
v -0.052050558 0.100070771 -0.241335501
f 1443 1444 1445
f 1447 1444 1443
f 1447 1445 1444
f 1448 1443 1445
f 1449 1447 1443
f 1449 1448 1446
f 1449 1443 1448
f 1450 1445 1447
f 1450 1448 1445
f 1450 1446 1448
f 1450 1449 1446
f 1450 1447 1449
o link4063
usemtl Material063
v 0.056782162 0.078304227 -0.328401677
v 0.056782162 0.005749081 -0.328401677
v 0.056782162 0.078304227 -0.429978882
v -0.008517470 0.078304227 -0.429978882
v -0.008517470 0.078304227 -0.328401677
v -0.008517470 0.005749081 -0.429978882
v 0.056782162 0.005749081 -0.429978882
v -0.008517470 0.005749081 -0.328401677
f 1451 1452 1453
f 1451 1453 1454
f 1455 1452 1451
f 1455 1451 1454
f 1456 1454 1453
f 1456 1455 1454
f 1457 1456 1453
f 1457 1453 1452
f 1457 1452 1456
f 1458 1456 1452
f 1458 1452 1455
f 1458 1455 1456
