mtllib decomp.mtl
o link2000
usemtl Material000
v 0.213347384 0.089715586 -0.224749730
v 0.279922721 -0.256476171 -0.331270271
v 0.279922721 0.142975856 -0.451105879
v 0.200032316 0.142975856 -0.451105879
v 0.200032316 -0.256476171 -0.317955203
v 0.253292586 -0.256476171 -0.451105879
v 0.279922721 0.142975856 -0.278010001
v 0.213347384 -0.096695360 -0.224749730
v 0.195671323 0.087589051 -0.231999993
v 0.279397928 -0.237182378 -0.445173097
v 0.198602287 -0.246898098 -0.447693197
v 0.200114093 0.143685246 -0.282339324
v 0.239977519 -0.189900833 -0.264694933
v 0.226662451 0.049770383 -0.224749730
v 0.194597242 -0.094110696 -0.232672200
v 0.279922721 -0.256476171 -0.397845609
v 0.213347384 -0.189900833 -0.264694933
v 0.253292586 -0.256476171 -0.317955203
v 0.279893956 -0.122457435 -0.285449569
v 0.200032316 -0.176585766 -0.264694933
v 0.279922721 -0.243161103 -0.317955203
v 0.226662451 -0.043435090 -0.224749730
v 0.279922721 0.063085450 -0.278010001
f 6 4 3
f 6 2 5
f 7 2 3
f 9 8 1
f 10 6 3
f 11 6 5
f 11 4 6
f 12 7 3
f 12 3 4
f 12 4 9
f 12 9 1
f 12 1 7
f 14 7 1
f 14 1 8
f 15 8 9
f 15 11 5
f 15 9 4
f 15 4 11
f 16 10 3
f 16 3 2
f 16 2 6
f 16 6 10
f 17 13 8
f 17 5 13
f 18 13 5
f 18 5 2
f 20 15 5
f 20 5 17
f 20 17 8
f 20 8 15
f 21 18 2
f 21 13 18
f 21 19 13
f 21 2 7
f 22 7 14
f 22 14 8
f 22 8 13
f 22 13 19
f 23 22 19
f 23 7 22
f 23 21 7
f 23 19 21
o link2001
usemtl Material001
v 1.078826775 0.089715586 -0.278010001
v 1.132087045 -0.056750158 -0.331270271
v 1.132087045 0.063085450 -0.331270271
v 1.078826775 0.089715586 -0.451105879
v 1.045793099 -0.154423414 -0.410788846
v 1.132087045 0.049770383 -0.411160676
v 1.105456910 0.116345721 -0.317955203
v 1.105456910 0.036455315 -0.278010001
v 1.060618569 0.113828107 -0.431526808
v 1.078826775 -0.096695360 -0.451105879
v 1.105456910 0.116345721 -0.411160676
v 1.118771977 0.049770383 -0.291325068
v 1.052196640 -0.136640563 -0.291325068
v 1.060784412 0.111998448 -0.296798328
v 1.092141842 0.049770383 -0.451105879
v 1.051603196 -0.083259495 -0.449888777
v 1.132087045 -0.043435090 -0.411160676
v 1.105456910 0.103030653 -0.424475744
v 1.078826775 0.116345721 -0.437790811
v 1.118771977 0.089715586 -0.411160676
v 1.118771977 -0.043435090 -0.291325068
v 1.132087045 0.049770383 -0.317955203
v 1.105456910 0.089715586 -0.291325068
v 1.105456910 -0.123325495 -0.331270271
v 1.052196640 -0.110010428 -0.278010001
v 1.078826775 0.116345721 -0.291325068
v 1.044809202 -0.119074596 -0.441165217
v 1.058842834 0.086976233 -0.443234777
v 1.065511707 -0.123325495 -0.451105879
v 1.092141842 -0.043435090 -0.451105879
v 1.092141842 0.103030653 -0.437790811
v 1.132087045 0.063085450 -0.357900406
v 1.132087045 -0.043435090 -0.317955203
v 1.092141842 0.076400518 -0.278010001
v 1.118771977 0.089715586 -0.317955203
v 1.065511707 -0.163270698 -0.331270271
v 1.092141842 -0.110010428 -0.291325068
v 1.118771977 -0.096695360 -0.384530541
v 1.062198130 0.087386591 -0.290154764
v 1.047460760 -0.155853138 -0.335117994
v 1.105456910 -0.043435090 -0.278010001
v 1.065511707 -0.149955630 -0.437790811
v 1.105456910 -0.056750158 -0.437790811
v 1.118771977 -0.070065225 -0.304640136
v 1.065511707 -0.136640563 -0.291325068
v 1.132087045 -0.056750158 -0.397845609
v 1.118771977 -0.096695360 -0.331270271
v 1.050120131 -0.081817064 -0.286001840
v 1.065511707 -0.163270698 -0.411160676
v 1.105456910 -0.083380293 -0.291325068
v 1.078826775 -0.096695360 -0.278010001
v 1.045923641 -0.145682945 -0.428535827
v 1.105456910 -0.110010428 -0.424475744
v 1.065511707 -0.110010428 -0.278010001
v 1.092141842 -0.136640563 -0.411160676
v 1.118771977 -0.056750158 -0.424475744
v 1.105456910 -0.123325495 -0.344585338
f 29 26 25
f 38 33 27
f 40 29 25
f 42 30 34
f 42 27 32
f 42 34 41
f 43 41 34
f 43 29 41
f 43 34 30
f 44 35 31
f 45 25 26
f 45 35 44
f 46 31 35
f 46 35 45
f 48 31 24
f 49 37 24
f 49 30 42
f 49 42 32
f 49 32 37
f 49 46 30
f 49 24 46
f 50 37 32
f 51 32 27
f 51 27 39
f 51 50 32
f 51 39 50
f 52 39 27
f 52 27 33
f 52 50 39
f 53 33 38
f 54 38 27
f 54 42 41
f 54 27 42
f 54 41 29
f 54 29 38
f 55 43 26
f 55 26 29
f 55 29 43
f 56 45 44
f 56 25 45
f 57 46 24
f 57 24 31
f 57 31 46
f 58 46 45
f 58 45 26
f 58 30 46
f 58 43 30
f 58 26 43
f 60 59 47
f 62 48 24
f 62 24 37
f 63 36 48
f 63 59 36
f 63 50 28
f 64 44 31
f 64 31 48
f 66 33 53
f 66 53 38
f 66 38 29
f 66 29 40
f 67 25 56
f 67 56 44
f 68 36 59
f 68 59 60
f 68 48 36
f 69 40 25
f 69 25 61
f 70 61 25
f 70 47 61
f 70 25 67
f 70 67 60
f 70 60 47
f 71 62 37
f 71 48 62
f 71 63 48
f 71 37 50
f 71 50 63
f 72 63 28
f 72 59 63
f 73 64 60
f 73 44 64
f 73 67 44
f 73 60 67
f 74 64 48
f 74 60 64
f 74 68 60
f 75 28 50
f 75 50 52
f 75 52 65
f 75 72 28
f 75 65 72
f 76 69 61
f 76 40 69
f 76 33 66
f 76 65 52
f 76 52 33
f 77 74 48
f 77 48 68
f 77 68 74
f 78 72 65
f 78 65 76
f 78 47 59
f 78 59 72
f 78 76 61
f 79 76 66
f 79 66 40
f 79 40 76
f 80 78 61
f 80 61 47
f 80 47 78
o link2002
usemtl Material002
v 0.439703532 0.116345721 -0.278010001
v 0.439707521 0.009915406 -0.294588100
v 0.439703532 0.063085450 -0.517681217
v 0.279922721 0.156290923 -0.504366149
v 0.279922721 0.063085450 -0.278010001
v 0.439703532 0.209551194 -0.451105879
v 0.439703532 0.063085450 -0.278010001
v 0.279888500 0.009579091 -0.508581181
v 0.439703532 0.142975856 -0.504366149
v 0.306552856 0.236181329 -0.331270271
v 0.439695917 0.009517574 -0.508187731
v 0.279930473 0.009922572 -0.294847250
v 0.277889148 0.223031190 -0.437336027
v 0.279922721 0.076400518 -0.517681217
v 0.413073397 0.076400518 -0.517681217
v 0.293237789 0.209551194 -0.477736014
v 0.279922721 0.129660788 -0.278010001
v 0.439703532 0.209551194 -0.317955203
v 0.293237789 0.236181329 -0.437790811
v 0.278380687 0.226111140 -0.335832900
v 0.386443262 0.156290923 -0.504366149
v 0.279922721 0.209551194 -0.477736014
v 0.399758329 0.222866261 -0.331270271
v 0.373128194 0.222866261 -0.317955203
v 0.306552856 0.222866261 -0.464420946
v 0.279543030 0.220368826 -0.330313830
v 0.439703532 0.169605991 -0.491051081
v 0.279922721 0.222866261 -0.464420946
v 0.306552856 0.236181329 -0.384530541
v 0.386443262 0.222866261 -0.424475744
v 0.346498059 0.129660788 -0.278010001
v 0.373128194 0.222866261 -0.451105879
v 0.359813127 0.182921058 -0.491051081
v 0.386443262 0.196236126 -0.477736014
v 0.399758329 0.222866261 -0.371215473
v 0.399758329 0.209551194 -0.464420946
f 87 85 82
f 87 82 81
f 87 81 85
f 89 82 83
f 91 88 83
f 91 83 82
f 92 82 85
f 92 91 82
f 92 88 91
f 93 88 92
f 94 83 88
f 94 93 84
f 94 88 93
f 95 89 83
f 95 94 84
f 95 83 94
f 97 85 81
f 98 81 82
f 98 82 86
f 100 93 92
f 100 92 85
f 100 85 97
f 100 99 93
f 100 90 99
f 101 95 84
f 101 89 95
f 101 84 96
f 102 96 84
f 102 84 93
f 103 98 86
f 104 81 98
f 104 90 97
f 104 103 90
f 104 98 103
f 105 96 102
f 106 100 97
f 106 97 90
f 106 90 100
f 107 89 101
f 107 86 82
f 107 82 89
f 108 102 93
f 108 93 99
f 108 105 102
f 108 99 105
f 109 99 90
f 109 90 103
f 110 99 109
f 111 104 97
f 111 97 81
f 111 81 104
f 112 105 99
f 112 110 86
f 112 99 110
f 113 107 101
f 113 101 96
f 114 96 105
f 114 113 96
f 114 107 113
f 115 103 86
f 115 86 110
f 115 110 109
f 115 109 103
f 116 114 105
f 116 105 112
f 116 112 86
f 116 86 107
f 116 107 114
o link2003
usemtl Material003
v 0.093511776 0.142975856 -0.384530541
v 0.093511776 -0.189900833 -0.451105879
v 0.093511776 0.116345721 -0.557626419
v 0.066881640 0.116345721 -0.557626419
v 0.013621370 -0.123325495 -0.384530541
v 0.040251505 -0.189900833 -0.544311352
v 0.093698135 0.142385671 -0.540004282
v 0.093511776 -0.123325495 -0.384530541
v 0.013621370 0.142975856 -0.384530541
v 0.093511776 -0.189900833 -0.544311352
v 0.066881640 -0.110010428 -0.557626419
v 0.013621370 -0.189900833 -0.451105879
v 0.013621370 0.049770383 -0.557626419
v 0.014739701 0.141495783 -0.534221267
v 0.093511776 -0.110010428 -0.557626419
v 0.013621370 -0.176585766 -0.544311352
v 0.026936438 0.076400518 -0.557626419
v 0.014025865 -0.187453024 -0.525665300
v 0.013621370 -0.056750158 -0.557626419
f 123 119 120
f 124 121 118
f 124 117 121
f 124 123 117
f 124 118 123
f 125 121 117
f 125 117 123
f 126 118 122
f 126 123 118
f 127 120 119
f 127 126 122
f 128 122 118
f 128 118 121
f 128 121 125
f 129 128 125
f 129 120 127
f 130 125 123
f 130 123 120
f 130 129 125
f 131 119 123
f 131 123 126
f 131 127 119
f 131 126 127
f 132 128 129
f 132 127 122
f 133 130 120
f 133 120 129
f 133 129 130
f 134 132 122
f 134 122 128
f 134 128 132
f 135 132 129
f 135 129 127
f 135 127 132
o link2004
usemtl Material004
v 0.972306234 0.009825180 -0.397845609
v 0.971671049 -0.185172171 -0.397675813
v 0.972306234 -0.083380293 -0.504366149
v 0.890875945 0.075840269 -0.511769213
v 0.892415829 0.009825180 -0.397845609
v 0.892415829 -0.189900833 -0.477736014
v 0.958991167 0.116345721 -0.504366149
v 0.972306234 -0.189900833 -0.464420946
v 0.895804296 -0.178361899 -0.397459863
v 0.892415829 -0.123325495 -0.517681217
v 0.972306234 0.076400518 -0.504366149
v 0.945676099 0.116345721 -0.451105879
v 0.932361032 -0.176585766 -0.491051081
v 0.932361032 0.076400518 -0.517681217
v 0.972306234 0.116345721 -0.451105879
v 0.941470992 0.114603687 -0.491857791
v 0.892415829 0.076400518 -0.451105879
v 0.958991167 -0.189900833 -0.477736014
v 0.958991167 -0.123325495 -0.504366149
v 0.932361032 -0.083380293 -0.517681217
v 0.968902425 0.115035627 -0.481983583
v 0.932361032 -0.149955630 -0.504366149
v 0.972306234 -0.149955630 -0.491051081
v 0.905730896 -0.123325495 -0.517681217
v 0.972306234 -0.176585766 -0.477736014
v 0.958991167 -0.163270698 -0.491051081
v 0.919045964 -0.110010428 -0.517681217
f 141 140 139
f 143 136 137
f 143 138 136
f 143 137 141
f 144 137 136
f 144 136 140
f 144 141 137
f 144 140 141
f 145 141 139
f 146 136 138
f 147 140 136
f 148 141 145
f 149 145 139
f 149 139 142
f 149 142 146
f 149 146 138
f 150 136 146
f 150 147 136
f 150 142 147
f 151 147 142
f 151 142 139
f 152 139 140
f 152 140 147
f 152 151 139
f 152 147 151
f 153 143 141
f 153 141 148
f 155 149 138
f 155 145 149
f 155 138 154
f 156 150 146
f 156 146 142
f 156 142 150
f 157 148 145
f 157 153 148
f 158 154 138
f 158 138 143
f 159 145 155
f 159 157 145
f 159 154 157
f 160 158 143
f 160 143 153
f 160 153 158
f 161 158 153
f 161 153 157
f 161 157 154
f 161 154 158
f 162 159 155
f 162 155 154
f 162 154 159
o link2005
usemtl Material005
v -0.199419711 0.009825180 -0.291325068
v -0.159474508 -0.043435090 -0.371215473
v -0.159474508 0.009825180 -0.437790811
v -0.212734778 0.009825180 -0.504366149
v -0.252679981 -0.110010428 -0.331270271
v -0.193984123 -0.107744434 -0.481664836
v -0.159474508 0.009825180 -0.371215473
v -0.206143349 -0.113239463 -0.289019422
v -0.265995048 0.009825180 -0.317955203
v -0.159474508 -0.043435090 -0.437790811
v -0.194037137 0.009748068 -0.495993507
v -0.252679981 -0.083380293 -0.464420946
v -0.239364913 -0.110010428 -0.477736014
v -0.252679981 0.009825180 -0.291325068
v -0.212734778 -0.043435090 -0.504366149
v -0.192992337 -0.042394869 -0.494247247
v -0.252679981 -0.003489887 -0.477736014
v -0.265995048 -0.056750158 -0.424475744
v -0.252679981 -0.110010428 -0.384530541
v -0.212734778 -0.110010428 -0.491051081
v -0.265995048 -0.043435090 -0.317955203
v -0.255349752 0.009316376 -0.446784161
v -0.252679981 -0.056750158 -0.477736014
v -0.252679981 -0.096695360 -0.451105879
v -0.265995048 -0.070065225 -0.357900406
v -0.226049846 -0.083380293 -0.491051081
v -0.239364913 -0.083380293 -0.291325068
v -0.265995048 -0.043435090 -0.451105879
v -0.265995048 -0.070065225 -0.331270271
v -0.226049846 -0.110010428 -0.291325068
v -0.252679981 -0.030120022 -0.291325068
v -0.252679981 -0.096695360 -0.317955203
f 163 165 166
f 169 163 164
f 169 164 165
f 169 165 163
f 170 164 163
f 170 168 164
f 171 163 166
f 172 165 164
f 172 164 168
f 173 166 165
f 176 170 163
f 176 163 171
f 177 166 173
f 178 172 168
f 178 177 173
f 178 173 165
f 178 165 172
f 179 166 177
f 181 175 170
f 181 170 167
f 182 168 170
f 182 170 175
f 182 178 168
f 182 177 178
f 183 176 171
f 183 171 180
f 184 171 166
f 184 166 179
f 185 175 174
f 185 179 177
f 186 174 175
f 186 175 181
f 186 181 180
f 187 181 167
f 187 180 181
f 187 183 180
f 188 182 175
f 188 177 182
f 188 185 177
f 188 175 185
f 190 180 171
f 190 171 184
f 190 184 179
f 190 179 185
f 190 185 174
f 190 186 180
f 190 174 186
f 191 187 167
f 191 183 187
f 192 167 170
f 192 170 189
f 193 189 170
f 193 170 176
f 193 176 183
f 193 183 189
f 194 189 183
f 194 183 191
f 194 191 167
f 194 192 189
f 194 167 192
o link2006
usemtl Material006
v 0.626114478 0.116345721 -0.384530541
v 0.624442395 -0.204333519 -0.384098092
v 0.626114478 -0.083380293 -0.517681217
v 0.439703532 0.063085450 -0.517681217
v 0.439703532 0.116345721 -0.384530541
v 0.439703532 -0.189900833 -0.491051081
v 0.626114478 0.063085450 -0.517681217
v 0.626114478 -0.216530968 -0.451105879
v 0.439703532 0.116345721 -0.437790811
v 0.439703532 -0.096695360 -0.517681217
v 0.438936128 -0.223028174 -0.444139375
v 0.626114478 -0.149955630 -0.504366149
v 0.626114478 0.116345721 -0.437790811
v 0.439431355 -0.160544317 -0.491367377
v 0.439373235 -0.226916131 -0.384428248
v 0.519593937 -0.229846036 -0.451105879
v 0.559539140 -0.203215901 -0.477736014
v 0.572854208 -0.163270698 -0.504366149
v 0.532909005 -0.229846036 -0.384530541
v 0.626114478 -0.176585766 -0.491051081
v 0.559539140 -0.216530968 -0.464420946
v 0.559539140 -0.096695360 -0.517681217
v 0.532909005 -0.189900833 -0.491051081
v 0.532909005 -0.229846036 -0.424475744
f 199 196 195
f 201 195 197
f 201 197 198
f 202 195 196
f 202 197 195
f 203 199 195
f 203 201 198
f 204 198 197
f 205 198 204
f 205 203 198
f 205 199 203
f 206 197 202
f 207 203 195
f 207 195 201
f 207 201 203
f 208 205 204
f 208 204 200
f 208 200 205
f 209 196 199
f 209 199 205
f 210 205 200
f 210 209 205
f 211 210 200
f 212 197 206
f 212 200 204
f 213 202 196
f 213 196 209
f 213 209 210
f 214 206 202
f 214 202 211
f 214 212 206
f 215 211 202
f 215 202 210
f 215 210 211
f 216 212 204
f 216 204 197
f 216 197 212
f 217 211 200
f 217 200 212
f 217 214 211
f 217 212 214
f 218 213 210
f 218 210 202
f 218 202 213
o link2007
usemtl Material007
v 0.439703532 -0.110010428 -0.317955203
v 0.439703532 -0.229846036 -0.317955203
v 0.439682972 -0.109548246 -0.501286128
v 0.279906148 -0.109709111 -0.502178144
v 0.279844815 -0.242241309 -0.384498787
v 0.373128194 -0.110010428 -0.317955203
v 0.439703532 -0.229846036 -0.464420946
v 0.279922721 -0.110010428 -0.384530541
v 0.373128194 -0.243161103 -0.317955203
v 0.279922721 -0.229846036 -0.477736014
v 0.439703532 -0.243161103 -0.344585338
v 0.306552856 -0.243161103 -0.464420946
v 0.426388464 -0.176585766 -0.504366149
v 0.439703532 -0.243161103 -0.331270271
v 0.426388464 -0.216530968 -0.477736014
v 0.279922721 -0.243161103 -0.464420946
v 0.399758329 -0.243161103 -0.451105879
v 0.279922721 -0.176585766 -0.504366149
v 0.439703532 -0.189900833 -0.491051081
v 0.399758329 -0.243161103 -0.317955203
v 0.293237789 -0.229846036 -0.477736014
v 0.413073397 -0.243161103 -0.424475744
v 0.399758329 -0.203215901 -0.491051081
f 224 219 221
f 224 221 222
f 224 220 219
f 225 219 220
f 226 224 222
f 226 222 223
f 226 223 224
f 227 224 223
f 227 220 224
f 229 225 220
f 230 229 227
f 231 222 221
f 232 229 220
f 232 227 229
f 234 223 228
f 234 228 230
f 234 230 227
f 234 227 223
f 235 230 225
f 235 229 230
f 236 231 228
f 236 222 231
f 236 228 223
f 236 223 222
f 237 231 221
f 237 233 231
f 237 225 233
f 237 221 219
f 237 219 225
f 238 232 220
f 238 220 227
f 238 227 232
f 239 230 228
f 239 228 231
f 239 233 225
f 239 225 230
f 240 235 225
f 240 225 229
f 240 229 235
f 241 239 231
f 241 231 233
f 241 233 239
o link2008
usemtl Material008
v 0.173402181 0.156290923 -0.224749730
v 0.279552330 0.139177999 -0.320168724
v 0.279922721 0.236181329 -0.317955203
v 0.160087113 0.222866261 -0.491051081
v 0.093511776 0.142975856 -0.451105879
v 0.279922721 0.236181329 -0.451105879
v 0.093511776 0.262811464 -0.317955203
v 0.266607654 0.169605991 -0.278010001
v 0.093511776 0.142975856 -0.231999993
v 0.279922721 0.142975856 -0.451105879
v 0.120141911 0.196236126 -0.224749730
v 0.092220313 0.253111434 -0.450720069
v 0.146772046 0.262811464 -0.331270271
v 0.260413637 0.140720261 -0.285298392
v 0.239977519 0.196236126 -0.264694933
v 0.167583435 0.138288744 -0.234895304
v 0.156556792 0.204759818 -0.489719656
v 0.173402181 0.222866261 -0.491051081
v 0.133456978 0.262811464 -0.317955203
v 0.088350288 0.198697588 -0.238483844
v 0.226662451 0.249496396 -0.331270271
v 0.133456978 0.262811464 -0.451105879
v 0.146772046 0.182921058 -0.224749730
v 0.106826843 0.209551194 -0.238064798
v 0.092175141 0.193425435 -0.231999993
v 0.200032316 0.249496396 -0.464420946
v 0.226662451 0.249496396 -0.371215473
v 0.213347384 0.249496396 -0.451105879
v 0.146772046 0.262811464 -0.397845609
f 249 243 244
f 251 247 244
f 251 244 243
f 251 243 246
f 252 250 242
f 255 249 242
f 255 243 249
f 256 249 244
f 256 242 249
f 256 244 252
f 257 250 246
f 257 246 243
f 257 243 255
f 257 255 242
f 257 242 250
f 258 251 246
f 258 253 245
f 258 246 253
f 259 247 251
f 259 258 245
f 259 251 258
f 260 254 248
f 261 248 253
f 261 253 246
f 261 246 250
f 262 244 247
f 262 260 244
f 262 254 260
f 263 253 248
f 263 248 254
f 263 259 245
f 263 245 253
f 264 256 252
f 264 252 242
f 264 242 256
f 265 252 244
f 265 244 260
f 265 260 248
f 265 248 261
f 266 261 250
f 266 250 252
f 266 265 261
f 266 252 265
f 267 247 259
f 267 259 263
f 268 262 247
f 268 254 262
f 269 267 263
f 269 247 267
f 269 268 247
f 270 263 254
f 270 254 268
f 270 269 263
f 270 268 269
o link2009
usemtl Material009
v -0.159474508 0.142975856 -0.291325068
v -0.159474508 -0.110010428 -0.291325068
v -0.155752066 -0.082313528 -0.504984002
v -0.172789576 0.089715586 -0.517681217
v -0.206143349 -0.113239463 -0.289019422
v -0.159474508 0.089715586 -0.517681217
v -0.199419711 0.142975856 -0.371215473
v -0.157994796 -0.109176329 -0.501597603
v -0.159474508 0.142975856 -0.371215473
v -0.172789576 -0.083380293 -0.517681217
v -0.192263942 0.137849872 -0.294092702
v -0.199419711 -0.096695360 -0.504366149
v -0.199419711 0.089715586 -0.291325068
v -0.186104643 -0.110010428 -0.504366149
v -0.199419711 0.089715586 -0.504366149
v -0.193984123 -0.107744434 -0.481664836
f 271 272 273
f 275 272 271
f 277 276 274
f 278 273 272
f 278 272 275
f 279 271 273
f 279 273 276
f 279 277 271
f 279 276 277
f 280 276 273
f 280 274 276
f 280 273 278
f 281 271 277
f 282 274 280
f 283 281 277
f 283 277 275
f 283 275 271
f 283 271 281
f 284 282 280
f 284 280 278
f 284 278 275
f 285 282 275
f 285 275 277
f 285 277 274
f 285 274 282
f 286 284 275
f 286 275 282
f 286 282 284
o link2010
usemtl Material010
v 0.799210356 0.103030653 -0.451105879
v 0.798511493 -0.172003071 -0.447349879
v 0.799210356 0.076400518 -0.530996284
v 0.785895288 0.076400518 -0.530996284
v 0.718519264 -0.184650449 -0.446802637
v 0.785895288 0.103030653 -0.517681217
v 0.799932284 -0.067989551 -0.517923229
v 0.757961285 -0.181369305 -0.443491589
v 0.799210356 0.103030653 -0.517681217
v 0.719319951 0.063085450 -0.451105879
v 0.799210356 -0.176585766 -0.464420946
v 0.719319951 -0.083380293 -0.517681217
v 0.772580221 0.103030653 -0.451105879
v 0.719319951 0.063085450 -0.517681217
v 0.759265153 -0.189900833 -0.464420946
v 0.785895288 -0.070065225 -0.530996284
v 0.772580221 -0.043435090 -0.530996284
v 0.772624114 0.099816846 -0.492801661
v 0.719319951 -0.163270698 -0.491051081
v 0.799210356 -0.110010428 -0.517681217
v 0.772580221 0.036455315 -0.530996284
v 0.719319951 -0.189900833 -0.464420946
v 0.719319951 -0.136640563 -0.504366149
v 0.799210356 -0.149955630 -0.491051081
v 0.785895288 -0.110010428 -0.517681217
v 0.745950086 -0.163270698 -0.491051081
v 0.759265153 -0.176585766 -0.477736014
v 0.785895288 -0.136640563 -0.504366149
f 292 289 290
f 294 288 287
f 295 292 287
f 295 289 292
f 295 293 289
f 295 287 293
f 296 291 294
f 297 293 287
f 297 287 288
f 299 287 292
f 299 296 294
f 299 294 287
f 300 292 290
f 300 298 291
f 300 291 296
f 300 296 299
f 301 294 291
f 301 297 288
f 301 288 294
f 302 290 289
f 303 298 300
f 303 302 298
f 303 290 302
f 304 300 299
f 304 299 292
f 304 292 300
f 306 302 289
f 306 289 293
f 307 303 300
f 307 300 290
f 307 290 303
f 308 305 301
f 308 301 291
f 308 291 305
f 309 305 291
f 309 291 298
f 309 298 302
f 309 306 305
f 310 306 293
f 310 293 297
f 310 297 301
f 311 309 302
f 311 302 306
f 311 306 309
f 312 301 305
f 312 305 306
f 313 310 301
f 313 301 312
f 314 312 306
f 314 306 310
f 314 313 312
f 314 310 313
o link2011
usemtl Material011
v 1.038881572 0.129660788 -0.278010001
v 1.092141842 0.116345721 -0.317955203
v 0.998936369 0.196236126 -0.384530541
v 0.892415829 0.156290923 -0.504366149
v 0.834546815 0.109066646 -0.298264798
v 1.078826775 0.129660788 -0.437790811
v 1.038881572 0.182921058 -0.331270271
v 1.036444051 0.113157358 -0.290227479
v 0.799210356 0.169605991 -0.317955203
v 0.998936369 0.182921058 -0.464420946
v 0.892380181 0.116219235 -0.504035645
v 1.092141842 0.129660788 -0.317955203
v 1.060784412 0.111998448 -0.296798328
v 0.852470626 0.116345721 -0.278010001
v 0.919045964 0.196236126 -0.464420946
v 0.919045964 0.196236126 -0.317955203
v 0.985621302 0.142975856 -0.491051081
v 1.052196640 0.169605991 -0.424475744
v 0.798885135 0.120020297 -0.482449683
v 1.078826775 0.116345721 -0.437790811
v 1.052196640 0.142975856 -0.291325068
v 1.065511707 0.129660788 -0.291325068
v 1.092141842 0.116345721 -0.424475744
v 0.825840491 0.129660788 -0.291325068
v 0.919045964 0.182921058 -0.491051081
v 0.985621302 0.196236126 -0.451105879
v 0.985621302 0.196236126 -0.317955203
v 0.892415829 0.196236126 -0.331270271
v 0.919045964 0.156290923 -0.278010001
v 1.012251437 0.142975856 -0.477736014
v 0.945676099 0.142975856 -0.504366149
v 1.065511707 0.156290923 -0.437790811
v 1.025566504 0.182921058 -0.437790811
v 0.798743974 0.161593456 -0.444514561
v 0.799182726 0.116392388 -0.329970722
v 0.941470992 0.114603687 -0.491857791
v 1.052196640 0.169605991 -0.317955203
v 0.958991167 0.196236126 -0.464420946
v 0.998936369 0.196236126 -0.331270271
v 0.998936369 0.169605991 -0.291325068
v 0.905730896 0.196236126 -0.437790811
v 0.905730896 0.169605991 -0.291325068
v 0.852470626 0.129660788 -0.278010001
v 1.038881572 0.116345721 -0.464420946
v 0.919045964 0.156290923 -0.504366149
v 0.985621302 0.169605991 -0.477736014
v 1.092141842 0.129660788 -0.424475744
v 1.038881572 0.182921058 -0.357900406
v 0.852470626 0.169605991 -0.491051081
v 0.985621302 0.116345721 -0.491051081
v 1.025566504 0.182921058 -0.317955203
v 1.025566504 0.142975856 -0.278010001
v 0.892415829 0.196236126 -0.357900406
v 0.879100761 0.142975856 -0.278010001
v 1.038881572 0.129660788 -0.464420946
v 0.945676099 0.169605991 -0.491051081
v 0.892415829 0.182921058 -0.491051081
v 0.798934516 0.136777478 -0.469870088
v 0.985621302 0.156290923 -0.278010001
f 327 315 322
f 327 322 319
f 328 322 315
f 328 319 322
f 330 317 329
f 332 321 326
f 333 318 325
f 333 325 319
f 336 316 326
f 336 327 316
f 336 315 327
f 336 335 315
f 336 326 335
f 337 326 316
f 337 334 320
f 337 316 327
f 337 327 334
f 338 319 328
f 340 329 317
f 341 317 330
f 342 330 329
f 342 323 330
f 343 328 315
f 345 325 318
f 346 344 324
f 346 320 344
f 347 340 317
f 347 324 340
f 347 346 324
f 347 332 346
f 349 333 319
f 349 348 333
f 349 323 348
f 349 338 323
f 349 319 338
f 350 334 327
f 350 327 319
f 350 319 325
f 351 335 326
f 351 326 321
f 352 339 329
f 352 329 340
f 352 340 324
f 352 324 339
f 353 341 321
f 353 321 317
f 353 317 341
f 354 335 351
f 354 341 330
f 355 342 329
f 355 348 323
f 355 329 348
f 356 330 323
f 356 323 343
f 356 354 330
f 356 343 354
f 357 338 328
f 357 328 343
f 357 323 338
f 358 334 350
f 358 320 334
f 359 345 318
f 359 318 339
f 360 339 324
f 360 331 345
f 360 344 331
f 360 324 344
f 361 337 320
f 361 320 346
f 361 326 337
f 361 346 332
f 361 332 326
f 362 347 317
f 362 317 321
f 362 321 332
f 362 332 347
f 363 318 333
f 364 350 325
f 364 325 345
f 364 358 350
f 364 345 331
f 364 331 344
f 364 344 358
f 365 351 321
f 365 321 341
f 365 354 351
f 365 341 354
f 366 315 335
f 366 335 354
f 366 343 315
f 367 355 323
f 367 323 342
f 367 342 355
f 368 357 343
f 368 343 323
f 368 323 357
f 369 358 344
f 369 344 320
f 369 320 358
f 370 360 345
f 370 339 360
f 370 359 339
f 370 345 359
f 371 363 348
f 371 348 329
f 371 329 339
f 371 339 318
f 371 318 363
f 372 363 333
f 372 333 348
f 372 348 363
f 373 366 354
f 373 354 343
f 373 343 366
o link2012
usemtl Material012
v 0.013621370 -0.189900833 -0.384530541
v 0.093511776 -0.269791238 -0.451105879
v 0.093071114 -0.187884662 -0.525886113
v -0.039638900 -0.189900833 -0.530996284
v -0.052953968 -0.269791238 -0.384530541
v 0.093511776 -0.243161103 -0.517681217
v -0.076405495 -0.185516614 -0.507914386
v 0.093511776 -0.189900833 -0.451105879
v 0.013510446 -0.261383812 -0.384236228
v 0.093511776 -0.216530968 -0.530996284
v -0.079584103 -0.256476171 -0.491051081
v -0.079584103 -0.189900833 -0.384530541
v 0.000306303 -0.243161103 -0.517681217
v -0.079584103 -0.203215901 -0.517681217
v 0.053566573 -0.269791238 -0.491051081
v -0.077041649 -0.248969402 -0.384255208
v 0.000306303 -0.216530968 -0.530996284
v -0.066269035 -0.243161103 -0.504366149
v 0.093511776 -0.256476171 -0.504366149
v -0.039638900 -0.269791238 -0.491051081
v -0.039638900 -0.203215901 -0.530996284
v 0.093511776 -0.269791238 -0.464420946
v -0.052953968 -0.269791238 -0.437790811
v -0.039638900 -0.256476171 -0.504366149
v -0.066269035 -0.216530968 -0.517681217
v 0.080196708 -0.269791238 -0.477736014
f 380 374 376
f 380 376 377
f 381 376 374
f 381 375 379
f 382 378 375
f 382 381 374
f 382 375 381
f 383 377 376
f 383 381 379
f 383 376 381
f 385 374 380
f 386 383 379
f 387 380 377
f 387 385 380
f 387 384 385
f 388 375 378
f 389 382 374
f 389 374 385
f 389 378 382
f 389 385 384
f 389 384 378
f 390 377 383
f 390 383 386
f 392 379 375
f 392 386 379
f 393 388 378
f 393 392 388
f 394 387 377
f 394 377 390
f 394 390 386
f 395 392 375
f 395 375 388
f 396 393 378
f 396 378 384
f 396 384 393
f 397 386 392
f 397 392 393
f 397 394 386
f 397 393 384
f 397 384 391
f 398 387 394
f 398 391 384
f 398 384 387
f 398 397 391
f 398 394 397
f 399 395 388
f 399 388 392
f 399 392 395
o link2013
usemtl Material013
v 0.945676099 0.116345721 -0.451105879
v 0.945676099 0.076400518 -0.451105879
v 0.919045964 0.116345721 -0.517681217
v 0.799210356 0.076400518 -0.530996284
v 0.799210356 0.116345721 -0.451105879
v 0.892415829 0.009825180 -0.530996284
v 0.942898779 0.075731915 -0.496388587
v 0.893829831 0.159841388 -0.486048271
v 0.879100761 0.089715586 -0.530996284
v 0.799210356 0.009825180 -0.451105879
v 0.941470992 0.114603687 -0.491857791
v 0.825840491 0.156290923 -0.477736014
v 0.892415829 0.049770383 -0.530996284
v 0.839155559 0.156290923 -0.504366149
v 0.799166025 0.128557446 -0.476314658
v 0.799801617 0.009723685 -0.523614653
v 0.892415829 0.009825180 -0.451105879
v 0.892415829 0.156290923 -0.504366149
v 0.812525424 0.129660788 -0.517681217
v 0.825840491 0.156290923 -0.491051081
v 0.892415829 0.129660788 -0.517681217
v 0.825840491 0.089715586 -0.530996284
v 0.799210356 0.129660788 -0.504366149
v 0.812525424 0.142975856 -0.504366149
v 0.799210356 0.116345721 -0.517681217
f 404 401 400
f 406 400 401
f 406 405 402
f 406 401 405
f 408 405 403
f 409 401 404
f 410 406 402
f 410 400 406
f 410 407 400
f 411 404 400
f 411 400 407
f 412 408 402
f 412 402 405
f 412 405 408
f 414 409 404
f 414 403 409
f 414 404 411
f 415 409 403
f 415 403 405
f 416 405 401
f 416 401 409
f 416 415 405
f 416 409 415
f 417 410 402
f 417 407 410
f 417 413 407
f 418 413 417
f 419 411 407
f 419 407 413
f 420 417 402
f 420 402 408
f 420 418 417
f 420 408 418
f 421 418 408
f 421 408 403
f 421 403 418
f 422 414 411
f 423 419 413
f 423 413 418
f 423 418 422
f 423 422 411
f 423 411 419
f 424 422 418
f 424 418 403
f 424 403 414
f 424 414 422
o link2014
usemtl Material014
v 0.626114478 0.182921058 -0.317955203
v 0.626114478 0.063085450 -0.317955203
v 0.626114478 0.063085450 -0.384530541
v 0.505911977 0.193206020 -0.384426102
v 0.506278870 0.129660788 -0.304640136
v 0.612799410 0.196236126 -0.384530541
v 0.546224072 0.129660788 -0.304640136
v 0.506278870 0.196236126 -0.317955203
v 0.546224072 0.063085450 -0.384530541
v 0.625833894 0.180186555 -0.384436192
v 0.505965567 0.112109372 -0.307066680
v 0.626114478 0.196236126 -0.331270271
v 0.586169275 0.196236126 -0.317955203
v 0.506278870 0.116345721 -0.384530541
v 0.546224072 0.063085450 -0.317955203
v 0.626114478 0.196236126 -0.344585338
f 425 426 427
f 431 426 425
f 432 430 428
f 432 429 431
f 433 427 426
f 433 430 427
f 434 427 430
f 435 431 429
f 435 426 431
f 435 432 428
f 435 429 432
f 436 430 432
f 436 425 427
f 437 432 431
f 437 431 425
f 437 436 432
f 437 425 436
f 438 428 430
f 438 430 433
f 438 435 428
f 438 433 435
f 439 435 433
f 439 433 426
f 439 426 435
f 440 434 430
f 440 430 436
f 440 436 427
f 440 427 434
o link2015
usemtl Material015
v -0.079584942 -0.110010961 -0.232012061
v -0.078797765 -0.200836438 -0.232336658
v -0.077893317 -0.174253682 -0.512485979
v -0.159474508 -0.110010428 -0.517681217
v -0.239364913 -0.123325495 -0.317955203
v -0.079584103 -0.110010428 -0.477736014
v -0.075878309 -0.246350912 -0.472044160
v -0.199419711 -0.123325495 -0.224749730
v -0.239364913 -0.110010428 -0.317955203
v -0.159474508 -0.229846036 -0.331270271
v -0.132844373 -0.229846036 -0.491051081
v -0.119529305 -0.203215901 -0.224749730
v -0.239364913 -0.123325495 -0.464420946
v -0.228517106 -0.105351273 -0.460776563
v -0.199419711 -0.110010428 -0.224749730
v -0.079584103 -0.256476171 -0.317955203
v -0.199419711 -0.189900833 -0.317955203
v -0.092899170 -0.203215901 -0.517681217
v -0.199419711 -0.149955630 -0.491051081
v -0.199419711 -0.189900833 -0.464420946
v -0.142941100 -0.108794311 -0.506095149
v -0.212734778 -0.110010428 -0.491051081
v -0.092899170 -0.256476171 -0.317955203
v -0.079584103 -0.229846036 -0.264694933
v -0.226049846 -0.163270698 -0.331270271
v -0.186104643 -0.203215901 -0.317955203
v -0.079584103 -0.203215901 -0.517681217
v -0.172789576 -0.189900833 -0.491051081
v -0.146159440 -0.229846036 -0.477736014
v -0.212734778 -0.163270698 -0.477736014
v -0.159474508 -0.123325495 -0.517681217
v -0.106214238 -0.256476171 -0.331270271
v -0.092899170 -0.229846036 -0.264694933
v -0.239364913 -0.136640563 -0.331270271
v -0.239364913 -0.136640563 -0.424475744
v -0.092899170 -0.256476171 -0.477736014
v -0.172789576 -0.216530968 -0.424475744
v -0.212734778 -0.123325495 -0.491051081
v -0.172789576 -0.149955630 -0.504366149
v -0.212734778 -0.176585766 -0.424475744
v -0.226049846 -0.149955630 -0.464420946
v -0.106214238 -0.243161103 -0.491051081
v -0.132844373 -0.243161103 -0.424475744
v -0.186104643 -0.203215901 -0.464420946
v -0.226049846 -0.136640563 -0.477736014
v -0.106214238 -0.189900833 -0.517681217
v -0.226049846 -0.163270698 -0.344585338
v -0.106214238 -0.256476171 -0.397845609
v -0.159474508 -0.229846036 -0.357900406
f 446 443 444
f 447 441 442
f 447 446 441
f 447 443 446
f 449 445 448
f 452 442 441
f 453 445 449
f 454 453 449
f 454 441 446
f 455 449 448
f 455 454 449
f 455 441 454
f 455 452 441
f 455 448 452
f 456 447 442
f 457 452 448
f 461 454 446
f 461 446 444
f 461 444 454
f 462 454 444
f 462 453 454
f 464 456 442
f 464 442 452
f 464 463 456
f 465 457 448
f 466 457 450
f 466 450 452
f 466 452 457
f 467 458 444
f 467 444 443
f 467 443 447
f 468 458 451
f 468 451 460
f 469 460 451
f 470 468 460
f 470 459 468
f 471 462 444
f 471 444 458
f 472 463 452
f 472 452 450
f 472 456 463
f 473 464 452
f 473 452 463
f 473 463 464
f 474 465 448
f 474 448 445
f 474 445 453
f 475 474 453
f 475 465 474
f 476 467 447
f 476 469 451
f 476 447 456
f 476 456 472
f 477 450 457
f 477 457 460
f 478 459 470
f 478 462 471
f 478 453 462
f 479 468 459
f 479 478 471
f 479 459 478
f 480 475 460
f 480 460 457
f 480 457 465
f 481 470 460
f 481 460 475
f 481 475 453
f 481 453 470
f 482 476 451
f 482 451 458
f 482 458 467
f 482 467 476
f 483 472 450
f 483 469 476
f 483 477 469
f 484 477 460
f 484 460 469
f 484 469 477
f 485 478 470
f 485 470 453
f 485 453 478
f 486 479 471
f 486 471 458
f 486 458 468
f 486 468 479
f 487 480 465
f 487 465 475
f 487 475 480
f 488 483 476
f 488 476 472
f 488 472 483
f 489 483 450
f 489 450 477
f 489 477 483
o link2016
usemtl Material016
v 0.719319951 -0.003489887 -0.331270271
v 0.719319951 -0.203215901 -0.317955203
v 0.719319951 -0.083380293 -0.517681217
v 0.626116336 -0.003846334 -0.508616562
v 0.626114478 -0.003489887 -0.331270271
v 0.626114478 -0.203215901 -0.464420946
v 0.719326553 -0.003643792 -0.508813663
v 0.719319951 -0.203215901 -0.451105879
v 0.626114478 -0.149955630 -0.504366149
v 0.624646475 -0.205561515 -0.335700164
v 0.626114478 -0.083380293 -0.517681217
v 0.719319951 -0.163270698 -0.491051081
v 0.625672843 -0.199869970 -0.330300819
v 0.624315511 -0.203407931 -0.410695412
v 0.652744613 -0.216530968 -0.331270271
v 0.666059680 -0.189900833 -0.477736014
v 0.679374748 -0.149955630 -0.504366149
v 0.626107126 -0.149942090 -0.329972233
v 0.626114478 -0.176585766 -0.491051081
v 0.639429545 -0.216530968 -0.411160676
v 0.666059680 -0.203215901 -0.464420946
v 0.719319951 -0.136640563 -0.504366149
v 0.639429545 -0.176585766 -0.491051081
v 0.652744613 -0.216530968 -0.357900406
f 494 491 490
f 496 494 490
f 496 493 494
f 496 490 491
f 497 496 491
f 500 496 492
f 500 493 496
f 500 492 498
f 501 496 497
f 502 494 499
f 503 500 498
f 503 493 500
f 503 499 494
f 503 494 493
f 504 497 491
f 504 502 499
f 504 491 502
f 505 501 497
f 506 498 492
f 507 502 491
f 507 491 494
f 507 494 502
f 508 503 498
f 508 495 503
f 508 505 495
f 508 498 506
f 509 503 495
f 509 499 503
f 509 504 499
f 510 505 497
f 510 495 505
f 510 509 495
f 510 497 509
f 511 506 492
f 511 501 506
f 511 492 496
f 511 496 501
f 512 506 501
f 512 501 505
f 512 508 506
f 512 505 508
f 513 509 497
f 513 497 504
f 513 504 509
o link2017
usemtl Material017
v 0.093511776 0.209551194 -0.224749730
v 0.093511776 0.009825180 -0.231999993
v 0.092613335 0.255694770 -0.384254821
v -0.079584103 0.262811464 -0.384530541
v -0.079584805 0.009825422 -0.232013883
v 0.026936438 0.276126531 -0.331270271
v 0.093511776 0.009825180 -0.384530541
v -0.066269035 0.222866261 -0.224749730
v 0.093511776 0.262811464 -0.317955203
v 0.013621370 0.276126531 -0.357900406
v -0.079584103 0.009825180 -0.384530541
v -0.076289457 0.200281547 -0.231999993
v -0.079584103 0.262811464 -0.317955203
v 0.066881640 0.222866261 -0.224749730
v 0.026936438 0.276126531 -0.344585338
v -0.013008765 0.276126531 -0.331270271
v -0.013008765 0.276126531 -0.357900406
f 518 515 514
f 520 514 515
f 520 517 516
f 521 518 514
f 522 520 516
f 522 514 520
f 523 516 517
f 524 518 517
f 524 517 520
f 524 520 515
f 524 515 518
f 525 518 521
f 526 525 521
f 526 517 518
f 526 518 525
f 527 521 514
f 527 519 521
f 527 522 519
f 527 514 522
f 528 522 516
f 528 519 522
f 528 523 519
f 528 516 523
f 529 526 521
f 529 521 519
f 529 519 523
f 529 517 526
f 530 529 523
f 530 523 517
f 530 517 529
o link2018
usemtl Material018
v 0.772580221 0.103030653 -0.451105879
v 0.772580221 0.063085450 -0.451105879
v 0.772853470 0.062539644 -0.502200520
v 0.439541300 0.114417202 -0.495649004
v 0.439703532 0.116345721 -0.437790811
v 0.439703532 0.063085450 -0.437790811
v 0.772624114 0.099816846 -0.492801661
v 0.626114478 0.063085450 -0.437790811
v 0.626114478 0.116345721 -0.437790811
v 0.439702601 0.063068941 -0.504188782
v 0.625812634 0.113102365 -0.492123428
f 531 532 533
f 536 535 534
f 537 531 533
f 537 533 534
f 538 532 531
f 538 535 536
f 538 536 533
f 538 533 532
f 539 534 535
f 539 538 531
f 539 535 538
f 540 536 534
f 540 534 533
f 540 533 536
f 541 537 534
f 541 534 539
f 541 539 531
f 541 531 537
o link2019
usemtl Material019
v 0.200032316 -0.123325495 -0.384530541
v 0.200032316 -0.189900833 -0.384530541
v 0.200032316 -0.189900833 -0.451105879
v 0.013621370 -0.123325495 -0.451105879
v 0.013510446 -0.261383812 -0.384236228
v 0.200032316 -0.123325495 -0.451105879
v 0.159753172 -0.252705973 -0.384412949
v 0.013621370 -0.123325495 -0.384530541
v 0.013475476 -0.259061851 -0.450731182
v 0.093511776 -0.269791238 -0.451105879
v 0.159574173 -0.250638134 -0.450922597
v 0.120141911 -0.269791238 -0.384530541
v 0.120141911 -0.269791238 -0.411160676
v 0.106826843 -0.269791238 -0.437790811
f 542 543 544
f 547 542 544
f 547 544 545
f 547 545 542
f 548 543 542
f 548 542 546
f 548 544 543
f 549 546 542
f 549 542 545
f 550 549 545
f 550 546 549
f 551 550 545
f 551 545 544
f 551 546 550
f 552 551 544
f 552 544 548
f 553 548 546
f 553 546 551
f 554 552 548
f 554 548 553
f 554 553 551
f 555 554 551
f 555 551 552
f 555 552 554
o link2020
usemtl Material020
v -0.192263942 0.137849872 -0.294092702
v -0.159474508 0.089715586 -0.371215473
v -0.159474508 0.142975856 -0.371215473
v -0.172789576 0.142975856 -0.504366149
v -0.252679981 0.103030653 -0.451105879
v -0.154554824 0.139753499 -0.494695237
v -0.226049846 0.142975856 -0.317955203
v -0.159245143 0.089645923 -0.503577097
v -0.212734778 0.142975856 -0.291325068
v -0.226049846 0.142975856 -0.477736014
v -0.241005442 0.085843240 -0.448788521
v -0.219893930 0.087146592 -0.293346186
v -0.239364913 0.129660788 -0.317955203
v -0.239364913 0.089715586 -0.477736014
v -0.180464593 0.087582302 -0.494853833
v -0.199419711 0.089715586 -0.291325068
v -0.252679981 0.089715586 -0.317955203
v -0.239364913 0.129660788 -0.464420946
v -0.186104643 0.129660788 -0.504366149
v -0.226049846 0.116345721 -0.291325068
v -0.252679981 0.103030653 -0.317955203
v -0.239364913 0.103030653 -0.477736014
f 556 557 558
f 561 558 557
f 561 559 558
f 562 558 559
f 563 559 561
f 563 561 557
f 564 556 558
f 564 558 562
f 565 562 559
f 568 562 565
f 568 564 562
f 569 566 560
f 570 563 557
f 570 567 566
f 570 557 567
f 570 569 563
f 570 566 569
f 571 567 557
f 571 557 556
f 571 556 564
f 572 560 566
f 572 566 567
f 573 568 565
f 573 560 568
f 574 565 559
f 574 559 563
f 574 563 569
f 575 571 564
f 575 567 571
f 575 572 567
f 575 564 568
f 576 568 560
f 576 560 572
f 576 575 568
f 576 572 575
f 577 569 560
f 577 560 573
f 577 573 565
f 577 574 569
f 577 565 574
o link2021
usemtl Material021
v 0.759265153 0.103030653 -0.278010001
v 0.805493080 0.073491729 -0.306818344
v 0.799196058 0.103041816 -0.329986008
v 0.546199170 0.115942838 -0.318189942
v 0.546224072 0.063085450 -0.278010001
v 0.626114478 0.116345721 -0.291325068
v 0.759265153 0.063085450 -0.278010001
v 0.626114478 0.063085450 -0.331270271
v 0.625984431 0.112717824 -0.320166835
v 0.546224072 0.116345721 -0.291325068
v 0.785895288 0.076400518 -0.291325068
v 0.794081014 0.065601123 -0.327550748
v 0.785049529 0.061239761 -0.294657513
v 0.546224072 0.063085450 -0.317955203
v 0.626114478 0.103030653 -0.331270271
v 0.545908047 0.098075630 -0.288910646
v 0.800682036 0.062124445 -0.305206551
f 578 579 580
f 583 578 580
f 584 578 582
f 586 583 580
f 586 580 581
f 586 581 583
f 587 582 578
f 587 578 583
f 587 583 581
f 588 579 578
f 588 578 584
f 589 585 580
f 589 580 579
f 590 584 582
f 590 588 584
f 591 581 585
f 591 590 582
f 591 585 590
f 592 585 581
f 592 581 580
f 592 580 585
f 593 587 581
f 593 582 587
f 593 591 582
f 593 581 591
f 594 590 585
f 594 585 589
f 594 589 579
f 594 579 588
f 594 588 590
o link2022
usemtl Material022
v 1.038881572 -0.123325495 -0.278010001
v 1.052196640 -0.136640563 -0.291325068
v 1.044809202 -0.119074596 -0.441165217
v 1.025566504 -0.136640563 -0.464420946
v 0.972306234 -0.189900833 -0.317955203
v 1.052196640 -0.163270698 -0.437790811
v 0.972052494 -0.121373286 -0.284046323
v 1.049912234 -0.120322018 -0.295804065
v 1.012251437 -0.149955630 -0.278010001
v 1.038881572 -0.123325495 -0.464420946
v 0.971545039 -0.184234081 -0.424272264
v 1.038881572 -0.176585766 -0.317955203
v 1.052196640 -0.136640563 -0.451105879
v 1.038881572 -0.136640563 -0.278010001
v 0.972306234 -0.149955630 -0.278010001
v 1.038881572 -0.163270698 -0.451105879
v 0.972306234 -0.123325495 -0.424475744
v 1.052196640 -0.163270698 -0.317955203
v 1.012251437 -0.189900833 -0.424475744
v 1.012251437 -0.189900833 -0.317955203
v 1.038881572 -0.136640563 -0.464420946
v 1.025566504 -0.163270698 -0.451105879
v 1.020918121 -0.119928386 -0.457179377
v 1.038881572 -0.176585766 -0.437790811
f 602 595 596
f 602 601 595
f 602 597 601
f 605 599 601
f 607 597 602
f 607 604 597
f 607 602 596
f 607 596 600
f 608 596 595
f 608 595 603
f 608 606 596
f 609 601 599
f 609 599 603
f 609 603 595
f 609 595 601
f 610 607 600
f 611 605 601
f 611 598 605
f 612 606 600
f 612 600 596
f 612 596 606
f 613 599 605
f 614 603 599
f 614 613 606
f 614 599 613
f 614 608 603
f 614 606 608
f 615 610 598
f 615 598 604
f 615 604 607
f 615 607 610
f 616 605 598
f 616 598 610
f 616 613 605
f 616 610 613
f 617 611 601
f 617 601 597
f 617 597 604
f 617 604 598
f 617 598 611
f 618 600 606
f 618 606 613
f 618 613 610
f 618 610 600
o link2023
usemtl Material023
v -0.106214238 0.209551194 -0.224749730
v -0.079584103 0.142975856 -0.231999993
v -0.079584103 0.249496396 -0.491051081
v -0.172789576 0.156290923 -0.504366149
v -0.226049846 0.142975856 -0.317955203
v -0.079584103 0.142975856 -0.477736014
v -0.079584103 0.262811464 -0.331270271
v -0.172789576 0.156290923 -0.224749730
v -0.172789576 0.209551194 -0.477736014
v -0.079584103 0.222866261 -0.504366149
v -0.206536736 0.140153391 -0.466854494
v -0.076289457 0.200281547 -0.231999993
v -0.159474508 0.222866261 -0.317955203
v -0.167552149 0.138646699 -0.234895304
v -0.119529305 0.249496396 -0.437790811
v -0.143755108 0.141359530 -0.499573268
v -0.132844373 0.236181329 -0.491051081
v -0.212734778 0.169605991 -0.477736014
v -0.075909058 0.250498595 -0.357466409
v -0.092899170 0.262811464 -0.331270271
v -0.146159440 0.182921058 -0.224749730
v -0.226049846 0.156290923 -0.317955203
v -0.146159440 0.236181329 -0.411160676
v -0.078065791 0.207177069 -0.499029713
v -0.172789576 0.142975856 -0.504366149
v -0.106214238 0.222866261 -0.504366149
v -0.106214238 0.249496396 -0.477736014
v -0.159474508 0.209551194 -0.491051081
v -0.226049846 0.142975856 -0.464420946
v -0.146159440 0.236181329 -0.331270271
v -0.092899170 0.262811464 -0.357900406
v -0.159474508 0.222866261 -0.464420946
v -0.092899170 0.249496396 -0.491051081
v -0.226049846 0.156290923 -0.464420946
f 626 620 619
f 630 625 619
f 630 619 620
f 630 620 624
f 632 626 623
f 632 620 626
f 632 623 629
f 632 624 620
f 634 632 629
f 634 624 632
f 636 627 635
f 637 621 625
f 637 625 630
f 638 619 625
f 639 631 626
f 639 626 619
f 639 619 631
f 640 623 626
f 640 626 631
f 640 631 636
f 641 633 635
f 642 634 628
f 642 624 634
f 642 628 621
f 642 621 637
f 642 637 630
f 642 630 624
f 643 622 628
f 643 628 634
f 643 634 629
f 643 636 622
f 644 621 628
f 644 628 622
f 644 622 635
f 645 635 633
f 646 636 635
f 646 635 622
f 646 622 636
f 647 629 623
f 647 623 640
f 647 643 629
f 647 636 643
f 648 631 619
f 648 619 638
f 648 638 641
f 648 641 636
f 648 636 631
f 649 638 625
f 649 625 621
f 649 645 633
f 649 641 638
f 649 633 641
f 650 641 635
f 650 635 627
f 650 627 636
f 650 636 641
f 651 644 635
f 651 621 644
f 651 635 645
f 651 649 621
f 651 645 649
f 652 647 640
f 652 640 636
f 652 636 647
o link2024
usemtl Material024
v 0.796740964 0.057218290 -0.295785096
v 0.806086056 -0.066392478 -0.297819344
v 0.794081014 0.065601123 -0.327550748
v 0.626114478 0.063085450 -0.331270271
v 0.626114478 -0.056750158 -0.278010001
v 0.719320134 -0.149956848 -0.329968120
v 0.626114542 0.063114339 -0.291672612
v 0.759265153 -0.110010428 -0.278010001
v 0.799211876 -0.096694364 -0.329991331
v 0.626107126 -0.149942090 -0.329972233
v 0.759265153 -0.070065225 -0.278010001
v 0.759266842 -0.136640204 -0.329983142
v 0.759265153 -0.123325495 -0.291325068
v 0.625182220 -0.114860546 -0.286852025
v 0.692689816 -0.056750158 -0.278010001
v 0.626114478 -0.136640563 -0.291325068
v 0.706004883 -0.123325495 -0.278010001
v 0.652744613 -0.136640563 -0.291325068
f 653 654 655
f 659 653 655
f 659 655 656
f 661 655 654
f 661 656 655
f 662 656 658
f 663 653 659
f 663 657 660
f 663 660 654
f 663 654 653
f 664 658 656
f 664 656 661
f 665 661 654
f 665 654 660
f 665 664 661
f 665 658 664
f 666 659 656
f 666 656 662
f 666 657 659
f 667 663 659
f 667 659 657
f 667 657 663
f 668 662 658
f 668 666 662
f 669 660 657
f 669 657 666
f 669 666 668
f 669 665 660
f 669 658 665
f 670 669 668
f 670 668 658
f 670 658 669
o link2025
usemtl Material025
v 1.066497983 0.116811178 -0.425694370
v 1.072151988 -0.086013972 -0.432224712
v 1.065511707 0.076400518 -0.464420946
v 0.985621302 0.116345721 -0.491051081
v 0.971545039 -0.184234081 -0.424272264
v 0.985621302 -0.136640563 -0.491051081
v 1.052196640 0.116345721 -0.464420946
v 1.065511707 0.116345721 -0.451105879
v 1.021515264 -0.168661624 -0.424165235
v 0.972306234 0.116345721 -0.424475744
v 1.065511707 -0.070065225 -0.464420946
v 1.012251437 -0.043435090 -0.491051081
v 0.968902425 0.115035627 -0.481983583
v 0.998936369 0.103030653 -0.491051081
v 1.025566504 0.116345721 -0.477736014
v 1.056214767 -0.125637617 -0.429882604
v 0.985621302 -0.189900833 -0.464420946
v 0.998936369 -0.110010428 -0.491051081
v 0.972306234 -0.136640563 -0.491051081
v 1.012251437 0.049770383 -0.491051081
v 1.038881572 0.076400518 -0.477736014
v 1.052196640 -0.110010428 -0.464420946
v 1.012251437 -0.189900833 -0.424475744
v 1.038881572 -0.070065225 -0.477736014
v 0.972306234 -0.189900833 -0.464420946
v 1.025566504 -0.123325495 -0.477736014
v 1.025566504 -0.176585766 -0.437790811
v 1.025566504 -0.149955630 -0.464420946
v 1.012251437 -0.189900833 -0.437790811
f 678 671 672
f 678 672 673
f 678 677 671
f 678 673 677
f 680 671 674
f 680 679 671
f 680 675 679
f 681 673 672
f 682 676 674
f 683 680 674
f 683 675 680
f 684 682 674
f 685 674 671
f 685 671 677
f 685 684 674
f 686 672 671
f 686 671 679
f 688 676 682
f 689 676 687
f 689 683 674
f 689 674 676
f 690 682 684
f 691 684 685
f 691 690 684
f 691 682 690
f 691 673 681
f 691 685 677
f 691 677 673
f 692 681 672
f 692 672 686
f 693 679 675
f 693 686 679
f 694 688 682
f 694 691 681
f 694 682 691
f 695 675 683
f 695 683 689
f 695 689 687
f 695 693 675
f 695 687 693
f 696 687 676
f 696 676 688
f 696 688 694
f 696 694 681
f 696 681 692
f 697 692 686
f 697 686 693
f 698 696 692
f 698 687 696
f 698 692 697
f 699 697 693
f 699 693 687
f 699 698 697
f 699 687 698
o link2026
usemtl Material026
v 0.279922721 -0.123325495 -0.451105879
v 0.279397928 -0.237182378 -0.445173097
v 0.279922721 -0.176585766 -0.504366149
v 0.093588876 -0.123049008 -0.542206691
v 0.093511776 -0.123325495 -0.451105879
v 0.093511776 -0.243161103 -0.517681217
v 0.279892518 -0.122776374 -0.500378717
v 0.279922721 -0.243161103 -0.464420946
v 0.160087113 -0.163270698 -0.544311352
v 0.092486934 -0.171824715 -0.532279361
v 0.093467498 -0.255849226 -0.451083674
v 0.218989648 -0.119239484 -0.524493514
v 0.160087113 -0.203215901 -0.530996284
v 0.093511776 -0.216530968 -0.530996284
v 0.211804929 -0.245700052 -0.445888527
v 0.093511776 -0.256476171 -0.491051081
v 0.186717248 -0.136640563 -0.544311352
v 0.106826843 -0.243161103 -0.517681217
v 0.279922721 -0.229846036 -0.477736014
v 0.186717248 -0.189900833 -0.530996284
v 0.133456978 -0.176585766 -0.544311352
v 0.213347384 -0.256476171 -0.464420946
v 0.183893504 -0.120861909 -0.533111702
v 0.226662451 -0.136640563 -0.530996284
v 0.120141911 -0.216530968 -0.530996284
v 0.266607654 -0.189900833 -0.504366149
v 0.213347384 -0.163270698 -0.530996284
v 0.106826843 -0.256476171 -0.491051081
f 704 701 700
f 706 700 702
f 707 700 701
f 707 702 700
f 709 704 703
f 710 704 709
f 711 704 700
f 711 700 706
f 711 703 704
f 713 705 709
f 713 709 703
f 714 701 704
f 714 704 710
f 715 710 709
f 715 709 705
f 717 705 713
f 717 715 705
f 718 702 707
f 718 717 712
f 718 707 717
f 719 712 708
f 719 718 712
f 719 708 716
f 720 708 712
f 720 713 703
f 720 716 708
f 720 703 716
f 721 714 710
f 721 707 701
f 721 701 714
f 721 710 715
f 721 717 707
f 722 716 703
f 722 703 711
f 722 711 716
f 723 716 711
f 723 711 706
f 723 706 702
f 724 717 713
f 724 712 717
f 724 720 712
f 724 713 720
f 725 719 702
f 725 702 718
f 725 718 719
f 726 719 716
f 726 702 719
f 726 723 702
f 726 716 723
f 727 721 715
f 727 715 717
f 727 717 721
o link2027
usemtl Material027
v 0.972059898 0.115329814 -0.281969949
v 0.972306234 -0.189900833 -0.317955203
v 0.972306234 0.116345721 -0.397845609
v 0.799210356 0.116345721 -0.397845609
v 0.799210356 -0.056750158 -0.278010001
v 0.971671049 -0.185172171 -0.397675813
v 0.839155559 0.116345721 -0.278010001
v 0.972306234 -0.149955630 -0.278010001
v 0.797307303 -0.178126250 -0.397424619
v 0.799182726 0.116392388 -0.329970722
v 0.892415829 -0.189900833 -0.317955203
v 0.799210356 0.049770383 -0.278010001
v 0.958991167 -0.163270698 -0.278010001
v 0.797515177 -0.179669791 -0.335288379
v 0.812525424 0.116345721 -0.291325068
v 0.799210356 0.089715586 -0.291325068
v 0.865785694 -0.136640563 -0.278010001
v 0.825840491 0.103030653 -0.278010001
v 0.799210356 -0.096695360 -0.291325068
v 0.879100761 -0.163270698 -0.291325068
v 0.812525424 -0.083380293 -0.278010001
v 0.945676099 -0.163270698 -0.278010001
v 0.892415829 -0.149955630 -0.278010001
f 733 730 729
f 733 731 730
f 734 728 730
f 735 729 730
f 735 730 728
f 735 734 732
f 735 728 734
f 736 731 733
f 737 734 730
f 737 730 731
f 737 731 736
f 738 736 733
f 738 733 729
f 739 732 734
f 740 738 729
f 740 729 735
f 740 735 732
f 741 736 738
f 741 732 739
f 741 737 736
f 742 734 737
f 743 741 739
f 743 737 741
f 743 742 737
f 743 739 742
f 744 740 732
f 745 742 739
f 745 739 734
f 745 734 742
f 746 732 741
f 746 741 744
f 747 744 741
f 747 741 738
f 748 746 744
f 748 744 732
f 748 732 746
f 749 747 738
f 749 738 740
f 749 740 744
f 750 749 744
f 750 744 747
f 750 747 749
o link2028
usemtl Material028
v 0.626114478 -0.056750158 -0.278010001
v 0.626114478 -0.136640563 -0.291325068
v 0.626114478 -0.043435090 -0.317955203
v 0.279922721 -0.043435090 -0.317955203
v 0.266607654 -0.163270698 -0.278010001
v 0.599483685 -0.149948431 -0.329968567
v 0.599478111 -0.043583984 -0.293116507
v 0.572854208 -0.136640563 -0.278010001
v 0.253292586 -0.070065225 -0.278010001
v 0.625856087 -0.134109927 -0.319430494
v 0.252786191 -0.162349430 -0.318329178
v 0.599484343 -0.149955630 -0.304640136
v 0.626107927 -0.043591630 -0.293208499
v 0.625182220 -0.114860546 -0.286852025
v 0.279923029 -0.043560683 -0.293760871
v 0.626114478 -0.070065225 -0.317955203
v 0.439703532 -0.163270698 -0.304640136
v 0.253292586 -0.123325495 -0.317955203
v 0.248719668 -0.161190548 -0.282303586
v 0.439703532 -0.056750158 -0.278010001
v 0.253294478 -0.070104919 -0.291821592
f 751 752 753
f 756 754 753
f 758 751 755
f 759 755 751
f 760 756 753
f 760 752 756
f 762 756 752
f 762 758 755
f 762 752 758
f 763 757 751
f 763 751 753
f 763 753 757
f 764 758 752
f 764 752 751
f 764 751 758
f 765 754 759
f 765 757 753
f 765 753 754
f 766 760 753
f 766 753 752
f 766 752 760
f 767 761 756
f 767 755 761
f 767 762 755
f 767 756 762
f 768 754 756
f 768 756 761
f 769 761 755
f 769 755 759
f 769 768 761
f 770 765 759
f 770 759 751
f 770 751 757
f 770 757 765
f 771 759 754
f 771 754 768
f 771 769 759
f 771 768 769
o link2029
usemtl Material029
v 0.799210356 0.169605991 -0.317955203
v 0.799196058 0.103041816 -0.329986008
v 0.809277562 0.108478256 -0.502460480
v 0.626114478 0.129660788 -0.504366149
v 0.625868079 0.097755979 -0.294367702
v 0.732635018 0.182921058 -0.451105879
v 0.751921547 0.096355867 -0.306381613
v 0.625967288 0.100851847 -0.495301782
v 0.799210356 0.169605991 -0.464420946
v 0.626114478 0.182921058 -0.317955203
v 0.759265153 0.116345721 -0.304640136
v 0.803407523 0.099959350 -0.502801519
v 0.652454682 0.096824098 -0.294905247
v 0.772580221 0.182921058 -0.331270271
v 0.745950086 0.142975856 -0.491051081
v 0.652744613 0.116345721 -0.291325068
v 0.625400889 0.176079549 -0.444367183
v 0.639429545 0.129660788 -0.504366149
v 0.772580221 0.182921058 -0.357900406
v 0.719319951 0.182921058 -0.317955203
v 0.799210356 0.156290923 -0.477736014
v 0.626114478 0.116345721 -0.291325068
v 0.745950086 0.182921058 -0.424475744
f 772 773 774
f 780 772 774
f 780 775 777
f 782 778 773
f 782 773 772
f 783 774 773
f 783 773 778
f 783 778 779
f 783 779 775
f 784 779 778
f 784 776 779
f 785 772 780
f 785 777 781
f 787 776 784
f 787 782 772
f 787 784 778
f 787 778 782
f 788 781 777
f 788 777 775
f 788 775 779
f 788 779 776
f 788 776 781
f 789 783 775
f 789 774 783
f 789 786 774
f 789 775 780
f 790 785 780
f 790 777 785
f 791 785 781
f 791 772 785
f 791 787 772
f 791 781 787
f 792 780 774
f 792 774 786
f 792 789 780
f 792 786 789
f 793 787 781
f 793 781 776
f 793 776 787
f 794 790 780
f 794 780 777
f 794 777 790
o link2030
usemtl Material030
v 0.892415829 0.009825180 -0.397845609
v 0.895804296 -0.178361899 -0.397459863
v 0.892415829 0.009825180 -0.530996284
v 0.799801617 0.009723685 -0.523614653
v 0.797307303 -0.178126250 -0.397424619
v 0.799210356 0.009825180 -0.397845609
v 0.896044719 -0.177543172 -0.424062628
v 0.799210356 -0.189900833 -0.437790811
v 0.812525424 -0.189900833 -0.437790811
v 0.799210356 -0.083380293 -0.530996284
v 0.799210356 -0.136640563 -0.504366149
v 0.799210356 -0.176585766 -0.464420946
v 0.892415829 -0.163270698 -0.504366149
v 0.825840491 -0.136640563 -0.517681217
v 0.879100761 -0.083380293 -0.530996284
v 0.892415829 -0.043435090 -0.530996284
v 0.865785694 -0.176585766 -0.491051081
v 0.865785694 -0.136640563 -0.517681217
v 0.892415829 -0.123325495 -0.517681217
v 0.852470626 -0.163270698 -0.504366149
f 799 796 795
f 800 795 797
f 800 797 798
f 800 799 795
f 800 798 799
f 801 795 796
f 801 797 795
f 802 796 799
f 803 801 796
f 803 796 802
f 804 799 798
f 804 798 797
f 805 799 804
f 806 802 799
f 806 799 805
f 808 805 804
f 809 804 797
f 809 808 804
f 810 797 801
f 810 809 797
f 811 807 801
f 811 801 803
f 811 803 802
f 811 802 806
f 812 807 808
f 812 808 809
f 813 810 801
f 813 801 807
f 813 809 810
f 813 812 809
f 813 807 812
f 814 808 807
f 814 807 811
f 814 811 806
f 814 806 805
f 814 805 808
o link2031
usemtl Material031
v 0.279221231 0.218273604 -0.446309006
v 0.279922721 -0.123325495 -0.451105879
v 0.279922721 0.076400518 -0.517681217
v 0.213347384 0.116345721 -0.544311352
v 0.200032316 -0.123325495 -0.451105879
v 0.213347384 -0.123325495 -0.544311352
v 0.279922721 0.169605991 -0.504366149
v 0.238360720 0.228006922 -0.444525015
v 0.279922721 -0.096695360 -0.517681217
v 0.253292586 -0.030120022 -0.544311352
v 0.196798771 0.113771967 -0.531934729
v 0.253292586 0.036455315 -0.544311352
v 0.279922721 0.222866261 -0.464420946
v 0.279892518 -0.122776374 -0.500378717
v 0.239977519 -0.083380293 -0.544311352
v 0.200032316 -0.123325495 -0.544311352
v 0.200032316 0.222866261 -0.477736014
v 0.226662451 0.103030653 -0.544311352
v 0.239977519 0.236181329 -0.464420946
v 0.213347384 0.156290923 -0.530996284
v 0.197178795 0.228690462 -0.455528336
v 0.239977519 0.076400518 -0.544311352
v 0.279922721 0.209551194 -0.477736014
v 0.197890195 0.153281653 -0.518356479
v 0.226662451 0.222866261 -0.477736014
v 0.199490306 0.234308903 -0.449868577
v 0.266607654 0.196236126 -0.491051081
f 820 816 819
f 821 816 817
f 822 819 816
f 822 816 815
f 823 817 816
f 824 820 818
f 824 817 823
f 826 821 817
f 826 824 818
f 826 817 824
f 827 815 816
f 827 816 821
f 828 823 816
f 828 816 820
f 828 820 823
f 829 824 823
f 829 823 820
f 829 820 824
f 830 820 819
f 830 819 825
f 830 825 818
f 830 818 820
f 832 826 818
f 833 822 815
f 833 815 827
f 834 818 825
f 834 832 818
f 834 821 832
f 835 825 819
f 836 832 821
f 836 821 826
f 836 826 832
f 837 833 827
f 837 827 821
f 838 834 825
f 838 831 834
f 838 835 831
f 838 825 835
f 839 834 831
f 839 831 833
f 840 835 819
f 840 819 822
f 840 822 833
f 840 833 831
f 840 831 835
f 841 837 821
f 841 821 834
f 841 834 839
f 841 839 833
f 841 833 837
o link2032
usemtl Material032
v 1.065511707 0.116345721 -0.278010001
v 1.052196640 -0.123325495 -0.278010001
v 1.072151988 -0.086013972 -0.432224712
v 0.972306234 0.116345721 -0.424475744
v 0.972059898 0.115329814 -0.281969949
v 0.972306234 -0.123325495 -0.424475744
v 1.066497983 0.116811178 -0.425694370
v 1.062593203 -0.081221305 -0.289138534
v 1.056214767 -0.125637617 -0.429882604
v 0.972052494 -0.121373286 -0.284046323
f 846 843 842
f 846 842 845
f 847 845 844
f 848 842 844
f 848 844 845
f 848 845 842
f 849 842 843
f 849 843 844
f 849 844 842
f 850 847 844
f 850 844 843
f 851 843 846
f 851 846 845
f 851 845 847
f 851 850 843
f 851 847 850
o link2033
usemtl Material033
v -0.199419711 0.089715586 -0.291325068
v -0.199419711 0.009825180 -0.291325068
v -0.193284178 0.035643347 -0.494948647
v -0.212734778 0.036455315 -0.504366149
v -0.265995048 0.009825180 -0.317955203
v -0.196072203 0.088449429 -0.485405289
v -0.252679981 0.009825180 -0.291325068
v -0.212734778 0.009825180 -0.504366149
v -0.252679981 0.089715586 -0.464420946
v -0.255349752 0.009316376 -0.446784161
v -0.239364913 0.089715586 -0.291325068
v -0.194037137 0.009748068 -0.495993507
v -0.212734778 0.089715586 -0.491051081
v -0.252679981 0.009825180 -0.477736014
v -0.265995048 0.049770383 -0.451105879
v -0.265995048 0.036455315 -0.317955203
v -0.226049846 0.076400518 -0.491051081
v -0.252679981 0.049770383 -0.477736014
v -0.252679981 0.023140248 -0.291325068
v -0.265995048 0.063085450 -0.331270271
v -0.239364913 0.089715586 -0.477736014
v -0.252679981 0.089715586 -0.317955203
v -0.265995048 0.063085450 -0.397845609
f 852 853 854
f 857 852 854
f 857 854 855
f 858 853 852
f 861 858 856
f 861 853 858
f 862 858 852
f 862 852 860
f 863 854 853
f 863 861 859
f 863 853 861
f 863 859 855
f 863 855 854
f 864 860 852
f 864 852 857
f 864 857 855
f 865 855 859
f 865 859 861
f 866 861 856
f 866 865 861
f 867 856 858
f 867 866 856
f 868 864 855
f 869 866 860
f 869 865 866
f 869 868 855
f 869 855 865
f 870 867 858
f 870 858 862
f 870 862 867
f 871 867 862
f 871 866 867
f 872 860 864
f 872 864 868
f 872 869 860
f 872 868 869
f 873 871 862
f 873 862 860
f 873 860 871
f 874 871 860
f 874 860 866
f 874 866 871
o link2034
usemtl Material034
v 0.626114478 -0.043435090 -0.317955203
v 0.626114478 -0.216530968 -0.317955203
v 0.626114478 -0.043435090 -0.384530541
v 0.439703532 -0.043435090 -0.384530541
v 0.439703532 -0.229846036 -0.317955203
v 0.439703532 -0.043435090 -0.317955203
v 0.532909005 -0.229846036 -0.384530541
v 0.439373235 -0.226916131 -0.384428248
v 0.624442395 -0.204333519 -0.384098092
v 0.546224072 -0.229846036 -0.331270271
v 0.546224072 -0.229846036 -0.371215473
v 0.519593937 -0.229846036 -0.317955203
f 875 876 877
f 875 877 878
f 879 876 875
f 880 879 875
f 880 875 878
f 881 878 877
f 882 880 878
f 882 879 880
f 882 881 879
f 882 878 881
f 883 881 877
f 883 877 876
f 884 879 881
f 885 883 876
f 885 881 883
f 885 884 881
f 885 876 884
f 886 884 876
f 886 876 879
f 886 879 884
o link2035
usemtl Material035
v -0.078643203 0.215098307 -0.482914805
v -0.079584103 -0.176585766 -0.477736014
v -0.079584103 -0.149955630 -0.530996284
v -0.092899170 0.156290923 -0.530996284
v -0.164444531 0.146231184 -0.487505880
v -0.079584103 0.156290923 -0.530996284
v -0.076152532 0.191334937 -0.506678242
v -0.144438639 0.207791698 -0.474297458
v -0.146159440 -0.176585766 -0.504366149
v -0.077893317 -0.174253682 -0.512485979
v -0.106214238 0.196236126 -0.517681217
v -0.159474508 -0.110010428 -0.477736014
v -0.159474508 0.129660788 -0.517681217
v -0.119529305 -0.176585766 -0.517681217
v -0.078065791 0.207177069 -0.499029713
v -0.119529305 0.209551194 -0.504366149
v -0.148410366 -0.178584908 -0.482857581
v -0.132844373 -0.056750158 -0.530996284
v -0.132844373 0.169605991 -0.517681217
v -0.146159440 0.209551194 -0.491051081
v -0.159474508 -0.110010428 -0.517681217
v -0.106214238 0.209551194 -0.504366149
v -0.132844373 0.049770383 -0.530996284
v -0.146159440 0.182921058 -0.504366149
v -0.146159440 -0.149955630 -0.517681217
v -0.119529305 0.103030653 -0.530996284
v -0.092899170 -0.149955630 -0.530996284
v -0.119529305 -0.096695360 -0.530996284
f 892 889 890
f 893 887 888
f 893 889 892
f 894 888 887
f 896 893 888
f 896 889 893
f 897 892 890
f 898 894 891
f 898 888 894
f 900 889 896
f 900 896 888
f 901 893 892
f 901 892 897
f 901 887 893
f 903 888 898
f 903 900 888
f 903 895 900
f 904 890 889
f 905 897 890
f 905 890 899
f 905 902 897
f 906 899 891
f 906 891 894
f 906 894 887
f 906 887 902
f 906 902 905
f 907 898 891
f 907 891 899
f 907 903 898
f 907 895 903
f 907 899 904
f 908 901 897
f 908 897 902
f 908 902 887
f 908 887 901
f 909 904 899
f 909 890 904
f 910 906 905
f 910 905 899
f 910 899 906
f 911 900 895
f 911 895 907
f 911 907 904
f 912 909 899
f 912 899 890
f 912 890 909
f 913 889 900
f 913 900 911
f 913 904 889
f 914 913 911
f 914 911 904
f 914 904 913
o link2036
usemtl Material036
v 0.506278870 0.129660788 -0.304640136
v 0.505965567 0.112109372 -0.307066680
v 0.506278870 0.142975856 -0.504366149
v 0.439703532 0.142975856 -0.504366149
v 0.439662995 0.115809998 -0.304949385
v 0.506032114 0.114011557 -0.494453923
v 0.439703532 0.209551194 -0.317955203
v 0.439541300 0.114417202 -0.495649004
v 0.506278870 0.209551194 -0.331270271
v 0.438910531 0.119180667 -0.310689862
v 0.506278870 0.196236126 -0.317955203
v 0.439703532 0.209551194 -0.451105879
v 0.466333667 0.209551194 -0.317955203
v 0.506278870 0.196236126 -0.464420946
v 0.439703532 0.169605991 -0.491051081
v 0.479648735 0.209551194 -0.437790811
v 0.466333667 0.169605991 -0.491051081
v 0.466333667 0.209551194 -0.451105879
v 0.492963802 0.209551194 -0.397845609
v 0.492963802 0.182921058 -0.477736014
v 0.506278870 0.209551194 -0.344585338
f 919 916 915
f 920 915 916
f 920 917 915
f 921 919 915
f 922 918 917
f 922 917 920
f 922 920 916
f 922 916 919
f 923 915 917
f 924 922 919
f 924 919 921
f 925 915 923
f 926 921 923
f 926 924 921
f 927 925 923
f 927 923 921
f 927 921 915
f 927 915 925
f 928 923 917
f 929 918 922
f 929 922 924
f 929 924 926
f 929 926 928
f 929 917 918
f 930 926 923
f 931 929 928
f 931 917 929
f 932 930 928
f 932 928 926
f 932 926 930
f 933 930 923
f 933 928 930
f 934 931 928
f 934 928 917
f 934 917 931
f 935 933 923
f 935 923 928
f 935 928 933
o link2037
usemtl Material037
v 0.186717248 -0.136640563 -0.224749730
v 0.206245826 -0.170165682 -0.283270846
v 0.202007991 -0.123677101 -0.285159142
v -0.079584103 -0.123325495 -0.291325068
v -0.026323832 -0.229846036 -0.224749730
v 0.089224246 -0.219456718 -0.294827519
v 0.180563298 -0.119488724 -0.232939825
v 0.200032316 -0.149955630 -0.264694933
v 0.080196708 -0.216530968 -0.224749730
v 0.205197136 -0.170430574 -0.291605655
v -0.077266135 -0.223494092 -0.293435647
v 0.194188005 -0.119898553 -0.273691678
v -0.079584934 -0.123326165 -0.232011008
v 0.133456978 -0.189900833 -0.224749730
v 0.093511776 -0.229846036 -0.264694933
v -0.050231408 -0.231529041 -0.295081392
v -0.079584103 -0.216530968 -0.224749730
v 0.120141911 -0.216530968 -0.264694933
v 0.053566573 -0.243161103 -0.278010001
v -0.052953968 -0.243161103 -0.278010001
v -0.079584103 -0.229846036 -0.264694933
v 0.050805359 -0.231482458 -0.294925068
v 0.026936438 -0.229846036 -0.224749730
v -0.039638900 -0.243161103 -0.264694933
v 0.040251505 -0.243161103 -0.264694933
f 942 936 938
f 943 936 937
f 943 937 938
f 943 938 936
f 944 936 940
f 945 938 937
f 945 941 939
f 945 939 938
f 947 942 938
f 947 938 939
f 947 939 942
f 948 936 942
f 948 942 939
f 949 937 936
f 949 936 944
f 950 949 944
f 951 946 939
f 951 939 941
f 952 940 936
f 952 936 948
f 953 937 949
f 953 949 950
f 953 950 945
f 953 945 937
f 954 941 945
f 954 945 950
f 955 951 954
f 955 946 951
f 956 939 946
f 956 946 955
f 956 952 948
f 956 948 939
f 957 954 951
f 957 951 941
f 957 941 954
f 958 950 944
f 958 944 940
f 959 940 952
f 959 956 955
f 959 952 956
f 959 955 954
f 959 958 940
f 960 954 950
f 960 950 958
f 960 959 954
f 960 958 959
o link2038
usemtl Material038
v 0.158971220 0.242951734 -0.450893138
v 0.160087113 0.209551194 -0.451105879
v 0.106826843 0.222866261 -0.530996284
v -0.066269035 0.222866261 -0.517681217
v -0.079584103 0.209551194 -0.451105879
v -0.039638900 0.262811464 -0.504366149
v 0.160087113 0.222866261 -0.504366149
v 0.118244183 0.249651179 -0.450605264
v 0.014795065 0.204106952 -0.519241082
v 0.013621370 0.222866261 -0.530996284
v -0.079584103 0.262811464 -0.477736014
v 0.160087113 0.249496396 -0.477736014
v 0.156003785 0.204375300 -0.503946052
v -0.078065791 0.207177069 -0.499029713
v 0.106826843 0.249496396 -0.517681217
v -0.039638900 0.236181329 -0.517681217
v -0.066269035 0.209551194 -0.517681217
v -0.066269035 0.249496396 -0.504366149
v 0.120141911 0.262811464 -0.477736014
v -0.079584103 0.262811464 -0.451105879
v 0.105805185 0.204852555 -0.519145653
v 0.146772046 0.222866261 -0.517681217
v -0.079584103 0.222866261 -0.504366149
v 0.013621370 0.249496396 -0.517681217
v -0.066269035 0.262811464 -0.491051081
v 0.066881640 0.262811464 -0.504366149
v 0.145141278 0.206501665 -0.513966237
v 0.133456978 0.236181329 -0.517681217
v -0.079584103 0.249496396 -0.491051081
f 968 965 962
f 968 962 961
f 970 963 969
f 972 961 962
f 972 962 967
f 973 962 965
f 973 965 969
f 973 967 962
f 974 969 965
f 975 963 970
f 976 970 964
f 976 964 966
f 977 970 969
f 977 964 970
f 977 969 974
f 978 966 964
f 979 966 971
f 979 968 961
f 979 961 972
f 979 972 975
f 980 971 965
f 980 965 968
f 980 979 971
f 980 968 979
f 981 973 969
f 981 969 963
f 982 967 973
f 983 977 974
f 983 964 977
f 983 978 964
f 983 974 965
f 983 965 971
f 984 975 970
f 984 966 975
f 984 976 966
f 984 970 976
f 985 978 971
f 985 971 966
f 985 966 978
f 986 979 975
f 986 975 966
f 986 966 979
f 987 981 963
f 987 973 981
f 987 982 973
f 987 963 982
f 988 982 963
f 988 963 975
f 988 975 972
f 988 972 967
f 988 967 982
f 989 983 971
f 989 971 978
f 989 978 983
o link2039
usemtl Material039
v 0.799210356 -0.003489887 -0.331270271
v 0.797515177 -0.179669791 -0.335288379
v 0.799210356 -0.003489887 -0.451105879
v 0.719319951 -0.003489887 -0.451105879
v 0.717606866 -0.192116885 -0.335112954
v 0.799210356 -0.189900833 -0.451105879
v 0.745950086 -0.203215901 -0.331270271
v 0.719319951 -0.003489887 -0.331270271
v 0.718519264 -0.184650449 -0.446802637
v 0.717339669 -0.190125405 -0.410703547
v 0.732635018 -0.203215901 -0.411160676
v 0.745950086 -0.203215901 -0.357900406
f 990 992 993
f 995 990 991
f 995 992 990
f 995 993 992
f 996 991 990
f 996 995 991
f 997 990 993
f 997 996 990
f 997 994 996
f 998 993 995
f 999 997 993
f 999 994 997
f 999 993 998
f 1000 996 994
f 1000 994 999
f 1000 999 998
f 1000 998 995
f 1001 1000 995
f 1001 995 996
f 1001 996 1000
o link2040
usemtl Material040
v 0.013621370 0.209551194 -0.451105879
v 0.013621370 -0.189900833 -0.451105879
v 0.013621370 0.169605991 -0.544311352
v -0.052953968 0.196236126 -0.530996284
v -0.079584103 0.209551194 -0.451105879
v -0.079584103 -0.163270698 -0.530996284
v 0.014795065 0.204106952 -0.519241082
v 0.013621370 -0.163270698 -0.544311352
v -0.079584103 0.023140248 -0.544311352
v -0.079584103 -0.189900833 -0.451105879
v -0.026323832 0.209551194 -0.530996284
v 0.014025865 -0.187453024 -0.525665300
v -0.039638900 0.129660788 -0.544311352
v -0.066269035 -0.083380293 -0.544311352
v -0.079584103 0.209551194 -0.517681217
v 0.000306303 0.169605991 -0.544311352
v -0.052953968 -0.189900833 -0.530996284
v -0.079584103 0.169605991 -0.530996284
v -0.079584103 -0.016804955 -0.544311352
v -0.076405495 -0.185516614 -0.507914386
v 0.000306303 -0.163270698 -0.544311352
v -0.066269035 0.076400518 -0.544311352
v -0.052953968 -0.110010428 -0.544311352
f 1006 1003 1002
f 1008 1002 1003
f 1009 1004 1008
f 1010 1004 1009
f 1010 1007 1006
f 1011 1003 1006
f 1011 1006 1007
f 1012 1008 1004
f 1012 1006 1002
f 1012 1002 1008
f 1013 1009 1008
f 1013 1008 1003
f 1014 1004 1010
f 1015 1010 1009
f 1016 1010 1006
f 1016 1012 1005
f 1016 1006 1012
f 1017 1012 1004
f 1017 1005 1012
f 1017 1014 1005
f 1017 1004 1014
f 1018 1013 1003
f 1018 1003 1011
f 1018 1009 1013
f 1019 1005 1014
f 1019 1016 1005
f 1019 1010 1016
f 1020 1015 1007
f 1020 1007 1010
f 1020 1010 1015
f 1021 1018 1011
f 1021 1011 1007
f 1021 1007 1018
f 1022 1015 1009
f 1022 1009 1018
f 1023 1019 1014
f 1023 1014 1010
f 1023 1010 1019
f 1024 1007 1015
f 1024 1015 1022
f 1024 1022 1018
f 1024 1018 1007
o link2041
usemtl Material041
v -0.186104643 0.142975856 -0.224749730
v -0.159475347 -0.110010960 -0.232002824
v -0.159474508 0.142975856 -0.291325068
v -0.202289115 0.123571733 -0.295069022
v -0.239364913 -0.056750158 -0.264694933
v -0.199419711 0.142975856 -0.264694933
v -0.159474508 0.142975856 -0.231999993
v -0.226049846 -0.056750158 -0.224749730
v -0.159474508 -0.110010428 -0.291325068
v -0.192263942 0.137849872 -0.294092702
v -0.239364913 0.076400518 -0.278010001
v -0.226049846 -0.110010428 -0.278010001
v -0.199419711 -0.110010428 -0.224749730
v -0.212734778 0.129660788 -0.264694933
v -0.226049846 0.049770383 -0.224749730
v -0.227492450 -0.066844040 -0.295095194
v -0.212734778 -0.096695360 -0.224749730
v -0.239364913 0.076400518 -0.291325068
v -0.226049846 0.103030653 -0.264694933
v -0.239364913 0.049770383 -0.264694933
v -0.239364913 -0.070065225 -0.278010001
v -0.226049846 -0.110010428 -0.291325068
v -0.212734778 0.089715586 -0.224749730
f 1030 1025 1027
f 1031 1025 1026
f 1031 1027 1025
f 1033 1031 1026
f 1033 1027 1031
f 1033 1028 1027
f 1034 1030 1027
f 1034 1027 1028
f 1037 1026 1025
f 1037 1025 1032
f 1037 1036 1026
f 1038 1030 1034
f 1038 1025 1030
f 1039 1032 1025
f 1039 1029 1032
f 1040 1028 1033
f 1041 1037 1032
f 1041 1036 1037
f 1041 1032 1029
f 1042 1038 1034
f 1042 1034 1028
f 1042 1035 1038
f 1042 1028 1040
f 1042 1029 1035
f 1043 1038 1035
f 1043 1035 1039
f 1044 1039 1035
f 1044 1035 1029
f 1044 1029 1039
f 1045 1042 1040
f 1045 1029 1042
f 1045 1041 1029
f 1045 1036 1041
f 1046 1040 1033
f 1046 1045 1040
f 1046 1036 1045
f 1046 1033 1026
f 1046 1026 1036
f 1047 1043 1039
f 1047 1039 1025
f 1047 1025 1038
f 1047 1038 1043
o link2042
usemtl Material042
v 0.373128194 -0.043435090 -0.317955203
v 0.373128194 -0.243161103 -0.317955203
v 0.373128194 -0.043435090 -0.384530541
v 0.279922721 -0.043435090 -0.384530541
v 0.279922721 -0.243161103 -0.317955203
v 0.279844815 -0.242241309 -0.384498787
v 0.279922721 -0.043435090 -0.317955203
v 0.372214531 -0.233673548 -0.384229684
v 0.293237789 -0.256476171 -0.357900406
v 0.278803603 -0.243263489 -0.357444272
v 0.279922721 -0.256476171 -0.331270271
v 0.293237789 -0.256476171 -0.331270271
f 1048 1049 1050
f 1048 1050 1051
f 1052 1049 1048
f 1053 1051 1050
f 1054 1052 1048
f 1054 1048 1051
f 1055 1053 1050
f 1055 1050 1049
f 1056 1055 1049
f 1056 1053 1055
f 1057 1052 1054
f 1057 1054 1051
f 1057 1051 1053
f 1058 1049 1052
f 1058 1052 1057
f 1058 1057 1053
f 1058 1053 1056
f 1059 1058 1056
f 1059 1056 1049
f 1059 1049 1058
o link2043
usemtl Material043
v 0.144455443 -0.186848218 -0.292481495
v 0.160087113 -0.256476171 -0.317955203
v 0.160087113 -0.189900833 -0.384530541
v -0.079584103 -0.189900833 -0.384530541
v -0.079584103 -0.243161103 -0.291325068
v 0.133456978 -0.269791238 -0.384530541
v 0.155163985 -0.184078053 -0.306992916
v 0.080196708 -0.243161103 -0.291325068
v -0.079584103 -0.189900833 -0.291325068
v 0.159753172 -0.252705973 -0.384412949
v -0.052953968 -0.269791238 -0.384530541
v 0.160087113 -0.203215901 -0.304640136
v 0.093511776 -0.269791238 -0.317955203
v 0.133456978 -0.216530968 -0.291325068
v 0.146772046 -0.269791238 -0.344585338
v -0.077041649 -0.248969402 -0.384255208
v -0.039638900 -0.269791238 -0.317955203
v 0.146772046 -0.203215901 -0.291325068
v 0.146772046 -0.269791238 -0.331270271
v -0.066269035 -0.269791238 -0.331270271
v -0.079584103 -0.256476171 -0.317955203
v -0.066269035 -0.269791238 -0.357900406
f 1065 1063 1062
f 1066 1062 1063
f 1068 1063 1064
f 1068 1066 1063
f 1068 1060 1066
f 1068 1064 1067
f 1069 1065 1062
f 1069 1062 1061
f 1070 1063 1065
f 1071 1066 1060
f 1071 1061 1062
f 1071 1062 1066
f 1072 1067 1064
f 1072 1061 1067
f 1072 1070 1065
f 1073 1067 1061
f 1073 1068 1067
f 1074 1069 1061
f 1074 1065 1069
f 1074 1072 1065
f 1075 1063 1070
f 1076 1072 1064
f 1076 1070 1072
f 1077 1060 1068
f 1077 1068 1073
f 1077 1071 1060
f 1077 1073 1061
f 1077 1061 1071
f 1078 1074 1061
f 1078 1061 1072
f 1078 1072 1074
f 1079 1076 1064
f 1079 1070 1076
f 1080 1064 1063
f 1080 1063 1075
f 1080 1079 1064
f 1081 1075 1070
f 1081 1070 1079
f 1081 1080 1075
f 1081 1079 1080
o link2044
usemtl Material044
v 0.839300299 -0.123167654 -0.318022239
v 0.839155559 -0.176585766 -0.317955203
v 0.838466117 -0.172443025 -0.334245758
v 0.719319893 -0.136641481 -0.329957618
v 0.758209547 -0.096085518 -0.317999769
v 0.719246318 -0.189423770 -0.331846926
v 0.839154437 -0.136642532 -0.330000681
v 0.799210356 -0.189900833 -0.317955203
v 0.797515177 -0.179669791 -0.335288379
v 0.718227557 -0.126604278 -0.323728937
v 0.799211876 -0.096694364 -0.329991331
v 0.760624552 -0.097475909 -0.328915949
v 0.718754431 -0.186236893 -0.330236813
v 0.836914148 -0.125769795 -0.328062770
f 1086 1083 1082
f 1088 1082 1083
f 1088 1083 1084
f 1089 1084 1083
f 1089 1083 1086
f 1090 1087 1085
f 1090 1089 1087
f 1090 1084 1089
f 1091 1089 1086
f 1092 1086 1082
f 1092 1088 1084
f 1092 1084 1090
f 1093 1091 1086
f 1093 1085 1091
f 1093 1086 1092
f 1093 1092 1090
f 1093 1090 1085
f 1094 1091 1085
f 1094 1085 1087
f 1094 1087 1089
f 1094 1089 1091
f 1095 1092 1082
f 1095 1082 1088
f 1095 1088 1092
o link2045
usemtl Material045
v 0.200032316 0.209551194 -0.451105879
v 0.200032316 0.142975856 -0.451105879
v 0.173402181 0.156290923 -0.544311352
v 0.013621370 0.169605991 -0.544311352
v 0.013621370 0.142975856 -0.451105879
v 0.160087113 0.209551194 -0.530996284
v 0.200032316 0.182921058 -0.530996284
v 0.013621370 0.209551194 -0.451105879
v 0.170688175 0.139541576 -0.531994621
v 0.133456978 0.182921058 -0.544311352
v 0.200032316 0.209551194 -0.491051081
v 0.186717248 0.196236126 -0.530996284
v 0.014795065 0.204106952 -0.519241082
v 0.194984302 0.142785594 -0.524245083
v 0.014739701 0.141495783 -0.534221267
v 0.026936438 0.182921058 -0.544311352
v 0.160087113 0.169605991 -0.544311352
f 1100 1097 1096
f 1102 1096 1097
f 1103 1100 1096
f 1103 1099 1100
f 1103 1096 1101
f 1104 1097 1100
f 1105 1098 1099
f 1106 1101 1096
f 1106 1096 1102
f 1107 1102 1098
f 1107 1106 1102
f 1107 1101 1106
f 1107 1105 1101
f 1108 1103 1101
f 1108 1099 1103
f 1109 1102 1097
f 1109 1097 1104
f 1109 1104 1098
f 1109 1098 1102
f 1110 1104 1100
f 1110 1100 1099
f 1110 1099 1098
f 1110 1098 1104
f 1111 1105 1099
f 1111 1101 1105
f 1111 1108 1101
f 1111 1099 1108
f 1112 1107 1098
f 1112 1098 1105
f 1112 1105 1107
o link2046
usemtl Material046
v 0.186717248 0.142975856 -0.224749730
v 0.200032316 0.009825180 -0.231999993
v 0.200032316 0.129660788 -0.544311352
v 0.093511776 0.116345721 -0.557626419
v 0.093511776 0.009825180 -0.231999993
v 0.196231361 0.009512855 -0.545081506
v 0.093698135 0.142385671 -0.540004282
v 0.200032316 0.142975856 -0.264694933
v 0.200032316 0.116345721 -0.224749730
v 0.200032316 0.063085450 -0.557626419
v 0.093669445 0.009785990 -0.550072984
v 0.186717248 0.142975856 -0.544311352
v 0.093511776 0.142975856 -0.231999993
v 0.160087113 0.116345721 -0.557626419
v 0.194984302 0.142785594 -0.524245083
v 0.186717248 0.089715586 -0.557626419
f 1118 1114 1117
f 1120 1114 1115
f 1121 1117 1114
f 1121 1113 1117
f 1121 1120 1113
f 1121 1114 1120
f 1122 1115 1114
f 1122 1114 1118
f 1123 1118 1117
f 1123 1117 1116
f 1123 1122 1118
f 1123 1116 1122
f 1124 1116 1119
f 1124 1113 1120
f 1125 1117 1113
f 1125 1124 1119
f 1125 1113 1124
f 1125 1119 1116
f 1125 1116 1117
f 1126 1122 1116
f 1126 1116 1124
f 1126 1124 1115
f 1127 1124 1120
f 1127 1120 1115
f 1127 1115 1124
f 1128 1126 1115
f 1128 1115 1122
f 1128 1122 1126
o link2047
usemtl Material047
v -0.079584103 0.142975856 -0.231999993
v -0.079584942 -0.110010961 -0.232012061
v -0.079584103 0.142975856 -0.477736014
v -0.164444531 0.146231184 -0.487505880
v -0.159475347 -0.110010960 -0.232002824
v -0.079584103 -0.110010428 -0.477736014
v -0.159474508 0.142975856 -0.231999993
v -0.159474508 -0.110010428 -0.477736014
f 1129 1131 1132
f 1133 1130 1129
f 1134 1132 1131
f 1134 1129 1130
f 1134 1131 1129
f 1135 1133 1129
f 1135 1129 1132
f 1135 1132 1133
f 1136 1133 1132
f 1136 1132 1134
f 1136 1134 1130
f 1136 1130 1133
o link2048
usemtl Material048
v 0.626114542 0.063114339 -0.291672612
v 0.626107927 -0.043591630 -0.293208499
v 0.626114478 0.063085450 -0.384530541
v 0.439703532 0.063085450 -0.384530541
v 0.439704911 0.063129286 -0.291852683
v 0.439703532 -0.043435090 -0.384530541
v 0.626114478 -0.043435090 -0.384530541
v 0.439709055 -0.043608224 -0.293482382
f 1141 1138 1137
f 1141 1137 1139
f 1141 1139 1140
f 1142 1140 1139
f 1142 1141 1140
f 1143 1142 1139
f 1143 1137 1138
f 1143 1139 1137
f 1144 1138 1141
f 1144 1141 1142
f 1144 1143 1138
f 1144 1142 1143
o link2049
usemtl Material049
v 0.799211882 0.103029461 -0.329986039
v 0.799210356 -0.003489887 -0.331270271
v 0.799210356 0.103030653 -0.451105879
v 0.626114478 0.103030653 -0.451105879
v 0.626114478 -0.003489887 -0.331270271
v 0.719319951 -0.003489887 -0.451105879
v 0.626114478 0.103030653 -0.331270271
v 0.799210356 -0.003489887 -0.451105879
v 0.626114478 -0.003489887 -0.451105879
f 1149 1146 1145
f 1150 1148 1147
f 1150 1146 1149
f 1151 1149 1145
f 1151 1148 1149
f 1151 1145 1147
f 1151 1147 1148
f 1152 1150 1147
f 1152 1146 1150
f 1152 1145 1146
f 1152 1147 1145
f 1153 1150 1149
f 1153 1149 1148
f 1153 1148 1150
o link2050
usemtl Material050
v 0.439707521 0.009915406 -0.294588100
v 0.439709055 -0.043608224 -0.293482382
v 0.439703532 -0.043435090 -0.384530541
v 0.279922721 0.009825180 -0.384530541
v 0.279930473 0.009922572 -0.294847250
v 0.279922721 -0.043435090 -0.384530541
v 0.439703532 0.009825180 -0.384530541
v 0.279923029 -0.043560683 -0.293760871
f 1158 1155 1154
f 1159 1156 1155
f 1159 1157 1156
f 1160 1156 1157
f 1160 1158 1154
f 1160 1157 1158
f 1160 1154 1155
f 1160 1155 1156
f 1161 1159 1155
f 1161 1155 1158
f 1161 1158 1157
f 1161 1157 1159
o link2051
usemtl Material051
v 0.092613335 0.255694770 -0.384254821
v 0.093511776 0.142975856 -0.384530541
v 0.093511776 0.142975856 -0.451105879
v -0.079584103 0.262811464 -0.451105879
v -0.079584103 0.142975856 -0.384530541
v 0.092220313 0.253111434 -0.450720069
v -0.079584103 0.262811464 -0.384530541
v -0.079584103 0.142975856 -0.451105879
f 1162 1163 1164
f 1166 1163 1162
f 1166 1164 1163
f 1167 1162 1164
f 1167 1164 1165
f 1167 1165 1162
f 1168 1166 1162
f 1168 1162 1165
f 1168 1165 1166
f 1169 1166 1165
f 1169 1165 1164
f 1169 1164 1166
o link2052
usemtl Material052
v 0.200032316 0.009825180 -0.231999993
v 0.200032316 -0.123325495 -0.224749730
v 0.200032316 -0.123325495 -0.384530541
v -0.079584103 0.009825180 -0.384530541
v -0.079584805 0.009825422 -0.232013883
v 0.200032316 0.009825180 -0.384530541
v -0.079584934 -0.123326165 -0.232011008
v -0.079584103 -0.123325495 -0.384530541
f 1170 1171 1172
f 1174 1171 1170
f 1175 1170 1172
f 1175 1172 1173
f 1175 1174 1170
f 1175 1173 1174
f 1176 1172 1171
f 1176 1171 1174
f 1176 1174 1173
f 1177 1176 1173
f 1177 1173 1172
f 1177 1172 1176
o link2053
usemtl Material053
v 0.013621370 0.142975856 -0.384530541
v 0.013621370 -0.123325495 -0.384530541
v 0.013621370 0.142975856 -0.451105879
v -0.079584103 0.142975856 -0.451105879
v -0.079584103 -0.123325495 -0.384530541
v -0.079584103 -0.123325495 -0.451105879
v -0.079584103 0.142975856 -0.384530541
v 0.013621370 -0.123325495 -0.451105879
f 1178 1179 1180
f 1178 1180 1181
f 1182 1179 1178
f 1183 1181 1180
f 1183 1182 1181
f 1183 1179 1182
f 1184 1182 1178
f 1184 1178 1181
f 1184 1181 1182
f 1185 1183 1180
f 1185 1180 1179
f 1185 1179 1183
o link2054
usemtl Material054
v 0.013621370 -0.123325495 -0.291325068
v 0.013621370 -0.189900833 -0.291325068
v 0.013621370 -0.123325495 -0.451105879
v -0.079584103 -0.123325495 -0.451105879
v -0.079584103 -0.189900833 -0.291325068
v -0.079584103 -0.189900833 -0.451105879
v -0.079584103 -0.123325495 -0.291325068
v 0.013621370 -0.189900833 -0.451105879
f 1186 1187 1188
f 1186 1188 1189
f 1190 1187 1186
f 1191 1189 1188
f 1191 1190 1189
f 1191 1187 1190
f 1192 1190 1186
f 1192 1186 1189
f 1192 1189 1190
f 1193 1191 1188
f 1193 1188 1187
f 1193 1187 1191
o link2055
usemtl Material055
v 0.972306234 0.116345721 -0.397845609
v 0.972306234 0.009825180 -0.397845609
v 0.972306234 0.009825180 -0.451105879
v 0.799210356 0.116345721 -0.451105879
v 0.799210356 0.009825180 -0.397845609
v 0.972306234 0.116345721 -0.451105879
v 0.799210356 0.116345721 -0.397845609
v 0.799210356 0.009825180 -0.451105879
f 1194 1195 1196
f 1198 1195 1194
f 1198 1196 1195
f 1199 1194 1196
f 1199 1196 1197
f 1199 1197 1194
f 1200 1198 1194
f 1200 1194 1197
f 1200 1197 1198
f 1201 1198 1197
f 1201 1197 1196
f 1201 1196 1198
o link2056
usemtl Material056
v 0.202007991 -0.123677101 -0.285159142
v 0.205197136 -0.170430574 -0.291605655
v 0.200032316 -0.123325495 -0.384530541
v 0.013621370 -0.123325495 -0.384530541
v 0.013621370 -0.189900833 -0.291325068
v 0.013621370 -0.123325495 -0.291325068
v 0.173402181 -0.189900833 -0.291325068
v 0.200032316 -0.189900833 -0.384530541
v 0.013621370 -0.189900833 -0.384530541
v 0.199997402 -0.189880912 -0.329939140
f 1202 1203 1204
f 1207 1202 1204
f 1207 1204 1205
f 1207 1206 1202
f 1207 1205 1206
f 1208 1203 1202
f 1208 1202 1206
f 1209 1205 1204
f 1209 1208 1206
f 1209 1204 1203
f 1210 1209 1206
f 1210 1206 1205
f 1210 1205 1209
f 1211 1209 1203
f 1211 1203 1208
f 1211 1208 1209
o link2057
usemtl Material057
v 0.157586016 -0.186942685 -0.319150486
v 0.200032316 -0.256476171 -0.317955203
v 0.199997402 -0.189880912 -0.329939140
v 0.160087113 -0.189900833 -0.451105879
v 0.160087113 -0.256476171 -0.317955203
v 0.198602287 -0.246898098 -0.447693197
v 0.200032316 -0.189900833 -0.451105879
v 0.159574173 -0.250638134 -0.450922597
f 1212 1213 1214
f 1216 1213 1212
f 1218 1212 1214
f 1218 1215 1212
f 1218 1214 1213
f 1218 1213 1217
f 1219 1216 1212
f 1219 1212 1215
f 1219 1218 1217
f 1219 1215 1218
f 1219 1217 1213
f 1219 1213 1216
o link2058
usemtl Material058
v 0.719319951 0.063085450 -0.451105879
v 0.719319951 -0.003489887 -0.451105879
v 0.719319951 0.063085450 -0.517681217
v 0.626114478 0.063085450 -0.517681217
v 0.626114478 -0.003489887 -0.451105879
v 0.626116336 -0.003846334 -0.508616562
v 0.626114478 0.063085450 -0.451105879
v 0.719326553 -0.003643792 -0.508813663
f 1220 1222 1223
f 1224 1221 1220
f 1225 1224 1223
f 1225 1221 1224
f 1226 1224 1220
f 1226 1220 1223
f 1226 1223 1224
f 1227 1221 1225
f 1227 1220 1221
f 1227 1222 1220
f 1227 1225 1223
f 1227 1223 1222
o link2059
usemtl Material059
v 0.519593937 0.116345721 -0.278010001
v 0.546224072 0.063085450 -0.278010001
v 0.546224072 0.116345721 -0.384530541
v 0.439703532 0.116345721 -0.384530541
v 0.439703532 0.063085450 -0.278010001
v 0.532909005 0.063085450 -0.384530541
v 0.546224072 0.116345721 -0.291325068
v 0.439703532 0.116345721 -0.278010001
v 0.546224072 0.063085450 -0.384530541
v 0.439703532 0.063085450 -0.384530541
f 1228 1230 1231
f 1232 1229 1228
f 1233 1231 1230
f 1233 1229 1232
f 1234 1228 1229
f 1234 1229 1230
f 1234 1230 1228
f 1235 1232 1228
f 1235 1228 1231
f 1235 1231 1232
f 1236 1233 1230
f 1236 1230 1229
f 1236 1229 1233
f 1237 1233 1232
f 1237 1232 1231
f 1237 1231 1233
o link2060
usemtl Material060
v 0.200032316 0.009825180 -0.384530541
v 0.200032316 -0.123325495 -0.384530541
v 0.200032316 -0.070065225 -0.557626419
v 0.093669445 0.009785990 -0.550072984
v 0.093511776 0.009825180 -0.384530541
v 0.093588876 -0.123049008 -0.542206691
v 0.196231361 0.009512855 -0.545081506
v 0.200032316 -0.123325495 -0.544311352
v 0.093511776 -0.110010428 -0.557626419
v 0.093511776 -0.123325495 -0.384530541
v 0.106826843 -0.123325495 -0.557626419
v 0.173402181 -0.110010428 -0.557626419
v 0.146772046 -0.123325495 -0.557626419
f 1238 1239 1240
f 1242 1239 1238
f 1242 1238 1241
f 1244 1238 1240
f 1244 1240 1241
f 1244 1241 1238
f 1245 1240 1239
f 1246 1241 1240
f 1246 1242 1241
f 1247 1239 1242
f 1247 1246 1243
f 1247 1242 1246
f 1247 1245 1239
f 1248 1243 1246
f 1248 1247 1243
f 1248 1245 1247
f 1248 1246 1240
f 1249 1248 1240
f 1249 1240 1245
f 1250 1249 1245
f 1250 1245 1248
f 1250 1248 1249
o link2061
usemtl Material061
v 0.439703532 0.009825180 -0.384530541
v 0.439703532 -0.110010428 -0.384530541
v 0.439703532 -0.096695360 -0.517681217
v 0.279888500 0.009579091 -0.508581181
v 0.279922721 0.009825180 -0.384530541
v 0.279906148 -0.109709111 -0.502178144
v 0.439695917 0.009517574 -0.508187731
v 0.439682972 -0.109548246 -0.501286128
v 0.279922721 -0.096695360 -0.517681217
v 0.279922721 -0.110010428 -0.384530541
v 0.279922721 -0.110010428 -0.397845609
f 1251 1252 1253
f 1255 1252 1251
f 1255 1251 1254
f 1257 1251 1253
f 1257 1253 1254
f 1257 1254 1251
f 1258 1256 1253
f 1258 1253 1252
f 1258 1252 1256
f 1259 1256 1254
f 1259 1254 1253
f 1259 1253 1256
f 1260 1252 1255
f 1260 1255 1254
f 1260 1254 1256
f 1261 1260 1256
f 1261 1256 1252
f 1261 1252 1260
o link2062
usemtl Material062
v 0.439703532 -0.043435090 -0.317955203
v 0.439703532 -0.110010428 -0.317955203
v 0.439703532 -0.043435090 -0.384530541
v 0.373128194 -0.043435090 -0.384530541
v 0.373128194 -0.110010428 -0.317955203
v 0.373128194 -0.110010428 -0.384530541
v 0.373128194 -0.043435090 -0.317955203
v 0.439703532 -0.110010428 -0.384530541
f 1262 1263 1264
f 1262 1264 1265
f 1266 1263 1262
f 1267 1265 1264
f 1267 1266 1265
f 1267 1263 1266
f 1268 1266 1262
f 1268 1262 1265
f 1268 1265 1266
f 1269 1267 1264
f 1269 1264 1263
f 1269 1263 1267
o link2063
usemtl Material063
v 0.625833894 0.180186555 -0.384436192
v 0.626114478 0.116345721 -0.384530541
v 0.626114478 0.129660788 -0.504366149
v 0.506278870 0.156290923 -0.491051081
v 0.505911977 0.193206020 -0.384426102
v 0.506032114 0.114011557 -0.494453923
v 0.586169275 0.196236126 -0.451105879
v 0.626114478 0.182921058 -0.464420946
v 0.598136455 0.183039869 -0.384069718
v 0.625812634 0.113102365 -0.492123428
v 0.505436325 0.189218009 -0.444160424
v 0.506278870 0.116345721 -0.384530541
v 0.599484343 0.196236126 -0.424475744
v 0.586169275 0.156290923 -0.491051081
v 0.505958203 0.126627476 -0.491484925
v 0.626114478 0.169605991 -0.477736014
f 1275 1273 1272
f 1277 1270 1271
f 1277 1271 1272
f 1278 1271 1270
f 1278 1270 1274
f 1279 1275 1272
f 1279 1272 1271
f 1280 1276 1273
f 1280 1274 1276
f 1281 1280 1275
f 1281 1274 1280
f 1281 1278 1274
f 1281 1271 1278
f 1281 1279 1271
f 1281 1275 1279
f 1282 1276 1274
f 1282 1274 1270
f 1282 1277 1276
f 1282 1270 1277
f 1283 1272 1273
f 1284 1280 1273
f 1284 1273 1275
f 1284 1275 1280
f 1285 1277 1272
f 1285 1272 1283
f 1285 1276 1277
f 1285 1283 1273
f 1285 1273 1276
