mtllib decomp.mtl
o link6000
usemtl Material000
v -0.030636386 0.029434959 0.000000000
v -0.030636386 0.016219263 0.000000000
v -0.030636386 0.029434959 -0.024000000
v -0.047456362 0.029434959 -0.024600714
v -0.055866351 0.023427824 0.000000000
v -0.030636386 0.016219263 -0.024000000
v -0.046254936 0.029434959 0.000000000
v -0.053463497 0.016219263 -0.023399287
v -0.055866351 0.023427824 -0.006000000
v -0.052262070 0.019823544 -0.024600714
v -0.051664581 0.016010632 -0.024000000
v -0.055866351 0.016219263 0.000000000
v -0.048657789 0.028233532 -0.023399287
v -0.053463497 0.017420690 -0.023399287
v -0.055759552 0.016188795 -0.006117114
v -0.052262070 0.021024971 -0.023399287
f 1 2 3
f 1 3 4
f 5 2 1
f 6 3 2
f 6 4 3
f 7 5 1
f 7 1 4
f 7 4 5
f 9 5 4
f 10 4 6
f 11 6 2
f 11 10 6
f 11 8 10
f 12 2 5
f 12 5 9
f 12 11 2
f 13 9 4
f 13 4 10
f 14 10 8
f 14 8 9
f 15 12 9
f 15 9 8
f 15 8 11
f 15 11 12
f 16 13 10
f 16 9 13
f 16 14 9
f 16 10 14
o link6001
usemtl Material001
v 0.046254936 0.043852082 0.000629251
v 0.055866351 0.023427824 0.000000000
v 0.047456362 0.030636386 -0.011385018
v 0.017386787 0.052143564 -0.011385018
v 0.019823544 0.023427824 0.000629251
v 0.040247801 0.049859216 -0.006579310
v 0.055866351 0.029434959 0.000629251
v 0.017420690 0.054664924 0.000000000
v 0.033039240 0.016219263 -0.011385018
v 0.034240667 0.045053509 -0.011385018
v 0.024629251 0.018622117 0.000629251
v 0.049859216 0.040247801 -0.006579310
v 0.055866351 0.030636386 -0.006579310
v 0.034240667 0.053463497 0.000629251
v 0.015017836 0.018622117 -0.007000000
v 0.021024971 0.052262070 -0.011385018
v 0.041449228 0.016219263 0.000000000
v 0.049859216 0.040247801 -0.000572176
v 0.045053509 0.034240667 -0.011385018
v 0.054664924 0.033039240 -0.006579310
v 0.049736943 0.023376078 -0.011385018
v 0.015017836 0.034240667 0.000629251
v 0.040247801 0.049859216 -0.000572176
v 0.015017836 0.018622117 -0.011385018
v 0.036643520 0.052262070 -0.006579310
v 0.017420690 0.054664924 -0.007780737
v 0.033039240 0.016219263 0.000000000
v 0.053463497 0.034240667 0.000629251
v 0.054664924 0.033039240 -0.000572176
v 0.049859216 0.025830678 -0.011385018
v 0.055866351 0.023427824 -0.004176456
v 0.015196710 0.030147049 0.000000000
v 0.037844947 0.051060643 0.000629251
v 0.014590752 0.026193878 -0.011000000
v 0.030636386 0.047456362 -0.011385018
v 0.036643520 0.052262070 -0.000572176
v 0.018622117 0.053463497 -0.010183591
v 0.025830678 0.054664924 0.000000000
v 0.017087599 0.052383400 -0.009900000
v 0.024629251 0.017420690 -0.000572176
v 0.051060643 0.037844947 0.000629251
v 0.055866351 0.030636386 -0.000572176
v 0.055735691 0.028162152 -0.006000000
v 0.041449228 0.016219263 -0.011385018
v 0.034240667 0.053463497 -0.006579310
v 0.014877199 0.033177015 -0.004176456
v 0.019823544 0.054664924 -0.007780737
v 0.025830678 0.054664924 -0.006000000
f 23 17 21
f 25 20 19
f 26 19 20
f 27 23 21
f 28 26 22
f 29 23 18
f 30 21 17
f 31 27 21
f 32 26 20
f 33 18 23
f 33 23 27
f 34 28 22
f 35 19 26
f 35 26 28
f 36 28 34
f 36 35 28
f 36 19 35
f 38 30 24
f 38 21 30
f 39 34 22
f 39 17 34
f 40 20 25
f 40 25 31
f 41 22 26
f 41 39 22
f 43 31 25
f 43 25 33
f 43 33 27
f 44 17 23
f 45 29 36
f 45 44 23
f 45 36 34
f 45 34 44
f 46 29 37
f 46 36 29
f 46 19 36
f 46 25 19
f 47 29 18
f 47 18 33
f 48 38 31
f 48 31 21
f 48 21 38
f 49 39 30
f 49 30 17
f 49 17 39
f 50 20 40
f 50 40 31
f 50 31 38
f 51 41 26
f 51 26 32
f 52 41 30
f 52 30 39
f 52 39 41
f 53 32 20
f 53 20 42
f 54 42 24
f 54 24 30
f 55 38 24
f 55 24 42
f 55 42 20
f 55 20 50
f 56 43 27
f 56 27 31
f 56 31 43
f 57 44 34
f 57 34 17
f 57 17 44
f 58 45 23
f 58 23 29
f 58 29 45
f 59 47 37
f 59 37 29
f 59 29 47
f 60 47 33
f 60 33 25
f 60 37 47
f 60 46 37
f 60 25 46
f 61 32 53
f 61 51 32
f 61 41 51
f 61 54 30
f 61 30 41
f 62 55 50
f 62 50 38
f 62 38 55
f 63 61 53
f 63 53 42
f 63 42 54
f 64 63 54
f 64 54 61
f 64 61 63
o link6002
usemtl Material002
v -0.041449228 0.016219263 0.000000000
v -0.045280522 -0.013109789 0.000000000
v -0.046242312 -0.012596719 -0.011385018
v -0.052617416 0.015939628 -0.011385018
v -0.063074912 0.005406421 0.000629251
v -0.046254936 0.016219263 -0.011385018
v -0.041191738 0.013600055 -0.004176456
v -0.059470631 -0.019823544 0.000629251
v -0.059470631 0.023427824 -0.000572176
v -0.041191738 0.013600055 0.000000000
v -0.045280522 -0.013109789 -0.004176456
v -0.041449228 0.016219263 -0.004176456
v -0.058269205 0.023427824 0.000629251
v -0.063074912 -0.009010702 -0.006579310
v -0.059470631 0.023427824 -0.006579310
v -0.052850329 -0.019620030 -0.007025038
v -0.060672058 0.018622117 0.000629251
v -0.055866351 0.023427824 0.000000000
v -0.063074912 -0.009010702 -0.000572176
v -0.054664924 -0.013816409 -0.011385018
v -0.063074912 0.009010702 -0.006579310
v -0.055866351 0.023427824 -0.006000000
v -0.053463497 -0.019823544 0.000000000
v -0.059470631 0.022226398 0.000629251
v -0.061873485 0.015017836 -0.006579310
v -0.060672058 -0.019823544 -0.006579310
v -0.061873485 -0.013816409 0.000629251
v -0.054664924 -0.019823544 -0.007780737
v -0.063074912 0.009010702 -0.000572176
v -0.055866351 -0.005406421 -0.011385018
v -0.060672058 0.019823544 -0.000572176
v -0.060672058 0.019823544 -0.006579310
v -0.053513164 0.012348190 -0.011385018
v -0.061873485 -0.015017836 -0.000572176
v -0.061873485 -0.015017836 -0.006579310
v -0.063074912 -0.004204994 0.000629251
v -0.053229403 -0.013767564 -0.011385018
v -0.053463497 -0.019823544 -0.004176456
v -0.061873485 0.013816409 0.000629251
v -0.061873485 0.015017836 -0.000572176
v -0.054681443 0.005264401 -0.011385018
v -0.060672058 -0.019823544 -0.000572176
v -0.060672058 -0.018622117 0.000629251
f 70 67 68
f 71 67 70
f 74 71 65
f 74 66 71
f 74 72 66
f 75 71 66
f 75 67 71
f 76 71 70
f 76 65 71
f 77 69 72
f 77 74 65
f 77 72 74
f 79 70 68
f 79 73 77
f 80 67 75
f 80 75 66
f 81 69 77
f 82 77 65
f 82 65 76
f 82 79 77
f 83 69 78
f 85 78 69
f 86 76 70
f 86 70 79
f 86 82 76
f 86 79 82
f 87 80 66
f 87 66 72
f 88 81 77
f 88 77 73
f 88 73 81
f 90 87 72
f 91 72 69
f 92 67 80
f 92 90 84
f 92 87 90
f 93 85 69
f 93 89 85
f 94 84 78
f 94 78 85
f 95 81 73
f 95 73 79
f 96 79 68
f 96 68 89
f 96 95 79
f 96 89 95
f 97 89 68
f 97 85 89
f 98 83 78
f 98 91 83
f 99 78 84
f 99 84 90
f 99 98 78
f 99 90 98
f 100 91 69
f 100 69 83
f 100 83 91
f 101 92 84
f 101 67 92
f 101 68 67
f 101 84 94
f 102 92 80
f 102 80 87
f 102 87 92
f 103 93 69
f 103 69 81
f 103 81 95
f 104 95 89
f 104 89 93
f 104 103 95
f 104 93 103
f 105 94 85
f 105 85 97
f 105 97 68
f 105 101 94
f 105 68 101
f 106 98 90
f 106 90 72
f 106 91 98
f 107 106 72
f 107 72 91
f 107 91 106
o link6003
usemtl Material003
v -0.030636386 -0.004204994 0.000629251
v -0.024629251 -0.012614982 -0.007000000
v -0.024629251 0.001802140 -0.011000000
v -0.046430577 0.001590175 -0.011385509
v -0.046242312 -0.012596719 -0.004176456
v -0.024179025 -0.013626186 -0.011000000
v -0.040247801 0.001802140 0.000629251
v -0.024629251 -0.005406421 -0.005377883
v -0.030636386 -0.012614982 0.000000000
v -0.046242312 -0.012596719 -0.011385018
v -0.033698763 0.001964111 0.000000000
v -0.046743934 0.001208039 -0.004176456
v -0.024470888 -0.002157823 -0.007000000
v -0.024629251 -0.010212129 -0.005377883
v -0.038966758 -0.012783007 0.000000000
v -0.024541937 0.001922320 -0.010183591
v -0.041449228 -0.000600713 0.000629251
v -0.041449228 0.000600713 0.000629251
f 113 111 110
f 116 113 109
f 117 113 112
f 117 111 113
f 118 114 108
f 118 111 114
f 119 114 111
f 119 117 112
f 119 111 117
f 120 118 108
f 120 108 115
f 121 109 113
f 121 120 115
f 121 113 120
f 121 116 109
f 121 115 108
f 121 108 116
f 122 112 113
f 122 113 116
f 122 116 108
f 123 110 111
f 123 111 118
f 123 118 120
f 123 120 113
f 123 113 110
f 124 119 112
f 124 112 122
f 124 122 108
f 124 108 114
f 125 124 114
f 125 114 119
f 125 119 124
o link6004
usemtl Material004
v 0.041449228 0.001802140 0.000000000
v 0.041449228 -0.005406421 0.000629251
v 0.041449228 -0.012614982 -0.011000000
v 0.017420690 -0.004204994 -0.011385018
v 0.030636386 -0.000600713 0.000629251
v 0.017420690 -0.012614982 -0.006500000
v 0.041449228 0.001802140 -0.011385018
v 0.034738228 -0.012743600 0.000000000
v 0.017850199 -0.012497469 -0.011385018
v 0.017420690 -0.004204994 -0.006500000
v 0.030636386 0.001802140 -0.011385018
v 0.031396427 -0.012810108 0.000000000
v 0.031406070 0.001885849 -0.001000000
v 0.032411902 0.001864573 0.000000000
f 126 127 128
f 130 127 126
f 132 126 128
f 133 128 127
f 134 131 129
f 134 128 131
f 134 132 128
f 134 129 132
f 135 131 130
f 135 129 131
f 136 132 129
f 136 129 135
f 137 131 128
f 137 128 133
f 137 130 131
f 137 133 127
f 137 127 130
f 138 126 132
f 138 132 136
f 138 136 135
f 139 130 126
f 139 126 138
f 139 138 135
f 139 135 130
o link6005
usemtl Material005
v 0.000600713 0.057067778 0.000000000
v 0.000825021 0.053208375 0.000000000
v 0.000825021 0.053208375 -0.011385018
v -0.030636386 0.047456362 -0.011385018
v -0.030636386 0.054664924 0.000629251
v -0.005406421 0.027032105 -0.011000000
v -0.005406421 0.031837813 0.000629251
v -0.011413556 0.057067778 -0.007780737
v -0.030636386 0.027032105 -0.011385018
v -0.005834636 0.027009663 -0.007000000
v -0.013816409 0.057067778 0.000000000
v 0.000550696 0.054969154 -0.011385018
v -0.030518191 0.054448572 -0.006000000
v -0.030636386 0.027032105 0.000000000
v 0.000616218 0.056339324 -0.007052687
v -0.013816409 0.054664924 -0.011385018
v -0.013804629 0.057020796 -0.006025602
v -0.013816409 0.027032105 0.000629251
v -0.006607848 0.055866351 -0.011385018
v -0.021024971 0.052262070 -0.011385018
v -0.007809275 0.029434959 0.000629251
f 140 141 142
f 145 142 141
f 146 141 140
f 146 140 144
f 148 142 145
f 148 144 143
f 149 145 141
f 149 141 146
f 149 148 145
f 150 144 140
f 150 140 147
f 151 148 143
f 151 142 148
f 152 143 144
f 153 144 148
f 153 148 149
f 154 147 140
f 154 140 142
f 154 142 151
f 155 152 147
f 156 150 147
f 156 147 152
f 156 152 144
f 156 144 150
f 157 146 144
f 157 144 153
f 157 153 149
f 158 154 151
f 158 147 154
f 158 155 147
f 158 151 155
f 159 143 152
f 159 152 155
f 159 155 151
f 159 151 143
f 160 157 149
f 160 149 146
f 160 146 157
o link6006
usemtl Material006
v 0.057067778 0.027032105 0.000629251
v 0.057067778 -0.004204994 0.000000000
v 0.060672058 0.019823544 -0.006579310
v 0.049554452 0.023807294 -0.011385018
v 0.048359830 0.003632315 0.000000000
v 0.054795997 -0.004146095 -0.011385018
v 0.057067778 0.028233532 -0.006579310
v 0.060672058 0.016219263 0.000629251
v 0.048657789 0.023427824 0.000000000
v 0.056411261 -0.004169823 -0.006842389
v 0.054664924 0.013816409 -0.011385018
v 0.048657789 -0.004204994 -0.011385018
v 0.059470631 0.023427824 -0.000572176
v 0.060326036 0.016115788 -0.006000000
v 0.053463497 -0.004204994 0.000000000
v 0.053463497 0.028233532 -0.006000000
v 0.055866351 0.006607848 -0.011385018
v 0.052262070 0.021024971 -0.011385018
v 0.057067778 0.028233532 -0.000572176
v 0.059470631 0.023427824 -0.006579310
v 0.060672058 0.019823544 -0.000572176
v 0.048764734 -0.003795778 -0.004176456
v 0.051060643 0.023427824 -0.011385018
v 0.053463497 0.028233532 -0.004176456
v 0.055613204 0.028095236 -0.000860230
v 0.059470631 0.022226398 0.000629251
v 0.060672058 0.018622117 0.000629251
f 168 161 165
f 169 165 161
f 172 171 166
f 172 169 164
f 172 165 169
f 172 170 162
f 172 166 170
f 174 168 162
f 174 163 168
f 174 162 170
f 174 170 166
f 174 166 163
f 175 168 165
f 175 162 168
f 175 172 162
f 176 167 164
f 176 164 169
f 177 171 163
f 177 163 166
f 177 166 171
f 178 163 171
f 178 171 172
f 179 173 167
f 179 167 176
f 180 173 163
f 180 167 173
f 180 178 167
f 180 163 178
f 181 168 163
f 181 163 173
f 182 175 165
f 182 165 172
f 182 172 175
f 183 164 167
f 183 167 178
f 183 178 172
f 183 172 164
f 184 179 176
f 184 176 169
f 185 169 161
f 185 161 179
f 185 184 169
f 185 179 184
f 186 181 173
f 186 161 168
f 186 179 161
f 186 173 179
f 187 186 168
f 187 168 181
f 187 181 186
o link6007
usemtl Material007
v 0.057067778 -0.004204994 0.000000000
v 0.055866351 -0.019823544 0.000000000
v 0.055866351 -0.006607848 -0.011385018
v 0.041449228 0.001802140 -0.011385018
v 0.041449228 -0.005406421 0.000629251
v 0.046254936 -0.019823544 -0.011385018
v 0.048657789 0.001802140 -0.011385018
v 0.057067778 -0.011413556 -0.007780737
v 0.057067778 -0.012614982 0.000000000
v 0.046742574 0.002295417 0.000000000
v 0.041449228 -0.012614982 -0.011000000
v 0.046254936 -0.019823544 0.000000000
v 0.056411261 -0.004169823 -0.006842389
v 0.053463497 -0.017420690 -0.011385018
v 0.055866351 -0.019823544 -0.006000000
v 0.053536233 -0.001840073 0.000000000
v 0.041449228 0.001802140 0.000000000
v 0.048349845 0.002236192 -0.008699013
v 0.054795997 -0.004146095 -0.011385018
v 0.054664924 -0.013816409 -0.011385018
v 0.057022380 -0.012605632 -0.006049488
v 0.051442760 -0.019543254 -0.011385018
f 193 191 190
f 194 190 191
f 196 192 189
f 196 188 192
f 196 195 188
f 198 192 191
f 198 191 193
f 199 193 189
f 199 189 192
f 199 198 193
f 199 192 198
f 200 194 188
f 200 195 190
f 200 188 195
f 201 193 190
f 202 196 189
f 202 189 193
f 203 197 192
f 203 192 188
f 204 197 191
f 204 191 192
f 204 192 197
f 205 194 191
f 205 191 197
f 205 197 203
f 205 203 188
f 205 188 194
f 206 200 190
f 206 190 194
f 206 194 200
f 207 201 190
f 207 190 195
f 207 202 201
f 207 195 202
f 208 202 195
f 208 195 196
f 208 196 202
f 209 202 193
f 209 193 201
f 209 201 202
o link6008
usemtl Material008
v 0.006607848 0.057067778 0.000000000
v 0.006607848 0.030636386 0.000629251
v 0.007346331 0.026689349 -0.011385018
v 0.000550696 0.054969154 -0.011385018
v -0.005406421 0.048657789 0.000000000
v 0.006607848 0.055866351 -0.011385018
v 0.000600713 0.057067778 0.000000000
v -0.005834636 0.027009663 -0.010183591
v 0.006607848 0.057067778 -0.007780737
v 0.001802140 0.030636386 0.000629251
v -0.005406421 0.048657789 -0.011385018
v 0.003003567 0.027032105 -0.005377883
v 0.000616218 0.056339324 -0.007052687
v -0.005525686 0.033289259 0.000000000
v -0.005406421 0.027032105 -0.011000000
v 0.006607848 0.027032105 -0.006500000
v -0.005642801 0.028597536 -0.007000000
f 210 211 212
f 215 212 213
f 218 210 212
f 218 212 215
f 218 216 210
f 218 215 213
f 219 216 214
f 219 211 210
f 219 210 216
f 220 214 216
f 220 217 214
f 220 213 212
f 221 217 212
f 221 211 219
f 222 218 213
f 222 216 218
f 222 220 216
f 222 213 220
f 223 219 214
f 223 214 217
f 224 220 212
f 224 212 217
f 224 217 220
f 225 221 212
f 225 212 211
f 225 211 221
f 226 221 219
f 226 217 221
f 226 223 217
f 226 219 223
o link6009
usemtl Material009
v -0.037844947 0.023427824 0.000000000
v -0.037693145 0.001612553 -0.006579310
v -0.037844947 0.023427824 -0.011385018
v -0.040817208 0.022803470 -0.011385018
v -0.046811002 0.012197405 -0.004176456
v -0.037693145 0.001612553 -0.011385018
v -0.039046374 0.011413556 0.000629251
v -0.040817208 0.022803470 0.000000000
v -0.046430577 0.001590175 -0.011385509
v -0.037572092 0.011689817 0.000000000
v -0.046254936 0.016219263 -0.011385018
v -0.041191738 0.013600055 0.000000000
v -0.046125975 0.001920169 -0.007027178
v -0.046254936 0.016219263 -0.004176456
f 227 229 230
f 234 227 230
f 234 233 227
f 235 230 229
f 235 229 232
f 235 232 228
f 236 228 232
f 236 233 228
f 236 227 233
f 236 232 229
f 236 229 227
f 237 234 230
f 237 235 231
f 237 230 235
f 238 234 231
f 238 233 234
f 239 231 235
f 239 238 231
f 239 233 238
f 239 235 228
f 239 228 233
f 240 237 231
f 240 231 234
f 240 234 237
o link6010
usemtl Material010
v 0.009010702 -0.036643520 0.000000000
v 0.016219263 -0.060672058 0.000629251
v 0.016219263 -0.048657789 -0.011385018
v 0.000600713 -0.036643520 -0.011385018
v 0.000600713 -0.063074912 0.000629251
v 0.009291268 -0.036789811 -0.011385018
v 0.016299014 -0.047066240 0.000000000
v 0.000600713 -0.036643520 0.000000000
v 0.009010702 -0.063074912 -0.006579310
v 0.016299014 -0.047066240 -0.004176456
v 0.000560945 -0.054946392 -0.011385018
v 0.015017836 -0.061873485 -0.006579310
v 0.009010702 -0.063074912 -0.000572176
v 0.000615553 -0.062446300 -0.006000000
v 0.016115788 -0.060326036 -0.006000000
v 0.013816409 -0.054664924 -0.011385018
v 0.013816409 -0.061873485 0.000629251
v 0.015983738 -0.052577655 -0.011385018
v 0.006607848 -0.055866351 -0.011385018
v 0.004204994 -0.063074912 0.000629251
v 0.015017836 -0.061873485 -0.000572176
f 246 243 244
f 246 244 241
f 247 241 242
f 247 246 241
f 248 245 242
f 248 242 241
f 248 241 244
f 250 247 242
f 250 242 243
f 250 243 246
f 250 246 247
f 251 248 244
f 251 245 248
f 253 245 249
f 253 249 252
f 254 251 249
f 254 249 245
f 254 245 251
f 255 243 242
f 255 242 252
f 256 252 249
f 257 242 245
f 258 255 252
f 258 243 255
f 258 252 256
f 258 251 244
f 258 244 243
f 259 256 249
f 259 249 251
f 259 258 256
f 259 251 258
f 260 257 245
f 260 245 253
f 260 253 257
f 261 257 253
f 261 253 252
f 261 252 242
f 261 242 257
o link6011
usemtl Material011
v 0.017420690 0.053463497 -0.011385018
v 0.017323000 0.033410501 -0.011385018
v 0.016219263 0.053463497 -0.024600714
v -0.039046374 0.040247801 -0.024600714
v -0.041449228 0.037844947 -0.011385018
v 0.017420690 0.033039240 -0.024000000
v -0.013816409 0.054664924 -0.011385018
v -0.040247801 0.039046374 -0.024600714
v -0.030636386 0.033039240 -0.011385018
v 0.017420690 0.053463497 -0.023399287
v -0.016219263 0.053463497 -0.024600714
v -0.030636386 0.047456362 -0.011385018
v -0.030636386 0.033039240 -0.024000000
v 0.017148944 0.051312204 -0.024000000
v 0.006607848 0.055866351 -0.011385018
v -0.034240667 0.045053509 -0.011385018
v -0.030636386 0.047456362 -0.023399287
v -0.040934042 0.036178116 -0.022999071
v 0.013816409 0.054664924 -0.011385018
v 0.006607848 0.055866351 -0.023399287
v -0.029434959 0.047456362 -0.024600714
v -0.034240667 0.045053509 -0.023399287
v -0.021024971 0.052262070 -0.011385018
v -0.041147522 0.036370968 -0.011385018
v -0.041449228 0.037844947 -0.023399287
v -0.039966018 0.036388967 -0.024000000
v 0.013816409 0.054664924 -0.023399287
v 0.010212129 0.054664924 -0.024600714
v -0.006607848 0.055866351 -0.023399287
v -0.019823544 0.052262070 -0.024600714
v -0.033039240 0.045053509 -0.024600714
v -0.013816409 0.054664924 -0.023399287
v -0.006607848 0.055866351 -0.011385018
v -0.010212129 0.054664924 -0.024600714
v -0.021024971 0.052262070 -0.023399287
f 266 263 262
f 267 262 263
f 268 266 262
f 269 265 264
f 269 264 267
f 270 267 263
f 270 263 266
f 271 262 267
f 272 264 265
f 273 266 268
f 274 269 267
f 274 267 270
f 275 271 267
f 275 267 264
f 275 264 271
f 276 268 262
f 277 265 266
f 277 266 273
f 278 277 273
f 279 274 270
f 280 276 262
f 280 262 271
f 281 276 280
f 282 272 265
f 283 265 277
f 283 277 278
f 283 278 282
f 284 278 273
f 284 273 268
f 285 279 270
f 285 270 266
f 286 266 265
f 286 265 269
f 286 285 266
f 286 279 285
f 287 269 274
f 287 274 279
f 287 286 269
f 287 279 286
f 288 271 264
f 288 281 280
f 288 280 271
f 289 264 272
f 289 288 264
f 289 281 288
f 290 276 281
f 290 281 289
f 291 282 278
f 291 272 282
f 292 283 282
f 292 282 265
f 292 265 283
f 293 284 268
f 293 268 290
f 294 290 268
f 294 268 276
f 294 276 290
f 295 290 289
f 295 289 272
f 295 293 290
f 295 272 293
f 296 291 278
f 296 278 284
f 296 284 293
f 296 293 272
f 296 272 291
o link6012
usemtl Material012
v 0.054664924 -0.019823544 -0.004176456
v 0.054664924 -0.023427824 -0.004176456
v 0.052262070 -0.021024971 -0.011385018
v -0.024629251 -0.019823544 -0.011385018
v -0.024643778 -0.022258131 -0.004176456
v 0.051442760 -0.019543254 -0.011385018
v 0.054664924 -0.023427824 -0.006000000
v 0.024056979 -0.020319976 -0.004166506
v 0.054551717 -0.019782615 -0.006130464
v -0.017420690 -0.019823544 -0.005377883
v -0.024020757 -0.029323807 -0.011385018
v -0.023527773 -0.029170296 -0.004176456
v -0.024629251 -0.019823544 -0.007000000
v 0.041449228 -0.029434959 -0.004176456
v 0.041449228 -0.029434959 -0.011385018
v 0.051060643 -0.023427824 -0.011385018
f 302 299 300
f 303 297 298
f 304 298 297
f 305 302 297
f 305 299 302
f 305 303 299
f 305 297 303
f 306 297 302
f 306 304 297
f 306 301 304
f 307 301 300
f 307 300 299
f 308 304 301
f 308 301 307
f 309 306 302
f 309 302 300
f 309 300 301
f 309 301 306
f 310 303 298
f 310 308 307
f 310 298 304
f 310 304 308
f 311 310 307
f 311 307 299
f 311 303 310
f 312 311 299
f 312 299 303
f 312 303 311
o link6013
usemtl Material013
v -0.030636386 0.016219263 0.000000000
v -0.024541937 0.001922320 -0.007000000
v -0.024629251 0.018622117 -0.011385018
v -0.037844947 0.016219263 -0.011385018
v -0.037693145 0.001612553 0.000000000
v -0.024629251 0.001802140 -0.011000000
v -0.030636386 0.018622117 -0.004176456
v -0.024629251 0.017420690 -0.004176456
v -0.030636386 0.004204994 0.000629251
v -0.037844947 0.016219263 0.000000000
v -0.037693145 0.001612553 -0.011385018
v -0.030636386 0.018622117 -0.011385018
v -0.025103421 0.019014564 -0.004177136
v -0.033698763 0.001964111 0.000000000
v -0.029434959 0.010212129 0.000629251
v -0.024629251 0.005406421 -0.005377883
v -0.029434959 0.007809275 0.000629251
f 318 315 314
f 318 314 317
f 320 314 315
f 322 316 317
f 322 319 316
f 322 317 321
f 323 315 318
f 323 318 317
f 323 317 316
f 324 316 319
f 324 323 316
f 324 315 323
f 325 322 313
f 325 319 322
f 325 320 315
f 325 324 319
f 325 315 324
f 326 321 317
f 326 317 314
f 326 314 321
f 327 322 321
f 327 313 322
f 327 325 313
f 327 320 325
f 328 321 314
f 328 314 320
f 329 327 321
f 329 321 328
f 329 328 320
f 329 320 327
o link6014
usemtl Material014
v 0.022226398 -0.030636386 0.000629251
v 0.029434959 -0.036643520 -0.007000000
v 0.029434959 -0.029434959 -0.011385018
v 0.000600713 -0.029434959 -0.011385018
v 0.000600713 -0.036643520 0.000000000
v 0.000600713 -0.036643520 -0.011385018
v 0.021657886 -0.028998202 0.000000000
v 0.029434959 -0.029434959 -0.007000000
v 0.010212129 -0.037844947 0.000629251
v 0.029063603 -0.035809456 -0.011000000
v 0.001802140 -0.030636386 0.000629251
v 0.020266799 -0.035103198 0.000000000
v 0.010212129 -0.037844947 -0.004176456
v 0.008840105 -0.037789287 0.000000000
v 0.007809275 -0.029434959 0.000629251
v 0.000597872 -0.031428200 -0.001000000
v 0.008840105 -0.037789287 -0.004176456
v 0.000600713 -0.029434959 -0.006500000
v 0.000598602 -0.032425868 0.000000000
f 335 333 332
f 336 332 333
f 337 330 331
f 337 331 332
f 337 336 330
f 337 332 336
f 339 335 332
f 339 332 331
f 339 331 335
f 340 338 330
f 340 334 338
f 341 338 331
f 341 331 330
f 341 330 338
f 342 335 331
f 342 331 338
f 343 338 334
f 343 334 335
f 343 342 338
f 344 340 330
f 344 330 336
f 345 335 334
f 345 333 335
f 346 343 335
f 346 335 342
f 346 342 343
f 347 344 336
f 347 336 333
f 347 340 344
f 347 345 340
f 347 333 345
f 348 345 334
f 348 334 340
f 348 340 345
o link6015
usemtl Material015
v 0.043852082 -0.029434959 0.000000000
v 0.047456362 -0.030636386 -0.011385018
v 0.045602598 -0.029032652 -0.024000000
v 0.037844947 -0.029434959 -0.024000000
v 0.037844947 -0.041449228 -0.004176456
v 0.037844947 -0.029434959 0.000000000
v 0.046669729 -0.028949841 -0.011385018
v 0.043852082 -0.041449228 -0.004176456
v 0.043852082 -0.034240667 0.000000000
v 0.037239844 -0.040824307 -0.008773433
v 0.047456362 -0.029434959 -0.023399287
v 0.037844947 -0.034240667 0.000000000
v 0.039046374 -0.040247801 -0.024600714
v 0.047456362 -0.030636386 -0.023399287
v 0.039046374 -0.041449228 -0.008982164
v 0.037844947 -0.040247801 -0.024600714
v 0.045053509 -0.034240667 -0.023399287
v 0.046254936 -0.030636386 -0.024600714
v 0.043852082 -0.041449228 -0.006000000
v 0.045053509 -0.033039240 -0.024600714
v 0.040247801 -0.039046374 -0.024600714
f 355 349 350
f 355 354 349
f 355 351 352
f 355 352 354
f 357 349 354
f 357 353 356
f 357 356 350
f 357 350 349
f 358 354 352
f 359 355 350
f 359 351 355
f 360 357 354
f 360 353 357
f 360 358 353
f 360 354 358
f 362 359 350
f 362 350 356
f 363 356 353
f 364 353 358
f 364 358 352
f 364 363 353
f 364 361 363
f 366 351 359
f 366 359 362
f 366 361 364
f 366 364 352
f 366 352 351
f 367 363 361
f 367 356 363
f 367 365 362
f 367 362 356
f 368 361 366
f 368 366 362
f 368 362 365
f 369 367 361
f 369 365 367
f 369 368 365
f 369 361 368
o link6016
usemtl Material016
v 0.015017836 0.034240667 0.000629251
v 0.022823243 0.027870660 -0.004176456
v 0.017420690 0.041449228 -0.011000000
v 0.006607848 0.041449228 -0.011385018
v 0.006607848 0.027032105 -0.006500000
v 0.008574745 0.041539932 0.000000000
v 0.022226398 0.030636386 -0.004176456
v 0.007809275 0.029434959 0.000629251
v 0.022823243 0.027870660 -0.011385018
v 0.017956774 0.038220868 -0.007000000
v 0.017420690 0.027032105 -0.004176456
v 0.015196710 0.030147049 0.000000000
v 0.006607848 0.030636386 0.000629251
v 0.022226398 0.033039240 -0.007000000
v 0.007346331 0.026689349 -0.011385018
v 0.022226398 0.033039240 -0.011385018
v 0.006607848 0.041449228 0.000000000
v 0.006607848 0.029434959 -0.000572176
f 375 372 373
f 376 370 371
f 379 375 370
f 379 372 375
f 379 370 376
f 380 377 374
f 380 371 377
f 380 378 371
f 381 377 371
f 381 371 370
f 381 370 377
f 382 377 370
f 382 373 374
f 383 376 371
f 383 371 378
f 383 379 376
f 383 372 379
f 384 374 373
f 384 380 374
f 384 378 380
f 385 373 372
f 385 383 378
f 385 372 383
f 385 384 373
f 385 378 384
f 386 382 370
f 386 370 375
f 386 375 373
f 386 373 382
f 387 382 374
f 387 374 377
f 387 377 382
o link6017
usemtl Material017
v 0.043852082 -0.034240667 0.000000000
v 0.043852082 -0.046254936 0.000629251
v 0.043852082 -0.046254936 -0.006579310
v 0.029381794 -0.047368645 -0.007717935
v 0.029434959 -0.041449228 0.000000000
v 0.030636386 -0.055866351 -0.000572176
v 0.032468245 -0.028987726 -0.004176456
v 0.032468245 -0.028987726 0.000000000
v 0.040247801 -0.049859216 -0.000572176
v 0.030636386 -0.055866351 -0.006579310
v 0.029087429 -0.055230206 -0.001000000
v 0.031837813 -0.054664924 0.000629251
v 0.043852082 -0.034240667 -0.004176456
v 0.039046374 -0.042650655 -0.007780737
v 0.029807411 -0.039832411 -0.004176456
v 0.037844947 -0.029434959 0.000000000
v 0.033039240 -0.054664924 -0.000572176
v 0.040247801 -0.049859216 -0.006579310
v 0.029087429 -0.055230206 -0.006000000
v 0.029123495 -0.054094788 -0.000019475
v 0.037844947 -0.051060643 0.000629251
v 0.037665789 -0.041264205 -0.007560880
v 0.030636386 -0.049859216 -0.007780737
v 0.043852082 -0.041449228 -0.006000000
v 0.029807411 -0.039832411 0.000000000
v 0.037844947 -0.029434959 -0.004176456
v 0.033039240 -0.054664924 -0.006579310
v 0.029434959 -0.049859216 -0.007780737
v 0.034240667 -0.053463497 0.000629251
f 388 389 390
f 396 390 389
f 398 397 393
f 399 389 395
f 400 388 390
f 402 394 391
f 402 391 392
f 403 395 389
f 403 389 388
f 403 388 400
f 403 394 395
f 404 393 397
f 404 399 393
f 405 390 396
f 405 396 404
f 405 401 390
f 406 398 392
f 406 392 391
f 406 397 398
f 407 398 393
f 407 393 399
f 407 399 392
f 407 392 398
f 408 396 389
f 408 389 399
f 408 404 396
f 409 401 391
f 409 391 394
f 410 401 405
f 411 401 400
f 411 400 390
f 411 390 401
f 412 402 392
f 412 395 394
f 412 394 402
f 412 399 395
f 412 392 399
f 413 403 400
f 413 394 403
f 413 409 394
f 413 400 401
f 413 401 409
f 414 405 404
f 414 404 397
f 414 410 405
f 414 397 410
f 415 406 391
f 415 397 406
f 415 410 397
f 415 391 401
f 415 401 410
f 416 408 399
f 416 399 404
f 416 404 408
o link6018
usemtl Material018
v 0.029807411 -0.039832411 0.000000000
v 0.029434959 -0.055866351 0.000629251
v 0.028938191 -0.046706104 -0.011385018
v 0.023427824 -0.036643520 -0.011385018
v 0.016299014 -0.047066240 0.000000000
v 0.029063603 -0.035809456 -0.011000000
v 0.029087429 -0.055230206 -0.006000000
v 0.021024971 -0.037844947 0.000629251
v 0.015983738 -0.052577655 -0.011385018
v 0.029434959 -0.036643520 -0.007000000
v 0.016219263 -0.060672058 0.000629251
v 0.023427824 -0.037844947 0.000629251
v 0.016219263 -0.045053509 -0.011385018
v 0.023427824 -0.036643520 -0.007000000
v 0.023427824 -0.059470631 -0.006579310
v 0.021024971 -0.037844947 -0.004176456
v 0.016219263 -0.045053509 -0.007000000
v 0.021024971 -0.052262070 -0.011385018
v 0.028233532 -0.057067778 -0.006579310
v 0.016115788 -0.060326036 -0.006000000
v 0.023427824 -0.059470631 -0.000572176
v 0.019823544 -0.060672058 -0.006579310
v 0.028233532 -0.048657789 -0.011385018
v 0.022226398 -0.059470631 0.000629251
v 0.028233532 -0.057067778 -0.000572176
v 0.017420690 -0.053463497 -0.011385018
v 0.019823544 -0.060672058 -0.000572176
v 0.018622117 -0.060672058 0.000629251
f 422 419 420
f 423 417 418
f 423 419 417
f 426 417 419
f 426 419 422
f 427 424 421
f 427 418 424
f 427 421 425
f 428 424 418
f 428 418 417
f 428 417 426
f 428 426 422
f 428 422 424
f 429 420 425
f 430 424 422
f 430 422 420
f 430 420 424
f 432 429 424
f 432 424 420
f 432 420 429
f 433 421 424
f 433 424 429
f 433 429 425
f 433 425 421
f 435 419 423
f 435 423 418
f 435 431 434
f 436 427 425
f 437 431 435
f 438 434 431
f 438 427 436
f 438 431 437
f 439 435 434
f 439 419 435
f 439 434 425
f 439 425 420
f 439 420 419
f 440 418 427
f 441 437 435
f 441 435 418
f 441 440 437
f 441 418 440
f 442 425 434
f 442 434 438
f 442 438 436
f 442 436 425
f 443 438 437
f 443 427 438
f 443 437 440
f 444 443 440
f 444 440 427
f 444 427 443
o link6019
usemtl Material019
v -0.030636386 -0.019823544 -0.011385018
v -0.030636386 -0.029434959 -0.011000000
v -0.030636386 -0.029434959 -0.024000000
v -0.046254936 -0.019823544 -0.024000000
v -0.046254936 -0.019823544 -0.017392152
v -0.046365744 -0.029499988 -0.017392152
v -0.030636386 -0.019823544 -0.024000000
v -0.037844947 -0.019823544 -0.011385018
v -0.037326499 -0.029477118 -0.011385018
v -0.045619996 -0.029062345 -0.024000000
f 445 446 447
f 450 449 448
f 451 445 447
f 451 447 448
f 451 448 449
f 452 446 445
f 452 451 449
f 452 445 451
f 452 449 450
f 453 450 447
f 453 447 446
f 453 452 450
f 453 446 452
f 454 450 448
f 454 448 447
f 454 447 450
o link6020
usemtl Material020
v 0.060672058 0.016219263 0.000629251
v 0.063074912 -0.009010702 -0.000572176
v 0.063074912 0.009010702 -0.006579310
v 0.057067778 0.016219263 -0.006000000
v 0.054133478 -0.029183159 0.000000000
v 0.061873485 0.015017836 -0.006579310
v 0.063074912 0.009010702 -0.000572176
v 0.061873485 -0.013816409 0.000629251
v 0.057067778 0.016219263 0.000000000
v 0.059470631 -0.023427824 -0.006579310
v 0.060326036 0.016115788 -0.006000000
v 0.061873485 0.015017836 -0.000572176
v 0.055866351 -0.029434959 0.000629251
v 0.063074912 0.004204994 0.000629251
v 0.054551717 -0.019782615 -0.006130464
v 0.063074912 -0.009010702 -0.006579310
v 0.060672058 -0.019823544 -0.000572176
v 0.061873485 0.013816409 0.000629251
v 0.055866351 -0.030636386 -0.006579310
v 0.054664924 -0.019823544 0.000000000
v 0.063074912 -0.005406421 0.000629251
v 0.061873485 -0.015017836 -0.000572176
v 0.059470631 -0.023427824 -0.000572176
v 0.060672058 -0.019823544 -0.006579310
v 0.054393026 -0.030470727 -0.000890136
v 0.055866351 -0.030636386 -0.000572176
v 0.059470631 -0.022226398 0.000629251
v 0.061873485 -0.015017836 -0.006579310
v 0.054486722 -0.030527813 -0.006000000
v 0.060672058 -0.018622117 0.000629251
f 461 456 457
f 461 457 460
f 463 455 458
f 464 460 457
f 465 460 458
f 465 458 455
f 465 455 460
f 466 461 460
f 466 460 455
f 467 462 455
f 467 455 463
f 468 455 462
f 468 456 461
f 469 463 458
f 470 464 457
f 470 457 456
f 472 466 455
f 472 461 466
f 472 468 461
f 472 455 468
f 473 460 464
f 473 469 458
f 473 458 460
f 474 467 463
f 474 459 467
f 474 469 459
f 474 463 469
f 475 468 462
f 475 462 456
f 475 456 468
f 476 456 462
f 476 462 471
f 476 470 456
f 477 464 471
f 477 473 464
f 478 471 464
f 478 464 470
f 478 476 471
f 479 467 459
f 480 473 477
f 480 467 479
f 481 477 471
f 481 462 467
f 481 480 477
f 481 467 480
f 482 478 470
f 482 470 476
f 482 476 478
f 483 479 459
f 483 459 469
f 483 469 473
f 483 480 479
f 483 473 480
f 484 481 471
f 484 471 462
f 484 462 481
o link6021
usemtl Material021
v 0.016299014 -0.047066240 -0.004176456
v 0.030044269 -0.045973738 -0.011385018
v 0.009858444 -0.044372531 -0.004176456
v 0.009010702 -0.045053509 -0.024000000
v 0.011413556 -0.054664924 -0.024600714
v 0.029434959 -0.045053509 -0.024000000
v 0.012614982 -0.045053509 -0.004176456
v 0.013816409 -0.054664924 -0.011385018
v 0.008938340 -0.054191063 -0.011385018
v 0.029434959 -0.047456362 -0.024600714
v 0.028233532 -0.048657789 -0.011385018
v 0.009010702 -0.048657789 -0.004176456
v 0.009010702 -0.054664924 -0.024600714
v 0.021024971 -0.052262070 -0.023399287
v 0.016219263 -0.048657789 -0.004176456
v 0.013816409 -0.054664924 -0.023399287
v 0.019823544 -0.052262070 -0.024600714
v 0.021024971 -0.052262070 -0.011385018
v 0.028233532 -0.048657789 -0.023399287
v 0.016219263 -0.053463497 -0.024600714
f 490 487 486
f 490 488 487
f 491 485 486
f 491 486 487
f 491 487 485
f 494 488 490
f 494 490 486
f 495 494 486
f 496 487 488
f 496 488 493
f 496 485 487
f 496 493 492
f 497 493 488
f 497 489 492
f 497 492 493
f 497 494 489
f 497 488 494
f 499 495 486
f 499 486 485
f 499 496 492
f 499 485 496
f 500 498 492
f 500 492 489
f 501 489 494
f 501 494 498
f 502 498 495
f 502 492 498
f 502 499 492
f 502 495 499
f 503 498 494
f 503 494 495
f 503 495 498
f 504 500 489
f 504 489 501
f 504 501 498
f 504 498 500
o link6022
usemtl Material022
v 0.054664924 -0.019823544 0.000000000
v 0.054664924 -0.033039240 -0.000572176
v 0.054664924 -0.033039240 -0.006579310
v 0.045728829 -0.022744204 -0.011385018
v 0.041094533 -0.027476510 0.000000000
v 0.054664924 -0.023427824 -0.006000000
v 0.045053509 -0.043852082 0.000629251
v 0.048657789 -0.019823544 0.000000000
v 0.049746152 -0.023371662 -0.011384018
v 0.054664924 -0.031837813 0.000629251
v 0.049859216 -0.040247801 -0.006579310
v 0.041449228 -0.029434959 -0.011385018
v 0.048657789 -0.019823544 -0.004176456
v 0.054664924 -0.019823544 -0.004176456
v 0.051060643 -0.037844947 0.000629251
v 0.045053509 -0.034240667 -0.011385018
v 0.043550545 -0.044768833 -0.000986288
v 0.041094533 -0.027476510 -0.011385018
v 0.053463497 -0.034240667 0.000629251
v 0.049859216 -0.040247801 -0.000572176
v 0.047456362 -0.030636386 -0.011385018
v 0.043434075 -0.043457454 0.000000000
v 0.043560502 -0.044778233 -0.006000000
v 0.045053509 -0.045053509 -0.000572176
v 0.043285996 -0.033800463 -0.011385018
v 0.045053509 -0.045053509 -0.006579310
f 505 506 507
f 510 505 507
f 512 508 509
f 513 510 507
f 514 506 505
f 514 505 512
f 514 512 509
f 514 509 511
f 515 507 506
f 517 512 505
f 517 508 512
f 518 505 510
f 518 510 513
f 518 517 505
f 518 513 508
f 518 508 517
f 519 514 511
f 520 507 515
f 520 516 508
f 522 509 508
f 522 508 516
f 522 521 509
f 523 506 514
f 523 514 519
f 524 515 506
f 524 523 519
f 524 506 523
f 525 513 507
f 525 507 520
f 525 520 508
f 525 508 513
f 526 521 511
f 526 511 509
f 526 509 521
f 527 522 516
f 527 521 522
f 528 515 524
f 528 511 521
f 528 521 527
f 528 524 519
f 528 519 511
f 529 527 516
f 529 516 520
f 530 520 515
f 530 528 527
f 530 515 528
f 530 529 520
f 530 527 529
o link6023
usemtl Material023
v -0.029434959 -0.007809275 0.000629251
v -0.024383218 -0.026875608 0.000000000
v -0.024179025 -0.013626186 -0.011000000
v -0.030636386 -0.012614982 -0.011385018
v -0.030636386 -0.024629251 0.000629251
v -0.030636386 -0.029434959 -0.011000000
v -0.029434959 -0.006607848 -0.004176456
v -0.024629251 -0.021024971 0.000629251
v -0.031337208 -0.007987588 -0.000092347
v -0.024020757 -0.029323807 -0.011385018
v -0.029434959 -0.029434959 -0.006579310
v -0.024629251 -0.012614982 -0.007000000
v -0.025830678 -0.027032105 0.000629251
v -0.031011318 -0.027391379 -0.007000000
v -0.030767277 -0.006637621 -0.004176551
v -0.024633261 -0.029435691 -0.007000000
v -0.029434959 -0.006607848 -0.000572176
v -0.030898885 -0.006674634 -0.000842468
f 537 533 534
f 538 532 533
f 538 531 535
f 539 535 531
f 540 533 532
f 540 536 534
f 540 534 533
f 542 533 537
f 542 538 533
f 542 531 538
f 543 538 535
f 543 532 538
f 543 535 541
f 544 535 539
f 544 541 535
f 544 536 541
f 544 539 534
f 544 534 536
f 545 537 534
f 545 534 539
f 546 540 532
f 546 543 541
f 546 532 543
f 546 541 536
f 546 536 540
f 547 542 537
f 547 531 542
f 547 537 545
f 548 547 545
f 548 545 539
f 548 539 531
f 548 531 547
o link6024
usemtl Material024
v 0.010212129 0.061873485 0.000629251
v 0.010212129 0.057067778 0.000000000
v 0.009010702 0.063074912 -0.006579310
v -0.030636386 0.055866351 -0.006579310
v -0.029434959 0.055866351 0.000629251
v 0.010190310 0.056961839 -0.006176018
v -0.009010702 0.063074912 -0.000572176
v -0.029123495 0.054094788 -0.000019475
v 0.010179205 0.061618331 -0.006000000
v -0.013816409 0.061873485 0.000629251
v 0.005406421 0.063074912 0.000629251
v -0.009010702 0.063074912 -0.006579310
v -0.030474650 0.054368871 -0.000909054
v -0.021006813 0.054621404 -0.006040259
v -0.021024971 0.054664924 0.000000000
v -0.023427824 0.059470631 -0.000572176
v 0.009010702 0.063074912 -0.000572176
v -0.004204994 0.063074912 0.000629251
v -0.030636386 0.055866351 -0.000572176
v -0.030518191 0.054448572 -0.006000000
v -0.022226398 0.059470631 0.000629251
v -0.023427824 0.059470631 -0.006579310
v -0.019823544 0.060672058 -0.000572176
v -0.015017836 0.061873485 -0.000572176
v -0.019823544 0.060672058 -0.006579310
v -0.018622117 0.060672058 0.000629251
v -0.015017836 0.061873485 -0.006579310
f 553 550 549
f 554 552 551
f 554 549 550
f 557 554 551
f 557 551 549
f 557 549 554
f 558 553 549
f 559 551 555
f 559 558 549
f 560 555 551
f 560 551 552
f 561 556 553
f 562 552 554
f 563 554 550
f 563 550 553
f 563 553 556
f 563 562 554
f 563 556 562
f 565 559 549
f 565 549 551
f 565 551 559
f 566 559 555
f 566 555 558
f 566 558 559
f 567 561 553
f 567 564 552
f 568 552 562
f 568 567 552
f 568 561 567
f 568 562 556
f 568 556 561
f 569 553 558
f 569 567 553
f 569 564 567
f 570 560 552
f 570 552 564
f 571 570 564
f 571 564 569
f 572 571 558
f 572 558 555
f 572 555 560
f 573 560 570
f 573 570 571
f 573 571 572
f 574 571 569
f 574 569 558
f 574 558 571
f 575 573 572
f 575 572 560
f 575 560 573
o link6025
usemtl Material025
v 0.045053509 0.034240667 -0.011385018
v 0.049554452 0.023807294 -0.011385018
v 0.048657789 0.027032105 -0.024600714
v 0.033039240 0.035442093 -0.024000000
v 0.033039240 0.016219263 -0.011385018
v 0.042650655 0.036643520 -0.023399287
v 0.048657789 0.028233532 -0.011385018
v 0.033196732 0.035499862 -0.011385018
v 0.048657789 0.016219263 -0.024000000
v 0.047456362 0.030636386 -0.023399287
v 0.042650655 0.035442093 -0.024600714
v 0.048657789 0.028233532 -0.023399287
v 0.042650655 0.036643520 -0.011385018
v 0.041449228 0.016219263 -0.011385018
v 0.033039240 0.016219263 -0.024000000
v 0.045053509 0.034240667 -0.023399287
v 0.047456362 0.030636386 -0.011385018
v 0.048657789 0.016219263 -0.017392152
v 0.047456362 0.029434959 -0.024600714
v 0.045053509 0.033039240 -0.024600714
f 583 579 580
f 583 581 579
f 583 580 577
f 584 578 577
f 586 579 581
f 587 582 577
f 587 577 578
f 587 585 582
f 588 576 581
f 588 581 583
f 588 583 577
f 588 577 576
f 589 577 580
f 589 580 584
f 590 584 580
f 590 580 579
f 590 578 584
f 590 586 578
f 590 579 586
f 591 581 576
f 591 576 585
f 592 585 576
f 592 582 585
f 592 576 577
f 592 577 582
f 593 589 584
f 593 584 577
f 593 577 589
f 594 591 585
f 594 578 586
f 594 587 578
f 594 585 587
f 595 594 586
f 595 591 594
f 595 586 581
f 595 581 591
o link6026
usemtl Material026
v 0.046282174 -0.016246169 -0.004176456
v 0.046254936 -0.019823544 -0.004176456
v 0.046254936 -0.019823544 -0.011385018
v -0.013816409 -0.012614982 -0.011385018
v -0.013816409 -0.012614982 -0.006500000
v -0.013816409 -0.019823544 -0.011385018
v 0.046254936 -0.012614982 -0.011385018
v 0.023427824 -0.018622117 -0.004176456
v 0.024056979 -0.020319976 -0.004166506
v 0.034738228 -0.012743600 -0.004176456
v -0.013816409 -0.019823544 -0.006500000
v 0.046254936 -0.012614982 -0.007000000
v 0.031396427 -0.012810108 -0.004176456
v 0.024629251 -0.017420690 -0.004176456
f 596 597 598
f 601 599 598
f 601 600 599
f 602 596 598
f 602 598 599
f 602 599 600
f 604 601 598
f 604 598 597
f 604 597 596
f 605 604 596
f 606 604 603
f 606 603 600
f 606 600 601
f 606 601 604
f 607 602 600
f 607 600 605
f 607 605 596
f 607 596 602
f 608 605 600
f 608 604 605
f 609 608 600
f 609 600 603
f 609 603 604
f 609 604 608
o link6027
usemtl Material027
v -0.030636386 0.036643520 0.000000000
v -0.030636386 0.029434959 0.000000000
v -0.030636386 0.029434959 -0.024000000
v -0.045053509 0.033039240 -0.024600714
v -0.042650655 0.029434959 0.000000000
v -0.030636386 0.036643520 -0.024000000
v -0.042650655 0.036643520 0.000000000
v -0.046692169 0.029005763 -0.011385018
v -0.041449228 0.036643520 -0.024600714
v -0.045650153 0.029095284 -0.024000000
v -0.047456362 0.030636386 -0.011385018
v -0.046254936 0.030636386 -0.024600714
v -0.042650655 0.036643520 -0.023399287
v -0.047456362 0.029434959 -0.023399287
v -0.045053509 0.034240667 -0.011385018
v -0.047456362 0.030636386 -0.023399287
v -0.045053509 0.034240667 -0.023399287
f 610 611 612
f 614 611 610
f 615 610 612
f 616 614 610
f 616 610 615
f 617 612 611
f 617 611 614
f 618 615 612
f 618 616 615
f 619 612 617
f 620 617 614
f 620 614 616
f 621 618 612
f 621 613 618
f 621 612 619
f 622 618 613
f 622 616 618
f 623 619 617
f 623 617 620
f 623 621 619
f 624 620 616
f 624 616 622
f 625 623 620
f 625 613 621
f 625 621 623
f 625 620 624
f 626 625 624
f 626 624 622
f 626 622 613
f 626 613 625
o link6028
usemtl Material028
v 0.037844947 -0.029434959 -0.004176456
v 0.037844947 -0.047456362 -0.004176456
v 0.037844947 -0.041449228 -0.024600714
v 0.029434959 -0.029434959 -0.024000000
v 0.029434959 -0.047456362 -0.004176456
v 0.037844947 -0.029434959 -0.024000000
v 0.029434959 -0.029434959 -0.007000000
v 0.029434959 -0.047456362 -0.023399287
v 0.032468245 -0.028987726 -0.004176456
v 0.029013809 -0.045618896 -0.024000000
v 0.034240667 -0.045053509 -0.023399287
v 0.029807411 -0.039832411 -0.004176456
v 0.030636386 -0.046254936 -0.024600714
v 0.037844947 -0.047456362 -0.006000000
v 0.030636386 -0.047456362 -0.023399287
v 0.033039240 -0.045053509 -0.024600714
f 627 628 629
f 632 627 629
f 632 629 630
f 634 628 631
f 635 627 632
f 635 632 630
f 635 630 633
f 635 631 628
f 635 628 627
f 636 633 630
f 636 631 633
f 636 634 631
f 638 635 633
f 638 633 631
f 638 631 635
f 639 636 630
f 639 630 629
f 639 634 636
f 640 637 629
f 640 629 628
f 640 628 634
f 641 634 639
f 641 640 634
f 641 637 640
f 642 639 629
f 642 629 637
f 642 641 639
f 642 637 641
o link6029
usemtl Material029
v -0.037844947 -0.019823544 -0.011385018
v -0.037326499 -0.029477118 -0.011385018
v -0.037844947 -0.019823544 -0.017392152
v -0.051060643 -0.022226398 -0.024600714
v -0.052262070 -0.021024971 -0.011385018
v -0.045619996 -0.029062345 -0.024000000
v -0.051396298 -0.019542372 -0.011385018
v -0.037844947 -0.029434959 -0.017392152
v -0.046254936 -0.019823544 -0.024000000
v -0.048657789 -0.028233532 -0.023399287
v -0.050472337 -0.019559156 -0.024000000
v -0.047456362 -0.029434959 -0.024600714
v -0.052262070 -0.021024971 -0.023399287
v -0.048657789 -0.028233532 -0.011385018
v -0.052262070 -0.019823544 -0.023399287
v -0.046673517 -0.028975543 -0.011385018
f 643 644 645
f 649 644 643
f 650 648 645
f 650 645 644
f 651 645 648
f 653 649 643
f 653 643 645
f 653 645 651
f 653 651 646
f 654 650 644
f 654 648 650
f 654 652 646
f 654 651 648
f 654 646 651
f 655 652 647
f 655 646 652
f 656 647 652
f 656 652 654
f 656 649 647
f 656 644 649
f 657 653 646
f 657 646 655
f 657 649 653
f 657 655 647
f 657 647 649
f 658 656 654
f 658 654 644
f 658 644 656
o link6030
usemtl Material030
v -0.026503498 -0.036187236 0.000000000
v -0.026718678 -0.056406257 -0.001000000
v -0.026677805 -0.048006845 -0.011385018
v -0.040247801 -0.029434959 -0.011385018
v -0.040247801 -0.048657789 0.000629251
v -0.027284289 -0.029408453 -0.011000000
v -0.026718678 -0.056406257 -0.006000000
v -0.029434959 -0.055866351 0.000629251
v -0.040247801 -0.029434959 0.000000000
v -0.040247801 -0.049859216 -0.006579310
v -0.027032105 -0.029434959 -0.007000000
v -0.026759127 -0.055290209 -0.000007436
v -0.028233532 -0.057067778 -0.006579310
v -0.037318607 -0.029380062 0.000000000
v -0.039410248 -0.038270236 -0.011385018
v -0.040247801 -0.049859216 -0.000572176
v -0.028233532 -0.057067778 -0.000572176
v -0.030636386 -0.047456362 -0.011385018
v -0.034240667 -0.053463497 0.000629251
v -0.033039240 -0.054664924 -0.000572176
v -0.033039240 -0.054664924 -0.006579310
v -0.028233532 -0.048657789 -0.011385018
v -0.034240667 -0.045053509 -0.011385018
v -0.037844947 -0.051060643 0.000629251
f 664 661 662
f 665 659 660
f 665 661 659
f 666 659 663
f 667 662 663
f 668 663 662
f 669 659 661
f 669 661 664
f 670 660 659
f 670 659 666
f 671 665 660
f 671 661 665
f 672 667 663
f 672 663 659
f 672 659 669
f 672 669 664
f 672 664 662
f 672 662 667
f 673 668 662
f 674 663 668
f 675 670 666
f 675 660 670
f 675 671 660
f 677 666 663
f 677 675 666
f 678 674 668
f 678 671 675
f 678 675 677
f 679 678 668
f 679 671 678
f 680 676 661
f 680 661 671
f 680 679 676
f 680 671 679
f 681 668 673
f 681 673 662
f 681 662 661
f 681 661 676
f 681 679 668
f 681 676 679
f 682 677 663
f 682 663 674
f 682 678 677
f 682 674 678
o link6031
usemtl Material031
v -0.042650655 0.046254936 0.000629251
v -0.042650655 0.029434959 0.000000000
v -0.042285024 0.035111793 -0.011385018
v -0.045053509 0.034240667 -0.011385018
v -0.058269205 0.023427824 0.000629251
v -0.043852082 0.046254936 -0.006579310
v -0.042348690 0.045903221 -0.006000000
v -0.046254936 0.023427824 0.000000000
v -0.043852082 0.035442093 -0.011385018
v -0.049859216 0.040247801 -0.000572176
v -0.058269205 0.025830678 -0.006579310
v -0.042856882 0.028285285 -0.011385018
v -0.051060643 0.037844947 0.000629251
v -0.043852082 0.046254936 0.000629251
v -0.049859216 0.040247801 -0.006579310
v -0.049770930 0.023385110 -0.011384241
v -0.058269205 0.025830678 -0.000572176
v -0.054664924 0.033039240 -0.006579310
v -0.057961630 0.023319797 -0.006000000
v -0.046226420 0.023441339 -0.011385018
v -0.049859216 0.025830678 -0.011385018
v -0.058269205 0.024629251 0.000629251
v -0.054664924 0.033039240 -0.000572176
v -0.047456362 0.030636386 -0.011385018
v -0.053463497 0.034240667 0.000629251
f 689 683 684
f 689 684 685
f 689 688 683
f 689 685 688
f 690 684 683
f 690 683 687
f 691 688 685
f 691 686 688
f 694 685 684
f 694 684 690
f 695 687 683
f 696 683 688
f 696 688 692
f 696 695 683
f 696 692 695
f 697 688 686
f 697 692 688
f 699 693 687
f 700 697 686
f 700 692 697
f 700 693 699
f 701 698 690
f 701 690 687
f 701 687 693
f 701 693 698
f 702 694 690
f 702 690 698
f 702 685 694
f 702 691 685
f 702 686 691
f 703 698 693
f 703 702 698
f 703 693 700
f 704 699 687
f 704 687 695
f 705 695 692
f 705 700 699
f 705 692 700
f 705 699 704
f 706 703 700
f 706 700 686
f 706 686 702
f 706 702 703
f 707 705 704
f 707 704 695
f 707 695 705
o link6032
usemtl Material032
v -0.030636386 -0.012614982 0.000000000
v -0.030636386 -0.024629251 0.000629251
v -0.030636366 -0.023426194 -0.011385018
v -0.053469629 -0.012616262 -0.011385018
v -0.053463497 -0.012614982 0.000000000
v -0.052262070 -0.029434959 -0.006000000
v -0.030636386 -0.012614982 -0.011385018
v -0.030636386 -0.029434959 -0.011000000
v -0.053463497 -0.019823544 0.000000000
v -0.037318607 -0.029380062 0.000000000
v -0.048657789 -0.028233532 -0.011385018
v -0.053463497 -0.019823544 -0.008982164
v -0.031837813 -0.029434959 -0.006579310
v -0.046254936 -0.029434959 0.000000000
v -0.046673517 -0.028975543 -0.011385018
v -0.052262070 -0.021024971 -0.011385018
v -0.052262070 -0.029434959 -0.004176456
v -0.053463497 -0.017420690 -0.011385018
f 708 709 710
f 712 709 708
f 714 708 710
f 714 712 708
f 714 711 712
f 715 710 709
f 716 712 711
f 716 709 712
f 719 716 711
f 720 715 709
f 720 709 717
f 721 720 717
f 721 715 720
f 721 717 709
f 721 709 716
f 722 715 713
f 722 713 718
f 722 710 715
f 722 714 710
f 723 718 713
f 723 722 718
f 724 721 716
f 724 713 715
f 724 715 721
f 724 719 713
f 724 716 719
f 725 723 713
f 725 713 719
f 725 719 711
f 725 711 714
f 725 714 722
f 725 722 723
o link6033
usemtl Material033
v 0.015017836 0.027032105 -0.007000000
v 0.015017836 0.018622117 -0.007000000
v 0.015017836 0.018622117 -0.011385018
v -0.030636386 0.027032105 -0.011385018
v -0.030636386 0.018622117 -0.004176456
v 0.014590752 0.026193878 -0.011000000
v 0.009010702 0.018622117 -0.005377883
v -0.030636386 0.027032105 -0.004176456
v -0.030636386 0.018622117 -0.011385018
v -0.015269673 0.027508722 -0.004175092
v 0.007630109 0.027156600 -0.006500000
v 0.009010702 0.019823544 -0.005377883
v -0.023427824 0.018622117 -0.004176456
v -0.015017836 0.025830678 -0.004176456
f 726 727 728
f 730 728 727
f 731 726 728
f 731 728 729
f 731 729 726
f 732 730 727
f 732 727 726
f 733 729 730
f 734 730 729
f 734 729 728
f 734 728 730
f 735 729 733
f 735 733 730
f 736 735 726
f 736 726 729
f 736 729 735
f 737 732 726
f 737 726 735
f 738 735 730
f 738 730 732
f 739 737 735
f 739 732 737
f 739 738 732
f 739 735 738
o link6034
usemtl Material034
v -0.046254936 -0.019823544 0.000000000
v -0.047456362 -0.037844947 0.000000000
v -0.046883367 -0.031429021 -0.006957400
v -0.052150868 -0.019777145 -0.007706951
v -0.059470631 -0.019823544 0.000629251
v -0.046254936 -0.019823544 -0.004176456
v -0.046254936 -0.029434959 0.000000000
v -0.052850329 -0.019620030 -0.007025038
v -0.054664924 -0.033039240 -0.006579310
v -0.047368645 -0.029381794 -0.007717935
v -0.047456362 -0.037844947 -0.006000000
v -0.046254936 -0.029434959 -0.004176456
v -0.051060643 -0.037844947 0.000629251
v -0.059470631 -0.023427824 -0.006579310
v -0.051060643 -0.037844947 -0.006579310
v -0.059238061 -0.019753996 -0.006000000
v -0.049859216 -0.030636386 -0.007780737
v -0.059470631 -0.023427824 -0.000572176
v -0.048657789 -0.031837813 -0.007780737
v -0.052262070 -0.036643520 -0.000572176
v -0.052262070 -0.036643520 -0.006579310
v -0.053463497 -0.023427824 -0.007780737
v -0.059470631 -0.022226398 0.000629251
v -0.054664924 -0.033039240 -0.000572176
v -0.053463497 -0.034240667 0.000629251
f 746 745 740
f 747 744 740
f 747 745 743
f 747 740 745
f 749 745 742
f 749 743 745
f 750 746 741
f 750 749 742
f 751 742 745
f 751 745 746
f 751 750 742
f 751 746 750
f 752 741 746
f 752 750 741
f 752 746 740
f 752 740 744
f 754 750 752
f 755 753 744
f 755 744 747
f 755 747 743
f 755 743 753
f 756 748 753
f 757 744 753
f 757 753 748
f 758 749 750
f 758 750 754
f 758 754 756
f 758 743 749
f 759 754 752
f 760 756 754
f 760 748 756
f 760 759 748
f 760 754 759
f 761 756 753
f 761 753 743
f 761 758 756
f 761 743 758
f 762 752 744
f 762 744 757
f 763 757 748
f 763 748 759
f 763 759 752
f 763 762 757
f 764 763 752
f 764 752 762
f 764 762 763
o link6035
usemtl Material035
v 0.000600713 -0.045053509 0.000000000
v 0.000600713 -0.063074912 0.000629251
v 0.000560945 -0.054946392 -0.011385018
v -0.027032105 -0.045053509 -0.011385018
v -0.027032105 -0.057067778 0.000629251
v 0.000600713 -0.045053509 -0.011385018
v -0.027032105 -0.045053509 0.000000000
v -0.015017836 -0.061873485 -0.006579310
v 0.000615553 -0.062446300 -0.006000000
v -0.013816409 -0.061873485 0.000629251
v -0.025830678 -0.058269205 -0.006579310
v -0.009010702 -0.063074912 -0.006579310
v -0.026718678 -0.056406257 -0.006000000
v -0.021024971 -0.052262070 -0.011385018
v -0.023427824 -0.059470631 -0.000572176
v -0.015017836 -0.061873485 -0.000572176
v -0.009010702 -0.063074912 -0.000572176
v -0.026677805 -0.048006845 -0.011385018
v -0.023427824 -0.059470631 -0.006579310
v -0.013816409 -0.054664924 -0.011385018
v -0.022226398 -0.059470631 0.000629251
v -0.025830678 -0.058269205 -0.000572176
v -0.019823544 -0.060672058 -0.000572176
v -0.005406421 -0.063074912 0.000629251
v -0.025830678 -0.049859216 -0.011385018
v -0.019823544 -0.060672058 -0.006579310
v -0.006607848 -0.055866351 -0.011385018
v -0.018622117 -0.060672058 0.000629251
f 769 766 765
f 770 768 765
f 771 769 765
f 771 765 768
f 771 768 769
f 773 770 765
f 773 765 766
f 773 767 770
f 774 766 769
f 776 767 773
f 776 773 766
f 777 775 769
f 777 769 768
f 780 772 776
f 781 776 766
f 781 780 776
f 781 774 780
f 782 777 768
f 782 775 777
f 782 770 767
f 782 768 770
f 783 775 778
f 783 779 775
f 784 776 772
f 784 782 767
f 784 778 782
f 785 774 769
f 786 769 775
f 786 775 779
f 786 785 769
f 786 779 785
f 787 772 780
f 787 779 783
f 787 780 774
f 787 785 779
f 788 781 766
f 788 766 774
f 788 774 781
f 789 782 778
f 789 778 775
f 789 775 782
f 790 784 772
f 790 783 778
f 790 778 784
f 790 787 783
f 790 772 787
f 791 784 767
f 791 767 776
f 791 776 784
f 792 787 774
f 792 774 785
f 792 785 787
o link6036
usemtl Material036
v -0.016219263 0.025830678 0.000629251
v -0.015017836 0.025830678 -0.000572176
v -0.016588259 0.027740972 -0.000168313
v -0.030636386 0.027032105 -0.004176456
v -0.029875567 0.009928084 -0.004186303
v -0.015269673 0.027508722 -0.004175092
v -0.030636386 0.027032105 0.000000000
v -0.015259736 0.027496794 -0.001000000
v -0.029434959 0.010212129 0.000629251
v -0.015017836 0.025830678 -0.004176456
v -0.030794777 0.010267910 0.000000000
v -0.028233532 0.011413556 0.000629251
v -0.028233532 0.010212129 -0.004176456
v -0.028233532 0.010212129 -0.000572176
f 798 796 795
f 799 793 795
f 799 795 796
f 800 793 794
f 800 795 793
f 800 798 795
f 801 793 799
f 802 797 796
f 802 796 798
f 802 800 794
f 802 798 800
f 803 799 796
f 803 796 797
f 803 801 799
f 803 797 801
f 804 794 793
f 804 793 801
f 805 802 794
f 805 797 802
f 806 805 794
f 806 794 804
f 806 804 801
f 806 801 797
f 806 797 805
o link6037
usemtl Material037
v 0.046282174 -0.016246169 0.000000000
v 0.048657789 -0.023427824 0.000000000
v 0.048657789 -0.019823544 -0.004176456
v 0.023427824 -0.018622117 -0.004176456
v 0.016219263 -0.028233532 0.000629251
v 0.034738228 -0.012743600 -0.004176456
v 0.048657789 -0.019823544 0.000000000
v 0.041449228 -0.029434959 -0.004176456
v 0.046282174 -0.016246169 -0.004176456
v 0.031396427 -0.012810108 0.000000000
v 0.019823544 -0.023427824 0.000629251
v 0.048657789 -0.023427824 -0.004176456
v 0.041449228 -0.029434959 0.000000000
v 0.016369958 -0.029742529 -0.004176456
v 0.034738228 -0.012743600 0.000000000
v 0.031396427 -0.012810108 -0.004176456
v 0.024629251 -0.017420690 -0.000572176
v 0.019823544 -0.022226398 -0.004176456
v 0.016369958 -0.029742529 0.000000000
v 0.024629251 -0.017420690 -0.004176456
v 0.019823544 -0.022226398 -0.000572176
v 0.016219263 -0.028233532 -0.004176456
f 813 808 809
f 813 809 807
f 815 812 807
f 815 807 809
f 817 811 808
f 817 808 813
f 817 813 807
f 818 809 808
f 818 808 814
f 818 815 809
f 818 814 815
f 819 814 808
f 819 808 811
f 820 814 819
f 821 807 812
f 821 817 807
f 821 816 817
f 822 812 815
f 822 821 812
f 822 816 821
f 823 817 816
f 823 816 822
f 824 810 815
f 825 820 819
f 825 819 811
f 825 811 820
f 826 823 822
f 826 810 823
f 826 822 815
f 826 815 810
f 827 824 811
f 827 811 817
f 827 817 823
f 827 823 810
f 827 810 824
f 828 820 811
f 828 811 824
f 828 814 820
f 828 824 815
f 828 815 814
o link6038
usemtl Material038
v 0.023427824 -0.037844947 -0.004176456
v 0.023427824 -0.045053509 -0.004176456
v 0.023807842 -0.039599140 -0.011385018
v 0.009291268 -0.036789811 -0.011385018
v 0.009291268 -0.036789811 -0.004176456
v 0.009858444 -0.044372531 -0.011385018
v 0.023427824 -0.036643520 -0.011385018
v 0.023427824 -0.045053509 -0.011385018
v 0.009858444 -0.044372531 -0.004176456
v 0.023427824 -0.036643520 -0.007000000
v 0.009638424 -0.036210896 -0.004176456
f 829 830 831
f 834 833 832
f 835 834 832
f 835 831 834
f 836 834 831
f 836 831 830
f 836 830 834
f 837 834 830
f 837 833 834
f 837 830 829
f 838 829 831
f 838 831 835
f 839 835 832
f 839 832 833
f 839 838 835
f 839 829 838
f 839 837 829
f 839 833 837
o link6039
usemtl Material039
v 0.033039240 0.018622117 -0.004176456
v 0.033039240 0.001802140 -0.004176456
v 0.033039240 0.018622117 -0.011385018
v 0.017616005 0.018383927 -0.011385018
v 0.017420690 0.018622117 -0.005377883
v 0.030636386 -0.004204994 -0.011385018
v 0.025540448 0.018398155 -0.004180386
v 0.033039240 0.001802140 -0.011385018
v 0.017420690 -0.004204994 -0.011385018
v 0.017420690 -0.004204994 -0.006500000
v 0.025830678 0.015017836 -0.004176456
v 0.031169129 -0.004279083 -0.005379423
v 0.031427671 0.001863468 -0.004176456
f 840 841 842
f 844 840 842
f 844 842 843
f 845 843 842
f 846 840 844
f 847 845 842
f 847 842 841
f 848 844 843
f 848 843 845
f 849 844 848
f 850 841 840
f 850 840 846
f 850 846 844
f 850 844 849
f 851 847 841
f 851 845 847
f 851 849 848
f 851 848 845
f 852 850 849
f 852 841 850
f 852 851 841
f 852 849 851
o link6040
usemtl Material040
v -0.013816409 0.018622117 -0.006500000
v -0.013816409 -0.019823544 -0.006500000
v -0.013816409 0.018622117 -0.011385018
v -0.024629251 0.018622117 -0.011385018
v -0.025102399 0.019013718 -0.005378562
v -0.024629251 -0.019823544 -0.011385018
v -0.024629251 -0.010212129 -0.005377883
v -0.013816409 -0.019823544 -0.011385018
v -0.024629251 -0.019823544 -0.007000000
v -0.016138270 -0.019881103 -0.006500000
f 853 854 855
f 857 853 855
f 857 855 856
f 858 856 855
f 858 857 856
f 859 854 853
f 859 853 857
f 860 858 855
f 860 855 854
f 861 859 857
f 861 857 858
f 862 860 854
f 862 858 860
f 862 861 858
f 862 854 859
f 862 859 861
o link6041
usemtl Material041
v 0.031837813 0.054664924 0.000629251
v 0.032814005 0.053093817 -0.001000000
v 0.023427824 0.059470631 -0.006579310
v 0.010212129 0.057067778 -0.007780737
v 0.010212129 0.055866351 0.000000000
v 0.032814005 0.053093817 -0.006000000
v 0.031464038 0.052850009 -0.000088187
v 0.013816409 0.061873485 0.000629251
v 0.033039240 0.054664924 -0.006579310
v 0.010091812 0.055282197 -0.007184757
v 0.025830678 0.053463497 0.000000000
v 0.010212129 0.061873485 0.000629251
v 0.023427824 0.059470631 -0.000572176
v 0.011413556 0.057067778 -0.007780737
v 0.033039240 0.054664924 -0.000572176
v 0.025830678 0.053463497 -0.006000000
v 0.017420690 0.054664924 0.000000000
v 0.010179205 0.061618331 -0.006000000
v 0.022226398 0.059470631 0.000629251
v 0.015017836 0.061873485 -0.006579310
v 0.019823544 0.060672058 -0.000572176
v 0.019823544 0.060672058 -0.006579310
v 0.018622117 0.060672058 0.000629251
v 0.015017836 0.061873485 -0.000572176
f 869 864 863
f 869 868 864
f 871 864 868
f 872 871 868
f 873 869 863
f 874 867 863
f 874 863 870
f 874 872 867
f 875 871 865
f 876 865 871
f 876 872 866
f 876 871 872
f 877 863 864
f 877 864 871
f 877 871 875
f 878 872 868
f 878 868 869
f 878 873 872
f 878 869 873
f 879 873 863
f 879 863 867
f 879 867 872
f 879 872 873
f 880 866 872
f 880 872 874
f 881 870 863
f 881 877 875
f 881 863 877
f 882 876 866
f 882 866 880
f 882 880 874
f 882 874 870
f 883 881 875
f 883 875 865
f 884 865 876
f 884 876 882
f 884 883 865
f 884 882 883
f 885 883 870
f 885 870 881
f 885 881 883
f 886 883 882
f 886 882 870
f 886 870 883
o link6042
usemtl Material042
v -0.040247801 -0.029434959 0.000000000
v -0.040247801 -0.037844947 0.000000000
v -0.039973926 -0.036389724 -0.024000000
v -0.046254936 -0.030636386 -0.024600714
v -0.047456362 -0.029434959 0.000000000
v -0.047456362 -0.037844947 -0.006000000
v -0.040247801 -0.029434959 -0.024000000
v -0.039783325 -0.037414529 -0.023034217
v -0.047456362 -0.029434959 -0.023399287
v -0.047456362 -0.037844947 0.000000000
v -0.041449228 -0.036643520 -0.024600714
v -0.041449228 -0.037844947 -0.023399287
v -0.045053509 -0.034240667 -0.023399287
v -0.045619996 -0.029062345 -0.024000000
v -0.047456362 -0.030636386 -0.023399287
v -0.045053509 -0.033039240 -0.024600714
f 891 888 887
f 894 887 888
f 894 893 887
f 894 889 893
f 895 892 891
f 896 892 888
f 896 888 891
f 896 891 892
f 897 893 889
f 897 890 893
f 897 889 894
f 898 894 888
f 898 888 892
f 898 897 894
f 899 898 892
f 899 897 898
f 900 893 890
f 900 890 895
f 900 887 893
f 900 895 891
f 900 891 887
f 901 895 890
f 901 899 892
f 901 892 895
f 902 890 897
f 902 897 899
f 902 901 890
f 902 899 901
o link6043
usemtl Material043
v 0.017420690 0.055866351 0.000000000
v 0.018343035 0.041497568 -0.007000000
v 0.017420690 0.053463497 -0.011385018
v 0.006593241 0.054578357 -0.011385018
v 0.006607848 0.041449228 0.000000000
v 0.006607848 0.041449228 -0.011385018
v 0.010212129 0.057067778 -0.007780737
v 0.017407845 0.055821327 -0.006044038
v 0.017575590 0.046778156 0.000000000
v 0.017420690 0.041449228 -0.011000000
v 0.013816409 0.054664924 -0.011385018
v 0.006607848 0.057067778 0.000000000
v 0.008574745 0.041539932 0.000000000
v 0.006607848 0.055866351 -0.010183591
v 0.016219263 0.055866351 -0.007780737
v 0.010212129 0.057067778 0.000000000
v 0.007809275 0.055866351 -0.010183591
v 0.006607848 0.057067778 -0.007780737
f 908 906 905
f 908 907 906
f 910 903 904
f 910 904 905
f 910 909 903
f 911 904 903
f 911 903 907
f 912 908 905
f 912 905 904
f 912 904 907
f 912 907 908
f 913 905 906
f 914 907 903
f 914 906 907
f 915 911 907
f 915 907 904
f 915 904 911
f 916 913 906
f 917 910 905
f 917 905 913
f 917 913 909
f 917 909 910
f 918 914 903
f 918 903 909
f 918 909 914
f 919 916 909
f 919 909 913
f 919 913 916
f 920 914 909
f 920 909 916
f 920 916 906
f 920 906 914
o link6044
usemtl Material044
v 0.037844947 0.041449228 -0.004176456
v 0.041745219 0.035709540 -0.011385018
v 0.041449228 0.037844947 -0.023399287
v 0.034240667 0.043852082 -0.024600714
v 0.033679279 0.035633712 -0.004176456
v 0.034240667 0.045053509 -0.023399287
v 0.041449228 0.037844947 -0.011385018
v 0.037844947 0.035442093 -0.004176456
v 0.033039240 0.035442093 -0.024000000
v 0.039046374 0.040247801 -0.024600714
v 0.032495985 0.044281282 -0.011385018
v 0.041103658 0.035129850 -0.024000000
v 0.041449228 0.036643520 -0.024600714
v 0.033039240 0.041449228 -0.004176456
v 0.034240667 0.045053509 -0.011385018
v 0.032563823 0.043176306 -0.024000000
v 0.040247801 0.039046374 -0.024600714
v 0.033039240 0.045053509 -0.023399287
f 926 921 923
f 927 921 922
f 927 922 923
f 927 923 921
f 928 922 921
f 928 921 925
f 929 928 925
f 930 926 923
f 930 924 926
f 932 922 928
f 932 928 929
f 933 929 924
f 933 924 930
f 933 932 929
f 933 923 922
f 933 922 932
f 934 925 921
f 934 931 929
f 934 929 925
f 935 921 926
f 935 934 921
f 935 931 934
f 936 924 929
f 936 929 931
f 937 933 930
f 937 930 923
f 937 923 933
f 938 935 926
f 938 931 935
f 938 936 931
f 938 926 924
f 938 924 936
o link6045
usemtl Material045
v -0.030636386 0.054664924 0.000629251
v -0.030636386 0.036643520 0.000000000
v -0.030323277 0.045809959 -0.011385018
v -0.041449228 0.037844947 -0.011385018
v -0.042650655 0.046254936 0.000629251
v -0.030636386 0.036643520 -0.011385018
v -0.042650655 0.036643520 0.000000000
v -0.040247801 0.049859216 -0.006579310
v -0.042650655 0.037844947 -0.008982164
v -0.041927542 0.036000655 -0.008723077
v -0.040247801 0.049859216 -0.000572176
v -0.033039240 0.054664924 -0.006579310
v -0.034240667 0.045053509 -0.011385018
v -0.042650655 0.047456362 -0.006579310
v -0.041147522 0.036370968 -0.011385018
v -0.037844947 0.051060643 0.000629251
v -0.030518191 0.054448572 -0.006000000
v -0.031837813 0.046254936 -0.011385018
v -0.042650655 0.047456362 -0.000572176
v -0.033039240 0.054664924 -0.000572176
v -0.034240667 0.053463497 0.000629251
v -0.031837813 0.054664924 0.000629251
f 939 940 941
f 943 940 939
f 944 941 940
f 945 940 943
f 947 945 943
f 948 944 940
f 948 940 945
f 948 945 947
f 950 946 949
f 951 942 946
f 951 946 950
f 952 946 942
f 952 942 947
f 952 947 943
f 952 949 946
f 953 944 948
f 953 941 944
f 953 951 941
f 953 942 951
f 953 948 947
f 953 947 942
f 954 949 943
f 954 943 939
f 955 950 939
f 955 939 941
f 955 941 950
f 956 951 950
f 956 950 941
f 956 941 951
f 957 952 943
f 957 943 949
f 957 949 952
f 958 950 949
f 958 939 950
f 959 954 939
f 959 958 949
f 959 949 954
f 960 959 939
f 960 939 958
f 960 958 959
o link6046
usemtl Material046
v 0.049859216 0.025830678 -0.011385018
v 0.055866351 -0.006607848 -0.011385018
v 0.054664924 0.013816409 -0.023399287
v 0.049859216 0.024629251 -0.024600714
v 0.048373513 -0.012540669 -0.011385018
v 0.052262070 0.021024971 -0.023399287
v 0.054664924 0.013816409 -0.011385018
v 0.048214580 0.025581707 -0.023106251
v 0.054664924 -0.012614982 -0.023399287
v 0.053463497 0.016219263 -0.024600714
v 0.049859216 0.025830678 -0.023399287
v 0.055866351 0.006607848 -0.011385018
v 0.052262070 0.021024971 -0.011385018
v 0.048519255 0.025752855 -0.011385018
v 0.055866351 -0.006607848 -0.023399287
v 0.053567450 -0.012313012 -0.011385018
v 0.048657789 -0.012614982 -0.024000000
v 0.052262070 0.019823544 -0.024600714
v 0.055866351 0.006607848 -0.023399287
v 0.054664924 -0.010212129 -0.024600714
v 0.048278415 0.024416139 -0.024000000
v 0.054664924 0.010212129 -0.024600714
v 0.052649187 -0.012390926 -0.024000000
f 967 961 962
f 967 963 966
f 970 966 963
f 971 966 964
f 971 961 966
f 971 964 968
f 972 967 962
f 972 963 967
f 973 967 966
f 973 966 961
f 973 961 967
f 974 968 965
f 974 971 968
f 974 961 971
f 974 962 961
f 975 962 969
f 975 972 962
f 976 969 962
f 976 965 969
f 976 974 965
f 976 962 974
f 977 969 965
f 977 965 968
f 978 970 964
f 978 964 966
f 978 966 970
f 979 963 972
f 979 972 975
f 980 975 969
f 980 979 975
f 980 977 964
f 980 964 970
f 981 977 968
f 981 968 964
f 981 964 977
f 982 970 963
f 982 963 979
f 982 980 970
f 982 979 980
f 983 980 969
f 983 969 977
f 983 977 980
o link6047
usemtl Material047
v -0.030636386 0.016219263 -0.011385018
v -0.030636386 -0.019823544 -0.011385018
v -0.030636386 -0.019823544 -0.024000000
v -0.053463497 0.016219263 -0.024600714
v -0.055866351 -0.005406421 -0.011385018
v -0.030636386 0.016219263 -0.024000000
v -0.052617416 0.015939628 -0.011385018
v -0.052262070 -0.019823544 -0.024600714
v -0.055866351 0.005406421 -0.023399287
v -0.051396298 -0.019542372 -0.011385018
v -0.054664924 0.012614982 -0.023399287
v -0.054681443 0.005264401 -0.011385018
v -0.055866351 -0.005406421 -0.023399287
v -0.054664924 -0.013816409 -0.011385018
v -0.054664924 0.011413556 -0.024600714
v -0.053513164 0.012348190 -0.011385018
v -0.053463497 -0.017420690 -0.011385018
v -0.054664924 -0.013816409 -0.023399287
v -0.054664924 -0.010212129 -0.024600714
v -0.053463497 -0.017420690 -0.023399287
v -0.053463497 -0.016219263 -0.024600714
f 984 985 986
f 989 984 986
f 989 987 984
f 990 984 987
f 991 986 985
f 991 989 986
f 991 987 989
f 993 991 985
f 993 985 984
f 994 990 987
f 995 992 988
f 996 988 992
f 997 993 988
f 997 988 996
f 998 994 987
f 998 992 994
f 998 996 992
f 998 987 991
f 999 994 992
f 999 992 995
f 999 990 994
f 999 995 988
f 999 988 993
f 999 993 984
f 999 984 990
f 1000 991 993
f 1000 993 997
f 1001 997 996
f 1001 1000 997
f 1002 998 991
f 1002 996 998
f 1002 1001 996
f 1003 1001 991
f 1003 991 1000
f 1003 1000 1001
f 1004 1002 991
f 1004 991 1001
f 1004 1001 1002
o link6048
usemtl Material048
v 0.009858444 -0.044372531 -0.011385018
v 0.008938340 -0.054191063 -0.011385018
v 0.009010702 -0.054664924 -0.024600714
v -0.012614982 -0.045053509 -0.024000000
v -0.012614982 -0.045053509 -0.011385018
v 0.009010702 -0.045053509 -0.024000000
v -0.012614982 -0.054664924 -0.023399287
v 0.006607848 -0.055866351 -0.011385018
v -0.010212129 -0.054664924 -0.024600714
v -0.012411400 -0.053581301 -0.011385018
v -0.012390239 -0.052687133 -0.024000000
v -0.006607848 -0.055866351 -0.023399287
v -0.006607848 -0.055866351 -0.011385018
v 0.006607848 -0.055866351 -0.023399287
f 1005 1006 1007
f 1009 1006 1005
f 1009 1005 1008
f 1010 1005 1007
f 1010 1007 1008
f 1010 1008 1005
f 1011 1009 1008
f 1012 1007 1006
f 1013 1008 1007
f 1014 1009 1011
f 1014 1006 1009
f 1015 1013 1011
f 1015 1011 1008
f 1015 1008 1013
f 1016 1011 1013
f 1016 1013 1007
f 1017 1014 1011
f 1017 1011 1016
f 1017 1016 1012
f 1017 1012 1006
f 1017 1006 1014
f 1018 1016 1007
f 1018 1007 1012
f 1018 1012 1016
o link6049
usemtl Material049
v 0.053567450 -0.012313012 -0.011385018
v 0.054664924 -0.013816409 -0.011385018
v 0.053463497 -0.016219263 -0.024600714
v -0.013816409 -0.012614982 -0.024000000
v -0.013816409 -0.029434959 -0.011385018
v 0.052649187 -0.012390926 -0.024000000
v -0.013816409 -0.012614982 -0.011385018
v 0.046669729 -0.028949841 -0.011385018
v -0.013816409 -0.029434959 -0.024000000
v 0.054664924 -0.012614982 -0.023399287
v 0.048657789 -0.028233532 -0.011385018
v 0.047456362 -0.029434959 -0.024600714
v 0.054664924 -0.013816409 -0.023399287
v 0.052262070 -0.021024971 -0.011385018
v 0.052262070 -0.021024971 -0.023399287
v 0.052262070 -0.019823544 -0.024600714
v 0.048657789 -0.028233532 -0.023399287
f 1023 1020 1019
f 1024 1021 1022
f 1024 1022 1019
f 1025 1023 1019
f 1025 1019 1022
f 1025 1022 1023
f 1026 1020 1023
f 1027 1023 1022
f 1028 1024 1019
f 1028 1019 1020
f 1028 1021 1024
f 1029 1020 1026
f 1030 1027 1022
f 1030 1022 1021
f 1030 1026 1023
f 1030 1023 1027
f 1030 1029 1026
f 1031 1028 1020
f 1031 1021 1028
f 1032 1031 1020
f 1032 1020 1029
f 1033 1021 1031
f 1033 1031 1032
f 1033 1032 1029
f 1034 1030 1021
f 1034 1021 1033
f 1035 1033 1029
f 1035 1029 1030
f 1035 1034 1033
f 1035 1030 1034
o link6050
usemtl Material050
v -0.011413556 -0.028233532 0.000629251
v -0.010314635 -0.029794070 -0.000944777
v -0.010212129 -0.028233532 -0.004176456
v -0.024643778 -0.022258131 -0.004176456
v -0.024629251 -0.029434959 0.000629251
v -0.019823544 -0.022226398 -0.000572176
v -0.010212129 -0.028233532 -0.000572176
v -0.011719575 -0.030128984 -0.000127502
v -0.023527773 -0.029170296 -0.004176456
v -0.019823544 -0.022226398 -0.004176456
v -0.021024971 -0.022226398 0.000629251
v -0.010320840 -0.029755506 -0.004176456
v -0.013386648 -0.028492153 -0.004185526
v -0.024643778 -0.022258131 0.000000000
f 1042 1036 1037
f 1042 1037 1038
f 1042 1041 1036
f 1042 1038 1041
f 1043 1037 1036
f 1043 1036 1040
f 1044 1040 1039
f 1044 1043 1040
f 1045 1041 1038
f 1046 1040 1036
f 1046 1036 1041
f 1046 1045 1039
f 1046 1041 1045
f 1047 1038 1037
f 1047 1037 1043
f 1047 1043 1044
f 1048 1044 1039
f 1048 1039 1045
f 1048 1045 1038
f 1048 1047 1044
f 1048 1038 1047
f 1049 1046 1039
f 1049 1039 1040
f 1049 1040 1046
o link6051
usemtl Material051
v -0.012614982 -0.029434959 -0.011385018
v -0.012411400 -0.053581301 -0.011385018
v -0.012390239 -0.052687133 -0.024000000
v -0.040247801 -0.029434959 -0.024000000
v -0.040247801 -0.029434959 -0.011385018
v -0.034240667 -0.045053509 -0.023399287
v -0.012614982 -0.029434959 -0.024000000
v -0.021024971 -0.052262070 -0.023399287
v -0.039046374 -0.040247801 -0.024600714
v -0.034240667 -0.045053509 -0.011385018
v -0.013816409 -0.054664924 -0.023399287
v -0.029434959 -0.047456362 -0.024600714
v -0.040247801 -0.039046374 -0.024600714
v -0.021024971 -0.052262070 -0.011385018
v -0.030636386 -0.047456362 -0.011385018
v -0.012614982 -0.054664924 -0.023399287
v -0.030636386 -0.047456362 -0.023399287
v -0.033039240 -0.045053509 -0.024600714
v -0.019823544 -0.052262070 -0.024600714
v -0.039410248 -0.038270236 -0.011385018
v -0.013816409 -0.054664924 -0.011385018
v -0.016219263 -0.053463497 -0.024600714
f 1050 1051 1052
f 1056 1050 1052
f 1056 1054 1050
f 1056 1053 1054
f 1062 1053 1056
f 1062 1061 1058
f 1062 1054 1053
f 1062 1058 1055
f 1062 1055 1059
f 1063 1057 1060
f 1064 1059 1055
f 1064 1057 1063
f 1065 1052 1051
f 1066 1055 1061
f 1066 1064 1055
f 1066 1057 1064
f 1067 1061 1055
f 1067 1055 1058
f 1067 1058 1061
f 1068 1060 1057
f 1068 1066 1061
f 1068 1057 1066
f 1068 1061 1062
f 1069 1062 1059
f 1069 1054 1062
f 1069 1051 1050
f 1069 1050 1054
f 1069 1064 1063
f 1069 1059 1064
f 1070 1063 1060
f 1070 1069 1063
f 1070 1051 1069
f 1070 1065 1051
f 1070 1060 1065
f 1071 1065 1060
f 1071 1060 1068
f 1071 1052 1065
f 1071 1056 1052
f 1071 1068 1062
f 1071 1062 1056
o link6052
usemtl Material052
v -0.040247801 -0.037844947 0.000000000
v -0.039833056 -0.048114381 -0.001000000
v -0.039641473 -0.038459274 -0.008779643
v -0.040824307 -0.037239844 -0.008773433
v -0.049859216 -0.039046374 0.000629251
v -0.049859216 -0.040247801 -0.006579310
v -0.040209186 -0.037807557 -0.008969266
v -0.039815055 -0.046934957 -0.000048315
v -0.049859216 -0.037844947 0.000629251
v -0.041449228 -0.048657789 -0.006579310
v -0.041449228 -0.039046374 -0.008982164
v -0.041449228 -0.047456362 0.000629251
v -0.049761326 -0.037777297 -0.006000000
v -0.039833056 -0.048114381 -0.006000000
v -0.046254936 -0.043852082 0.000629251
v -0.041449228 -0.048657789 -0.000572176
v -0.049859216 -0.040247801 -0.000572176
f 1078 1072 1074
f 1078 1075 1072
f 1079 1073 1074
f 1079 1074 1072
f 1080 1072 1075
f 1080 1077 1076
f 1082 1077 1075
f 1082 1075 1078
f 1082 1081 1077
f 1082 1078 1074
f 1082 1074 1081
f 1083 1073 1079
f 1083 1079 1072
f 1083 1080 1076
f 1083 1072 1080
f 1084 1080 1075
f 1084 1075 1077
f 1084 1077 1080
f 1085 1081 1074
f 1085 1074 1073
f 1085 1073 1081
f 1086 1083 1076
f 1087 1081 1073
f 1087 1073 1083
f 1087 1083 1086
f 1087 1077 1081
f 1088 1086 1076
f 1088 1076 1077
f 1088 1087 1086
f 1088 1077 1087
o link6053
usemtl Material053
v -0.012776762 -0.029801860 0.000000000
v -0.012614982 -0.045053509 0.000000000
v -0.012614982 -0.029434959 -0.011385018
v -0.027284289 -0.029408453 -0.011000000
v -0.027032105 -0.045053509 0.000000000
v -0.024629251 -0.029434959 0.000629251
v -0.012614982 -0.045053509 -0.011385018
v -0.027032105 -0.036643520 0.000000000
v -0.027032105 -0.045053509 -0.011385018
v -0.027032105 -0.029434959 -0.007000000
f 1089 1090 1091
f 1094 1089 1091
f 1094 1091 1092
f 1094 1093 1090
f 1094 1090 1089
f 1095 1091 1090
f 1095 1090 1093
f 1096 1092 1093
f 1096 1093 1094
f 1097 1095 1093
f 1097 1093 1092
f 1097 1092 1091
f 1097 1091 1095
f 1098 1096 1094
f 1098 1094 1092
f 1098 1092 1096
o link6054
usemtl Material054
v 0.030636386 0.047456362 -0.011385018
v 0.033039240 0.001802140 -0.011385018
v 0.033039240 0.045053509 -0.024600714
v 0.019823544 0.052262070 -0.024600714
v 0.017420690 0.001802140 -0.011385018
v 0.030636386 0.047456362 -0.023399287
v 0.032495985 0.044281282 -0.011385018
v 0.017386787 0.052143564 -0.011385018
v 0.017420690 0.001802140 -0.024000000
v 0.029434959 0.047456362 -0.024600714
v 0.021024971 0.052262070 -0.023399287
v 0.033039240 0.001802140 -0.024000000
v 0.017148944 0.051312204 -0.024000000
v 0.021024971 0.052262070 -0.011385018
v 0.017248569 0.046874971 -0.011385018
f 1104 1099 1101
f 1105 1099 1100
f 1105 1100 1101
f 1105 1101 1099
f 1107 1100 1103
f 1107 1102 1101
f 1108 1104 1101
f 1108 1101 1102
f 1109 1099 1104
f 1109 1108 1102
f 1109 1104 1108
f 1110 1107 1101
f 1110 1101 1100
f 1110 1100 1107
f 1111 1106 1102
f 1111 1102 1107
f 1111 1107 1103
f 1112 1099 1109
f 1112 1109 1102
f 1112 1102 1106
f 1113 1111 1103
f 1113 1106 1111
f 1113 1112 1106
f 1113 1099 1112
f 1113 1103 1100
f 1113 1100 1099
o link6055
usemtl Material055
v 0.017420690 0.018622117 -0.005377883
v 0.017420690 -0.012614982 -0.006500000
v 0.017420690 0.018622117 -0.024000000
v -0.013816409 0.018622117 -0.024000000
v -0.013816409 -0.012614982 -0.006500000
v -0.013816409 0.018622117 -0.006500000
v 0.017420690 -0.012614982 -0.024000000
v -0.013816409 -0.012614982 -0.024000000
f 1114 1115 1116
f 1114 1116 1117
f 1118 1115 1114
f 1119 1118 1114
f 1119 1114 1117
f 1119 1117 1118
f 1120 1116 1115
f 1120 1115 1118
f 1120 1117 1116
f 1121 1120 1118
f 1121 1118 1117
f 1121 1117 1120
o link6056
usemtl Material056
v -0.013816409 0.033039240 -0.011385018
v -0.013816409 -0.029434959 -0.011385018
v -0.013816409 0.033039240 -0.024000000
v -0.030636386 0.033039240 -0.024000000
v -0.030636386 -0.029434959 -0.011000000
v -0.030636386 -0.029434959 -0.024000000
v -0.030636386 0.033039240 -0.011385018
v -0.013816409 -0.029434959 -0.024000000
f 1122 1123 1124
f 1122 1124 1125
f 1126 1123 1122
f 1127 1125 1124
f 1127 1126 1125
f 1127 1123 1126
f 1128 1126 1122
f 1128 1122 1125
f 1128 1125 1126
f 1129 1127 1124
f 1129 1124 1123
f 1129 1123 1127
o link6057
usemtl Material057
v 0.048657789 0.001802140 -0.011385018
v 0.048373513 -0.012540669 -0.011385018
v 0.048657789 -0.012614982 -0.024000000
v 0.017420690 0.001802140 -0.024000000
v 0.017420690 0.001802140 -0.011385018
v 0.017420690 -0.012614982 -0.024000000
v 0.048657789 0.001802140 -0.024000000
v 0.017850199 -0.012497469 -0.011385018
f 1130 1131 1132
f 1135 1132 1131
f 1135 1133 1132
f 1135 1134 1133
f 1136 1130 1132
f 1136 1132 1133
f 1136 1134 1130
f 1136 1133 1134
f 1137 1135 1131
f 1137 1134 1135
f 1137 1131 1130
f 1137 1130 1134
o link6058
usemtl Material058
v 0.029434959 -0.029434959 -0.011385018
v 0.030044269 -0.045973738 -0.011385018
v 0.029434959 -0.029434959 -0.024000000
v 0.000600713 -0.029434959 -0.024000000
v 0.000600713 -0.045053509 -0.011385018
v 0.016219263 -0.045053509 -0.024000000
v 0.000600713 -0.029434959 -0.011385018
v 0.029434959 -0.045053509 -0.024000000
v 0.000600713 -0.045053509 -0.024000000
f 1138 1139 1140
f 1138 1140 1141
f 1142 1139 1138
f 1143 1141 1140
f 1144 1142 1138
f 1144 1138 1141
f 1144 1141 1142
f 1145 1143 1140
f 1145 1140 1139
f 1145 1139 1143
f 1146 1142 1141
f 1146 1141 1143
f 1146 1143 1139
f 1146 1139 1142
o link6059
usemtl Material059
v 0.033039240 0.018622117 0.000000000
v 0.033039240 0.001802140 0.000000000
v 0.033039240 0.018622117 -0.004176456
v 0.025540448 0.018398155 -0.004180386
v 0.025830678 0.016219263 0.000629251
v 0.033039240 0.001802140 -0.004176456
v 0.026303275 0.018986805 0.000000000
v 0.030636386 0.001802140 0.000629251
v 0.025830678 0.015017836 -0.004176456
v 0.025830678 0.015017836 -0.000572176
v 0.031427671 0.001863468 -0.004176456
f 1147 1148 1149
f 1152 1149 1148
f 1152 1150 1149
f 1153 1147 1149
f 1153 1149 1150
f 1153 1151 1147
f 1153 1150 1151
f 1154 1148 1147
f 1154 1147 1151
f 1154 1152 1148
f 1156 1155 1154
f 1156 1154 1151
f 1156 1151 1150
f 1156 1150 1155
f 1157 1155 1150
f 1157 1150 1152
f 1157 1152 1154
f 1157 1154 1155
o link6060
usemtl Material060
v 0.048657789 0.016219263 0.000000000
v 0.048359830 0.003632315 0.000000000
v 0.048657789 0.001802140 -0.024000000
v 0.033039240 0.016219263 -0.024000000
v 0.033039240 0.016219263 0.000000000
v 0.048657789 0.016219263 -0.024000000
v 0.033039240 0.001802140 0.000000000
v 0.046742574 0.002295417 0.000000000
v 0.033039240 0.001802140 -0.024000000
v 0.048349845 0.002236192 -0.008699013
f 1158 1159 1160
f 1162 1159 1158
f 1162 1158 1161
f 1163 1158 1160
f 1163 1160 1161
f 1163 1161 1158
f 1164 1159 1162
f 1165 1164 1160
f 1165 1159 1164
f 1166 1161 1160
f 1166 1160 1164
f 1166 1164 1162
f 1166 1162 1161
f 1167 1165 1160
f 1167 1160 1159
f 1167 1159 1165
o link6061
usemtl Material061
v -0.001802140 -0.030636386 0.000629251
v 0.000600713 -0.045053509 0.000000000
v 0.000600713 -0.029434959 -0.024000000
v -0.012614982 -0.029434959 -0.024000000
v -0.012614982 -0.045053509 0.000000000
v -0.012614982 -0.045053509 -0.024000000
v -0.007809275 -0.029434959 0.000629251
v 0.000597872 -0.031428200 -0.001000000
v 0.000600713 -0.045053509 -0.024000000
v -0.012776762 -0.029801860 0.000000000
v 0.000600713 -0.029434959 -0.006500000
v 0.000598602 -0.032425868 0.000000000
f 1172 1169 1168
f 1173 1171 1170
f 1173 1169 1172
f 1174 1170 1171
f 1174 1172 1168
f 1176 1173 1170
f 1176 1169 1173
f 1177 1173 1172
f 1177 1171 1173
f 1177 1174 1171
f 1177 1172 1174
f 1178 1174 1168
f 1178 1170 1174
f 1178 1168 1175
f 1178 1176 1170
f 1178 1169 1176
f 1179 1175 1168
f 1179 1168 1169
f 1179 1178 1175
f 1179 1169 1178
o link6062
usemtl Material062
v 0.048657789 0.023427824 0.000000000
v 0.048657789 0.016219263 0.000000000
v 0.049554452 0.023807294 -0.017392152
v 0.041738953 0.023672609 -0.016735196
v 0.040722817 0.022912494 0.000000000
v 0.041449228 0.016219263 -0.017392152
v 0.048657789 0.016219263 -0.017392152
v 0.041449228 0.016219263 0.000000000
f 1180 1181 1182
f 1180 1182 1183
f 1184 1181 1180
f 1184 1180 1183
f 1185 1183 1182
f 1185 1184 1183
f 1186 1185 1182
f 1186 1182 1181
f 1186 1181 1185
f 1187 1185 1181
f 1187 1181 1184
f 1187 1184 1185
o link6063
usemtl Material063
v 0.017323000 0.033410501 -0.011385018
v 0.017616005 0.018383927 -0.011385018
v 0.017420690 0.033039240 -0.024000000
v -0.013816409 0.033039240 -0.024000000
v -0.013816409 0.018622117 -0.011385018
v 0.017420690 0.018622117 -0.024000000
v -0.013816409 0.033039240 -0.011385018
v -0.013816409 0.018622117 -0.024000000
f 1188 1189 1190
f 1188 1190 1191
f 1192 1189 1188
f 1193 1190 1189
f 1193 1191 1190
f 1194 1192 1188
f 1194 1188 1191
f 1195 1191 1193
f 1195 1194 1191
f 1195 1192 1194
f 1195 1193 1189
f 1195 1189 1192
